<svg id="图层_1" data-name="图层 1" xmlns="http://www.w3.org/2000/svg" xmlns:xlink="http://www.w3.org/1999/xlink" viewBox="0 0 2254.8285 1343.8272"><defs><style>.cls-1{fill:none;}.cls-2{isolation:isolate;}.cls-3{clip-path:url(#clip-path);}.cls-4{clip-path:url(#clip-path-2);}.cls-5{clip-path:url(#clip-path-3);}.cls-6{fill:#6e93b8;}.cls-7{clip-path:url(#clip-path-4);}.cls-8{clip-path:url(#clip-path-5);}.cls-9{clip-path:url(#clip-path-6);}.cls-10{fill:#506a85;}.cls-11{clip-path:url(#clip-path-7);}.cls-12{clip-path:url(#clip-path-8);}.cls-13{fill:#769dc5;}.cls-14{fill:#526d89;}.cls-15{clip-path:url(#clip-path-9);}.cls-16{fill:#6b8fb3;}.cls-17{fill:#688bad;}.cls-18{fill:#6587a8;}.cls-19{fill:#6283a3;}.cls-20{clip-path:url(#clip-path-10);}.cls-21{fill:#5f7e9e;}.cls-22{fill:#5c7a99;}.cls-23{fill:#597694;}.cls-24{fill:#56728f;}.cls-25{fill:#536e8a;}.cls-26{fill:#84b0dc;}.cls-27{clip-path:url(#clip-path-11);}.cls-28{clip-path:url(#clip-path-12);}.cls-29{fill:#505050;}.cls-30{fill:#535353;}.cls-31{clip-path:url(#clip-path-13);}.cls-32{fill:#5f5f5f;}.cls-33{fill:#626262;}.cls-34{fill:#656565;}.cls-35{fill:#686868;}.cls-36{fill:#6b6b6b;}.cls-37{fill:#6e6e6e;}.cls-38{clip-path:url(#clip-path-14);}.cls-39{fill:#525252;}.cls-40{clip-path:url(#clip-path-15);}.cls-41{fill:#767676;}.cls-42{clip-path:url(#clip-path-16);}.cls-43{clip-path:url(#clip-path-17);}.cls-44{fill:#565656;}.cls-45{clip-path:url(#clip-path-18);}.cls-46{clip-path:url(#clip-path-19);}.cls-47{clip-path:url(#clip-path-20);}.cls-48{clip-path:url(#clip-path-21);}.cls-49{clip-path:url(#clip-path-22);}.cls-50{clip-path:url(#clip-path-23);}.cls-51{clip-path:url(#clip-path-24);}.cls-52{clip-path:url(#clip-path-25);}.cls-53{clip-path:url(#clip-path-26);}.cls-54{clip-path:url(#clip-path-27);}.cls-55{clip-path:url(#clip-path-28);}.cls-56{clip-path:url(#clip-path-29);}.cls-57{clip-path:url(#clip-path-30);}.cls-58{fill:#595959;}.cls-59{fill:#5c5c5c;}.cls-60{clip-path:url(#clip-path-31);}.cls-61{clip-path:url(#clip-path-32);}.cls-62{clip-path:url(#clip-path-33);}.cls-63{clip-path:url(#clip-path-34);}.cls-64{clip-path:url(#clip-path-35);}.cls-65{clip-path:url(#clip-path-36);}.cls-66{clip-path:url(#clip-path-37);}.cls-67{clip-path:url(#clip-path-38);}.cls-68{clip-path:url(#clip-path-39);}.cls-69{clip-path:url(#clip-path-40);}.cls-70{clip-path:url(#clip-path-41);}.cls-71{clip-path:url(#clip-path-42);}.cls-72{clip-path:url(#clip-path-43);}.cls-73{clip-path:url(#clip-path-44);}.cls-74{clip-path:url(#clip-path-45);}.cls-75{clip-path:url(#clip-path-46);}.cls-76{clip-path:url(#clip-path-47);}.cls-77{clip-path:url(#clip-path-48);}.cls-78{clip-path:url(#clip-path-49);}.cls-79{clip-path:url(#clip-path-50);}.cls-80{fill:#848484;}.cls-81{clip-path:url(#clip-path-51);}.cls-82{fill:#896d1b;}.cls-83{fill:#c59d27;}.cls-84{fill:#dcb02c;}.cls-85{fill:#896e1b;}</style><clipPath id="clip-path" transform="translate(-73.4185 -150.3484)"><path class="cls-1" d="M1204.9964,155.9671l-.0924,32.6065a17.2236,17.2236,0,0,0-15.5562,0l.0924-32.6065a17.2236,17.2236,0,0,1,15.5562,0Z"/></clipPath><clipPath id="clip-path-2" transform="translate(-73.4185 -150.3484)"><path class="cls-1" d="M2326.2511,805.9577l-.0925,32.6065c-.0206-1.6317-1.09-3.2634-3.2415-4.5054l.0924-32.6065C2325.1607,802.6943,2326.2305,804.326,2326.2511,805.9577Z"/></clipPath><clipPath id="clip-path-3" transform="translate(-73.4185 -150.3484)"><path class="cls-1" d="M2323.0826,843.0107q-.0507.03-.1023.06l.0924-32.6065q.0516-.03.1023-.06Q2323.129,826.708,2323.0826,843.0107Z"/></clipPath><clipPath id="clip-path-4" transform="translate(-73.4185 -150.3484)"><path class="cls-1" d="M2328.247,805.995l-.0924,32.6065c-.0054,1.9165-1.2605,3.83-3.7679,5.2872l.0924-32.6065C2326.9865,809.8251,2328.2416,807.9115,2328.247,805.995Z"/></clipPath><clipPath id="clip-path-5" transform="translate(-73.4185 -150.3484)"><path class="cls-1" d="M78.6934,801.4627l-.0924,32.6065c-2.1258,1.2354-3.1886,2.8737-3.1794,4.512l.0925-32.6065C75.5048,804.3364,76.5677,802.698,78.6934,801.4627Z"/></clipPath><clipPath id="clip-path-6" transform="translate(-73.4185 -150.3484)"><path class="cls-1" d="M75.4129,838.5767l.0015-.5259.0909-32.0806q0,.04.0013.0792-.046,16.3038-.0924,32.6065Q75.4131,838.6163,75.4129,838.5767Z"/></clipPath><clipPath id="clip-path-7" transform="translate(-73.4185 -150.3484)"><path class="cls-1" d="M78.6456,843.0812c-2.1106-1.2186-3.1885-2.8154-3.2315-4.4253q.046-16.3038.0924-32.6065c.0429,1.61,1.1208,3.2068,3.2314,4.4253l-.0909,32.0806Z"/></clipPath><clipPath id="clip-path-8" transform="translate(-73.4185 -150.3484)"><path class="cls-1" d="M73.4186,838.543l.0925-32.6065c-.0055,1.94,1.2684,3.8809,3.8235,5.3561l-.0924,32.6065C74.687,842.4239,73.4131,840.4825,73.4186,838.543Z"/></clipPath><clipPath id="clip-path-9" transform="translate(-73.4185 -150.3484)"><path class="cls-1" d="M1212.2229,1488.5726a15.7256,15.7256,0,0,1-7.6295,1.8574q.0263-9.3205.0528-18.64c.0131-4.6555.04-9.3105.04-13.9661a15.7253,15.7253,0,0,0,7.6295-1.8574l-.091,32.0806Z"/></clipPath><clipPath id="clip-path-10" transform="translate(-73.4185 -150.3484)"><path class="cls-1" d="M1196.7738,1488.6321q.046-16.3038.0924-32.6065a16.0094,16.0094,0,0,0,7.6829,1.7984q-.0453,16.0408-.091,32.0806.0453-16.0408.0909-32.0806.0684,0,.1367,0-.046,16.3038-.0925,32.6065h0q-.0683,0-.1367,0A16.0092,16.0092,0,0,1,1196.7738,1488.6321Z"/></clipPath><clipPath id="clip-path-11" transform="translate(-73.4185 -150.3484)"><path class="cls-1" d="M1213.7323,1456.7777l-.0924,32.6065c-5.0472,2.9331-13.3044,2.9332-18.3846,0l.0924-32.6065C1200.428,1459.7109,1208.6851,1459.7109,1213.7323,1456.7777Z"/></clipPath><clipPath id="clip-path-12" transform="translate(-73.4185 -150.3484)"><path class="cls-1" d="M1213.5176,156.7992l-.1155,40.7581a74.67,74.67,0,0,0-11.4211-5.2712l.1155-40.7581A74.6686,74.6686,0,0,1,1213.5176,156.7992Z"/></clipPath><clipPath id="clip-path-13" transform="translate(-73.4185 -150.3484)"><path class="cls-1" d="M1202.0966,151.5279l-.1156,40.7581c-7.4917-.2543-9.3215.2839-11.1889.9327a63.7838,63.7838,0,0,0-9.916,4.335l.1155-40.7581a63.7838,63.7838,0,0,1,9.916-4.335C1192.7751,151.8118,1194.6049,151.2736,1202.0966,151.5279Z"/></clipPath><clipPath id="clip-path-14" transform="translate(-73.4185 -150.3484)"><path class="cls-1" d="M1195.3245,224.0877q.0575-20.38.1155-40.7581c1.1641-.2358,2.4135-.47,3.7578-.701l-.1156,40.7581C1197.738,223.6181,1196.4886,223.8519,1195.3245,224.0877Z"/></clipPath><clipPath id="clip-path-15" transform="translate(-73.4185 -150.3484)"><path class="cls-1" d="M1215.11,188.7439l-.1155,40.7581a66.25,66.25,0,0,0-10.3477-4.5119,49.285,49.285,0,0,0-5.5647-1.6035l.1155-40.7581a49.2842,49.2842,0,0,1,5.5647,1.6035A66.25,66.25,0,0,1,1215.11,188.7439Z"/></clipPath><clipPath id="clip-path-16" transform="translate(-73.4185 -150.3484)"><path class="cls-1" d="M1195.3245,224.0877c-8.6074,1.7435-12.5467,3.5966-15.6813,5.4182l.1155-40.7581c3.1346-1.8216,7.0739-3.6747,15.6813-5.4182Q1195.3825,203.7093,1195.3245,224.0877Z"/></clipPath><clipPath id="clip-path-17" transform="translate(-73.4185 -150.3484)"><path class="cls-1" d="M1213.7021,189.5622l-.1155,40.7581a67.146,67.146,0,0,0-13.3565-5.3966l.1155-40.7581A67.1454,67.1454,0,0,1,1213.7021,189.5622Z"/></clipPath><clipPath id="clip-path-18" transform="translate(-73.4185 -150.3484)"><path class="cls-1" d="M1200.3456,184.1657l-.1156,40.7581c-14.1126,2.7057-16.8859,4.0734-19.1695,5.4l.1156-40.7581C1183.46,188.239,1186.2331,186.8714,1200.3456,184.1657Z"/></clipPath><clipPath id="clip-path-19" transform="translate(-73.4185 -150.3484)"><path class="cls-1" d="M2325.36,798.4569l-.1156,40.7581c-6.15-3.0379-8.4735-4.6278-10.7469-5.94l.1155-40.7581C2316.8862,793.8292,2319.21,795.419,2325.36,798.4569Z"/></clipPath><clipPath id="clip-path-20" transform="translate(-73.4185 -150.3484)"><path class="cls-1" d="M2268.6426,841.492a24.312,24.312,0,0,0-9.3987-9.0924l.1155-40.7581a24.312,24.312,0,0,1,9.3987,9.0924Q2268.7006,821.1137,2268.6426,841.492Z"/></clipPath><clipPath id="clip-path-21" transform="translate(-73.4185 -150.3484)"><path class="cls-1" d="M2268.6426,841.492a2.3379,2.3379,0,0,1,.0016-.57l.0017-.6038.0027-.9448.0009-.32q.0034-1.2186.0069-2.4371.0506-17.9422.1017-35.8831.2705.4438.5392.9166-.0575,20.38-.1156,40.7581Q2268.9131,841.9355,2268.6426,841.492Z"/></clipPath><clipPath id="clip-path-22" transform="translate(-73.4185 -150.3484)"><path class="cls-1" d="M2269.8715,843.6793q-.3431-.6613-.69-1.2708.0575-20.38.1155-40.7581.3465.61.69,1.2708C2269.9523,815.1486,2269.9061,831.4519,2269.8715,843.6793Z"/></clipPath><clipPath id="clip-path-23" transform="translate(-73.4185 -150.3484)"><path class="cls-1" d="M2267.3306,803.5774l-.1156,40.7581c-4.7108-8.18-7.0808-9.7906-9.3793-11.1176l.1155-40.7581C2260.25,793.7868,2262.62,795.3977,2267.3306,803.5774Z"/></clipPath><clipPath id="clip-path-24" transform="translate(-73.4185 -150.3484)"><path class="cls-1" d="M87.1452,792.47,87.03,833.2279a52.7682,52.7682,0,0,0-9.0506,6.5984l.1156-40.7581A52.7674,52.7674,0,0,1,87.1452,792.47Z"/></clipPath><clipPath id="clip-path-25" transform="translate(-73.4185 -150.3484)"><path class="cls-1" d="M142.3029,791.6512l-.1155,40.7581a43.6087,43.6087,0,0,0-7.7621,5.9828,19.1229,19.1229,0,0,0-2.7438,3.2144l.1156-40.7581a19.1224,19.1224,0,0,1,2.7438-3.2144A43.6087,43.6087,0,0,1,142.3029,791.6512Z"/></clipPath><clipPath id="clip-path-26" transform="translate(-73.4185 -150.3484)"><path class="cls-1" d="M143.72,792.47l-.1155,40.7581a39.7455,39.7455,0,0,0-9.28,7.7227l.1156-40.7581A39.7451,39.7451,0,0,1,143.72,792.47Z"/></clipPath><clipPath id="clip-path-27" transform="translate(-73.4185 -150.3484)"><path class="cls-1" d="M2316.8834,850.3766q.0575-20.38.1155-40.7581c2.1531-1.9051,4.1811-5.06,4.1971-10.737L2321.08,839.64C2321.0644,845.3162,2319.0365,848.4714,2316.8834,850.3766Z"/></clipPath><clipPath id="clip-path-28" transform="translate(-73.4185 -150.3484)"><path class="cls-1" d="M2316.8834,850.3766a14.4713,14.4713,0,0,1-2.3729,1.6813l.1155-40.7581a14.4716,14.4716,0,0,0,2.3729-1.6813Q2316.9414,829.9982,2316.8834,850.3766Z"/></clipPath><clipPath id="clip-path-29" transform="translate(-73.4185 -150.3484)"><path class="cls-1" d="M132.7027,843.2027l.1156-40.7581a27.0269,27.0269,0,0,0,.1684,2.8677l-.1155,40.7581A27.0306,27.0306,0,0,1,132.7027,843.2027Z"/></clipPath><clipPath id="clip-path-30" transform="translate(-73.4185 -150.3484)"><path class="cls-1" d="M2325.08,804.3474l-.1156,40.7581c-.0014.4906-.6079,1.1356-1.2741,1.7879a43.6091,43.6091,0,0,1-7.7621,5.9828l.1155-40.7581a43.6091,43.6091,0,0,0,7.7621-5.9828C2324.4717,805.483,2325.0783,804.8381,2325.08,804.3474Z"/></clipPath><clipPath id="clip-path-31" transform="translate(-73.4185 -150.3484)"><path class="cls-1" d="M2268.9593,801.3251l-.1156,40.7581c-.0086,3.04-.81,3.92-1.7224,4.8142a44.4265,44.4265,0,0,1-7.7622,5.9828l.1155-40.7581a44.4265,44.4265,0,0,0,7.7622-5.9828C2268.15,805.2454,2268.9507,804.3653,2268.9593,801.3251Z"/></clipPath><clipPath id="clip-path-32" transform="translate(-73.4185 -150.3484)"><path class="cls-1" d="M87.2575,811.31l-.1155,40.7581a43.4532,43.4532,0,0,1-7.5227-5.7541,18.8883,18.8883,0,0,1-2.6262-3.0227l.1156-40.7581a18.8879,18.8879,0,0,0,2.6262,3.0226A43.4532,43.4532,0,0,0,87.2575,811.31Z"/></clipPath><clipPath id="clip-path-33" transform="translate(-73.4185 -150.3484)"><path class="cls-1" d="M142.4118,812.1281l-.1155,40.7581a55.0415,55.0415,0,0,1-9.4251-6.8158l.1156-40.7581A55.0418,55.0418,0,0,0,142.4118,812.1281Z"/></clipPath><clipPath id="clip-path-34" transform="translate(-73.4185 -150.3484)"><path class="cls-1" d="M85.8494,812.1284l-.1155,40.7581a41.6966,41.6966,0,0,1-9.763-8.0469l.1156-40.7581A41.6966,41.6966,0,0,0,85.8494,812.1284Z"/></clipPath><clipPath id="clip-path-35" transform="translate(-73.4185 -150.3484)"><path class="cls-1" d="M551.3322,1050.8565l-.1155,40.7581c-.0092-1.6367-1.0876-3.266-3.2328-4.5045l.1155-40.7581C550.2446,1047.5905,551.3229,1049.22,551.3322,1050.8565Z"/></clipPath><clipPath id="clip-path-36" transform="translate(-73.4185 -150.3484)"><path class="cls-1" d="M551.3322,1050.8565l-.1155,40.7581c.0092,1.6367-1.0444,3.27-3.1757,4.5083l.1155-40.7581C550.2878,1054.1262,551.3413,1052.4932,551.3322,1050.8565Z"/></clipPath><clipPath id="clip-path-37" transform="translate(-73.4185 -150.3484)"><path class="cls-1" d="M553.3352,1050.8957l-.1156,40.7581c-.0054,1.9163-1.2594,3.83-3.7614,5.2874l.1155-40.7581C552.0758,1054.7254,553.33,1052.812,553.3352,1050.8957Z"/></clipPath><clipPath id="clip-path-38" transform="translate(-73.4185 -150.3484)"><path class="cls-1" d="M536.8783,1061.9189l-.1155,40.7581a17.2336,17.2336,0,0,1-15.56-.0036l.1155-40.7581a17.2336,17.2336,0,0,0,15.56.0036Z"/></clipPath><clipPath id="clip-path-39" transform="translate(-73.4185 -150.3484)"><path class="cls-1" d="M538.2957,1062.7372l-.1155,40.7581c-5.0492,2.9269-13.3032,2.9306-18.3853-.0036l.1155-40.7581C524.9925,1065.6678,533.2465,1065.6641,538.2957,1062.7372Z"/></clipPath><clipPath id="clip-path-40" transform="translate(-73.4185 -150.3484)"><path class="cls-1" d="M1196.6535,1143.89l-.1155,40.7581a38.0168,38.0168,0,0,0-8.5466-3.3618,36.3258,36.3258,0,0,0-8.8473-1.397,35.855,35.855,0,0,0-8.8253,1.3787,37.2446,37.2446,0,0,0-8.5088,3.3545l.1155-40.7581a37.2445,37.2445,0,0,1,8.5088-3.3545,35.8551,35.8551,0,0,1,8.8253-1.3787,36.3258,36.3258,0,0,1,8.8473,1.397A38.0168,38.0168,0,0,1,1196.6535,1143.89Z"/></clipPath><clipPath id="clip-path-41" transform="translate(-73.4185 -150.3484)"><path class="cls-1" d="M780.9734,1180.8018l-.1155,40.7581a17.2048,17.2048,0,0,0-15.5534,0l.1155-40.7581a17.2048,17.2048,0,0,1,15.5534,0Z"/></clipPath><clipPath id="clip-path-42" transform="translate(-73.4185 -150.3484)"><path class="cls-1" d="M754.1418,1187.356l-.1155,40.7581c-2.1313,1.2386-3.1913,2.8679-3.182,4.5046l.1155-40.7581C750.9506,1190.2239,752.0105,1188.5946,754.1418,1187.356Z"/></clipPath><clipPath id="clip-path-43" transform="translate(-73.4185 -150.3484)"><path class="cls-1" d="M754.1926,1196.3651l-.1155,40.7581c-2.1452-1.2386-3.2236-2.8678-3.2328-4.5045l.1155-40.7581C750.969,1193.4973,752.0473,1195.1266,754.1926,1196.3651Z"/></clipPath><clipPath id="clip-path-44" transform="translate(-73.4185 -150.3484)"><path class="cls-1" d="M748.8443,1232.5814l.1155-40.7581c-.0055,1.9412,1.27,3.8855,3.8245,5.36l-.1155,40.7581C750.1146,1236.4669,748.8388,1234.5226,748.8443,1232.5814Z"/></clipPath><clipPath id="clip-path-45" transform="translate(-73.4185 -150.3484)"><path class="cls-1" d="M949.3725,1267.3865l-.1155,40.7581c-5.0428,2.9306-13.3032,2.9306-18.3853.0038l.1155-40.7581C936.0693,1270.3171,944.33,1270.3171,949.3725,1267.3865Z"/></clipPath><clipPath id="clip-path-46" transform="translate(-73.4185 -150.3484)"><path class="cls-1" d="M1452.5864,1281.0342l-.1155,40.7581c-5.0555,2.9306-13.3032,2.9306-18.3917,0l.1155-40.7581C1439.2832,1283.9648,1447.5309,1283.9648,1452.5864,1281.0342Z"/></clipPath><clipPath id="clip-path-47" transform="translate(-73.4185 -150.3484)"><path class="cls-1" d="M1202.6216,1492.9806c-7.4614-1.6347-11.4141-3.48-14.4836-5.2521l.1155-40.7581c3.0694,1.7721,7.0219,3.6173,14.4829,5.2519Q1202.68,1472.6022,1202.6216,1492.9806Z"/></clipPath><clipPath id="clip-path-48" transform="translate(-73.4185 -150.3484)"><path class="cls-1" d="M1220.7795,1446.9739l-.1155,40.7581a64.2843,64.2843,0,0,1-9.91,4.3387,45.4361,45.4361,0,0,1-5.21,1.504l.1155-40.7581a45.4376,45.4376,0,0,0,5.21-1.504A64.2844,64.2844,0,0,0,1220.7795,1446.9739Z"/></clipPath><clipPath id="clip-path-49" transform="translate(-73.4185 -150.3484)"><path class="cls-1" d="M1202.6216,1492.9806q.0575-20.38.1148-40.7583,1.3794.3022,2.9235.5943l-.1156,40.7581Q1203.9982,1493.283,1202.6216,1492.9806Z"/></clipPath><clipPath id="clip-path-50" transform="translate(-73.4185 -150.3484)"><path class="cls-1" d="M1222.1969,1447.7923l-.1155,40.7581a68.4559,68.4559,0,0,1-13.8544,5.6252l.1155-40.7581A68.456,68.456,0,0,0,1222.1969,1447.7923Z"/></clipPath><clipPath id="clip-path-51" transform="translate(-73.4185 -150.3484)"><path class="cls-1" d="M1208.3425,1453.4175l-.1156,40.7581c-16.2568-2.853-19.1093-4.25-21.4971-5.6287l.1155-40.7581C1189.2332,1449.1673,1192.0857,1450.5644,1208.3425,1453.4175Z"/></clipPath></defs><title>biobank-f1</title><g class="cls-2"><g class="cls-2"><g class="cls-3"><g class="cls-2"><path d="M1204.9964,155.9671l-.0924,32.6065a11.7581,11.7581,0,0,0-1.5711-.752l.0924-32.6065a11.7582,11.7582,0,0,1,1.5711.752" transform="translate(-73.4185 -150.3484)"/><path d="M1203.4254,155.2151l-.0924,32.6065c-.4245-.1672-.8652-.3152-1.3184-.4443l.0924-32.6065c.4532.1291.8939.2771,1.3184.4443" transform="translate(-73.4185 -150.3484)"/><path d="M1202.107,154.7708l-.0924,32.6065q-.5657-.1611-1.1552-.2828l.0924-32.6065q.5884.1217,1.1552.2828" transform="translate(-73.4185 -150.3484)"/><path d="M1200.9518,154.488l-.0924,32.6065q-.5413-.1119-1.0974-.1906l.0924-32.6065q.5553.0787,1.0974.1906" transform="translate(-73.4185 -150.3484)"/><path d="M1199.8545,154.2975l-.0924,32.6065q-.5387-.0763-1.0867-.1214l.0924-32.6065q.5472.0451,1.0867.1214" transform="translate(-73.4185 -150.3484)"/><path d="M1198.7678,154.1761l-.0924,32.6065q-.55-.0453-1.1047-.0592l.0924-32.6065q.554.0139,1.1047.0592" transform="translate(-73.4185 -150.3484)"/><path d="M1197.663,154.1169l-.0924,32.6065q-.2218-.0056-.4437-.0061-.3285,0-.6565.0112l.0924-32.6065q.3279-.0112.6565-.0112.2219.0005.4437.0061" transform="translate(-73.4185 -150.3484)"/><path d="M1196.5627,154.122l-.0924,32.6065q-.6187.0211-1.2316.0818l.0924-32.6065q.6118-.0608,1.2316-.0818" transform="translate(-73.4185 -150.3484)"/><path d="M1195.3311,154.2038l-.0924,32.6065c-.4787.0475-.9527.1133-1.4186.1972l.0924-32.6065c.4659-.0839.94-.15,1.4186-.1972" transform="translate(-73.4185 -150.3484)"/><path d="M1193.9125,154.401l-.0924,32.6065a16.0107,16.0107,0,0,0-2.0481.5062l.0924-32.6065a16.0107,16.0107,0,0,1,2.0481-.5062" transform="translate(-73.4185 -150.3484)"/><path d="M1191.8645,154.9073l-.0924,32.6065a12.3187,12.3187,0,0,0-2.4242,1.06l.0924-32.6065a12.3187,12.3187,0,0,1,2.4242-1.06" transform="translate(-73.4185 -150.3484)"/></g></g></g><polygon points="2249.591 651.104 2249.499 683.71 1131.485 38.225 1131.578 5.619 2249.591 651.104"/><g class="cls-2"><g class="cls-4"><g class="cls-2"><path d="M2326.2511,805.9577l-.0924,32.6065c-.0206-1.6317-1.09-3.2634-3.2415-4.5054l.0924-32.6065c2.1511,1.2419,3.2209,2.8736,3.2415,4.5054" transform="translate(-73.4185 -150.3484)"/></g></g></g><polygon points="1116.022 5.619 1115.929 38.225 5.182 683.721 5.275 651.114 1116.022 5.619"/><g class="cls-2"><g class="cls-5"><g class="cls-2"><path class="cls-6" d="M2323.2223,810.3758l-.0924,32.6065q-.0739.0446-.15.0886l.0924-32.6065q.0757-.044.15-.0886" transform="translate(-73.4185 -150.3484)"/></g></g></g><g class="cls-2"><g class="cls-7"><g class="cls-2"><path d="M2328.247,805.995l-.0924,32.6065q0,.0574-.0018.1147l.0924-32.6065q.0017-.0574.0018-.1147" transform="translate(-73.4185 -150.3484)"/><path d="M2328.2452,806.11l-.0924,32.6065a4.4648,4.4648,0,0,1-.0856.7491l.0924-32.6065a4.4649,4.4649,0,0,0,.0856-.7491" transform="translate(-73.4185 -150.3484)"/><path d="M2328.16,806.8588l-.0924,32.6065a4.7425,4.7425,0,0,1-.2108.7345l.0924-32.6065a4.7425,4.7425,0,0,0,.2108-.7345" transform="translate(-73.4185 -150.3484)"/><path d="M2327.9488,807.5933l-.0924,32.6065a5.2764,5.2764,0,0,1-.3472.741l.0924-32.6065a5.2764,5.2764,0,0,0,.3472-.741" transform="translate(-73.4185 -150.3484)"/><path d="M2327.6016,808.3344l-.0924,32.6065a6.1312,6.1312,0,0,1-.5233.777l.0924-32.6065a6.1312,6.1312,0,0,0,.5233-.777" transform="translate(-73.4185 -150.3484)"/><path d="M2327.0783,809.1114l-.0924,32.6065a7.4767,7.4767,0,0,1-.8052.8658l.0924-32.6065a7.4768,7.4768,0,0,0,.8052-.8658" transform="translate(-73.4185 -150.3484)"/><path d="M2326.2732,809.9772l-.0924,32.6065a10.0171,10.0171,0,0,1-1.6368,1.2121l.0924-32.6065a10.0171,10.0171,0,0,0,1.6368-1.2121" transform="translate(-73.4185 -150.3484)"/><path d="M2324.6364,811.1893l-.0924,32.6065q-.0778.0468-.1573.093l.0924-32.6065q.0795-.0462.1573-.093" transform="translate(-73.4185 -150.3484)"/></g></g></g><g class="cls-2"><g class="cls-8"><g class="cls-2"><path d="M78.6934,801.4627l-.0924,32.6065q-.0747.0434-.1477.0875l.0924-32.6065q.073-.0441.1477-.0875" transform="translate(-73.4185 -150.3484)"/><path d="M78.5457,801.55l-.0924,32.6065a8.3822,8.3822,0,0,0-1.3621,1.0123l.0924-32.6065a8.3822,8.3822,0,0,1,1.3621-1.0123" transform="translate(-73.4185 -150.3484)"/><path d="M77.1836,802.5625l-.0924,32.6065a6.3137,6.3137,0,0,0-.6789.7316l.0924-32.6065a6.3137,6.3137,0,0,1,.6789-.7316" transform="translate(-73.4185 -150.3484)"/><path d="M76.5047,803.2941l-.0924,32.6065a5.2033,5.2033,0,0,0-.4416.6567l.0924-32.6065a5.2033,5.2033,0,0,1,.4416-.6567" transform="translate(-73.4185 -150.3484)"/><path d="M76.0631,803.9508l-.0924,32.6065a4.4917,4.4917,0,0,0-.295.63l.0924-32.6065a4.4917,4.4917,0,0,1,.295-.63" transform="translate(-73.4185 -150.3484)"/><path d="M75.7681,804.5808l-.0924,32.6065a4.0426,4.0426,0,0,0-.1795.6254l.0924-32.6065a4.0426,4.0426,0,0,1,.1795-.6254" transform="translate(-73.4185 -150.3484)"/><path d="M75.5886,805.2062l-.0924,32.6065a3.8069,3.8069,0,0,0-.0727.627l.0924-32.6065a3.8069,3.8069,0,0,1,.0727-.627" transform="translate(-73.4185 -150.3484)"/><path d="M75.5159,805.8332,75.4235,838.44q-.0023.0708-.0019.1415l.0924-32.6065q0-.0708.0019-.1415" transform="translate(-73.4185 -150.3484)"/></g></g></g><g class="cls-2"><g class="cls-9"><g class="cls-2"><path class="cls-10" d="M78.738,810.4747l-.0924,32.6065c-2.1452-1.2386-3.2236-2.8678-3.2327-4.5045l.0924-32.6065c.0092,1.6367,1.0875,3.266,3.2327,4.5045" transform="translate(-73.4185 -150.3484)"/></g></g></g><g class="cls-2"><g class="cls-11"><g class="cls-2"><path class="cls-10" d="M78.738,810.4747l-.0924,32.6065c-2.1452-1.2386-3.2236-2.8678-3.2327-4.5045l.0924-32.6065c.0092,1.6367,1.0875,3.266,3.2327,4.5045" transform="translate(-73.4185 -150.3484)"/></g></g></g><g class="cls-2"><g class="cls-12"><g class="cls-2"><path d="M77.3345,811.2926l-.0924,32.6065c-2.5551-1.4752-3.829-3.4166-3.8235-5.3561l.0924-32.6065c-.0055,1.94,1.2684,3.8809,3.8235,5.3561" transform="translate(-73.4185 -150.3484)"/></g></g></g><polygon class="cls-13" points="2249.654 660.116 2249.562 692.723 1138.804 1338.224 1138.897 1305.618 2249.654 660.116"/><polygon class="cls-14" points="1123.343 1305.618 1123.251 1338.224 5.227 692.733 5.319 660.126 1123.343 1305.618"/><polygon points="2251.061 660.934 2250.968 693.54 1140.221 1339.036 1140.314 1306.429 2251.061 660.934"/><polygon points="1121.929 1306.429 1121.837 1339.036 3.824 693.551 3.916 660.944 1121.929 1306.429"/><g class="cls-2"><g class="cls-15"><g class="cls-2"><path class="cls-6" d="M1212.3153,1455.9661l-.0924,32.6065a12.37,12.37,0,0,1-2.4362,1.0657l.0924-32.6065a12.37,12.37,0,0,0,2.4362-1.0657" transform="translate(-73.4185 -150.3484)"/><path class="cls-16" d="M1209.8791,1457.0318l-.0924,32.6065a15.9329,15.9329,0,0,1-2.0368.5035l.0924-32.6065a15.9329,15.9329,0,0,0,2.0368-.5035" transform="translate(-73.4185 -150.3484)"/><path class="cls-17" d="M1207.8423,1457.5353l-.0924,32.6065c-.4631.0834-.9343.1488-1.41.196l.0924-32.6065c.476-.0473.9471-.1126,1.41-.196" transform="translate(-73.4185 -150.3484)"/><path class="cls-18" d="M1206.4321,1457.7313l-.0924,32.6065q-.6093.0605-1.227.0815l.0924-32.6065q.6167-.021,1.227-.0815" transform="translate(-73.4185 -150.3484)"/><path class="cls-19" d="M1205.2051,1457.8128l-.0924,32.6065q-.3275.0111-.656.0111-.2417,0-.4832-.006l.0924-32.6065q.2414.006.4832.006.3283,0,.656-.0111" transform="translate(-73.4185 -150.3484)"/></g></g></g><g class="cls-2"><g class="cls-20"><g class="cls-2"><path class="cls-19" d="M1205.2051,1457.8128l-.0924,32.6065q-.3275.0111-.656.0111-.2417,0-.4832-.006l.0924-32.6065q.2414.006.4832.006.3283,0,.656-.0111" transform="translate(-73.4185 -150.3484)"/><path class="cls-21" d="M1204.0659,1457.8179l-.0924,32.6065q-.547-.0137-1.09-.0584l.0924-32.6065q.5425.0447,1.09.0584" transform="translate(-73.4185 -150.3484)"/><path class="cls-22" d="M1202.9756,1457.76l-.0924,32.6065q-.5408-.0446-1.0736-.12l.0924-32.6065q.5321.0754,1.0736.12" transform="translate(-73.4185 -150.3484)"/><path class="cls-23" d="M1201.9021,1457.64l-.0924,32.6065q-.55-.0779-1.0871-.1888l.0924-32.6065q.5362.1109,1.0871.1888" transform="translate(-73.4185 -150.3484)"/><path class="cls-24" d="M1200.8149,1457.4508l-.0924,32.6065q-.5855-.1211-1.15-.2815l.0924-32.6065q.5631.16,1.15.2815" transform="translate(-73.4185 -150.3484)"/><path class="cls-25" d="M1199.6653,1457.1693l-.0924,32.6065c-.4533-.1291-.8942-.2773-1.3191-.4446l.0924-32.6065c.4249.1673.8658.3155,1.3191.4446" transform="translate(-73.4185 -150.3484)"/><path class="cls-10" d="M1198.3462,1456.7247l-.0924,32.6065a11.8563,11.8563,0,0,1-1.5843-.7585l.0924-32.6065a11.8564,11.8564,0,0,0,1.5843.7585" transform="translate(-73.4185 -150.3484)"/></g></g></g><path class="cls-26" d="M2323.022,801.4553c2.1452,1.2386,3.2236,2.8679,3.2328,4.5045s-1.0508,3.266-3.1821,4.5046L1212.3153,1455.9661a17.2049,17.2049,0,0,1-15.5534,0L78.738,810.4747c-2.1452-1.2386-3.2236-2.8678-3.2327-4.5045s1.0444-3.27,3.1757-4.5082L1189.4384,155.96a17.2334,17.2334,0,0,1,15.56.0036Z" transform="translate(-73.4185 -150.3484)"/><path d="M2324.4192,800.6332c5.08,2.9331,5.1072,7.7159.06,10.6491L1213.7323,1456.7777c-5.0472,2.9331-13.3044,2.9332-18.3846,0L77.3345,811.2926c-5.08-2.9331-5.0957-7.7093-.06-10.6491L1188.0214,155.148c5.0587-2.9265,13.3044-2.9332,18.3846,0ZM1212.3135,1455.9586,2323.06,810.4631c2.1258-1.2354,3.2-2.8671,3.1908-4.5054-.0206-1.6317-1.09-3.2634-3.2415-4.5054L1204.9964,155.9671a17.2236,17.2236,0,0,0-15.5562,0L78.6934,801.4627c-2.1258,1.2354-3.1886,2.8737-3.1794,4.512.0206,1.6317,1.09,3.2634,3.23,4.4988l1118.0132,645.4852a15.9978,15.9978,0,0,0,7.7886,1.8629,15.8151,15.8151,0,0,0,7.7676-1.863" transform="translate(-73.4185 -150.3484)"/><g class="cls-2"><g class="cls-27"><g class="cls-2"><path d="M1213.7323,1456.7777l-.0924,32.6065a14.6213,14.6213,0,0,1-2.8349,1.2461l.0924-32.6065a14.6212,14.6212,0,0,0,2.8349-1.2461" transform="translate(-73.4185 -150.3484)"/><path d="M1210.8975,1458.0238l-.0924,32.6065a18.8281,18.8281,0,0,1-2.4616.6127l.0924-32.6065a18.828,18.828,0,0,0,2.4616-.6127" transform="translate(-73.4185 -150.3484)"/><path d="M1208.4358,1458.6365l-.0924,32.6065c-.5461.0985-1.1015.1756-1.6621.2314l.0924-32.6065c.5607-.0558,1.116-.133,1.6621-.2314" transform="translate(-73.4185 -150.3484)"/><path d="M1206.7737,1458.8679l-.0924,32.6065q-.7193.0716-1.4479.0965l.0924-32.6065q.7273-.0249,1.4479-.0965" transform="translate(-73.4185 -150.3484)"/><path d="M1205.3258,1458.9644l-.0924,32.6065q-.6679.0228-1.3374.0062l.0924-32.6065q.6686.0166,1.3374-.0062" transform="translate(-73.4185 -150.3484)"/><path d="M1203.9884,1458.9706l-.0924,32.6065q-.6449-.016-1.2859-.0688l.0924-32.6065q.64.0527,1.2859.0688" transform="translate(-73.4185 -150.3484)"/><path d="M1202.7025,1458.9018l-.0924,32.6065q-.6386-.0526-1.2683-.1417l.0924-32.6065q.6289.0891,1.2683.1417" transform="translate(-73.4185 -150.3484)"/><path d="M1201.4342,1458.76l-.0924,32.6065q-.6533-.0926-1.2914-.2246l.0924-32.6065q.6371.132,1.2914.2246" transform="translate(-73.4185 -150.3484)"/><path d="M1200.1428,1458.5355l-.0924,32.6065q-.69-.143-1.3559-.3323l.0924-32.6065q.6643.1893,1.3559.3323" transform="translate(-73.4185 -150.3484)"/><path d="M1198.7869,1458.2032l-.0924,32.6065c-.5412-.1542-1.0677-.3314-1.5749-.5317l.0924-32.6065c.5073.2,1.0337.3775,1.5749.5317" transform="translate(-73.4185 -150.3484)"/><path d="M1197.212,1457.6715l-.0924,32.6065a14.04,14.04,0,0,1-1.8643-.8937l.0924-32.6065a14.04,14.04,0,0,0,1.8643.8937" transform="translate(-73.4185 -150.3484)"/></g></g></g></g><g class="cls-2"><g class="cls-2"><g class="cls-28"><g class="cls-2"><path class="cls-29" d="M1213.5176,156.7992l-.1155,40.7581a76.0859,76.0859,0,0,0-9.5828-4.5844l.1155-40.7581a76.0859,76.0859,0,0,1,9.5828,4.5844" transform="translate(-73.4185 -150.3484)"/><path class="cls-30" d="M1203.9349,152.2147l-.1155,40.7581c-.6388-.2513-1.2552-.4818-1.8383-.6868l.1155-40.7581c.5831.205,1.1995.4355,1.8383.6868" transform="translate(-73.4185 -150.3484)"/></g></g></g><g class="cls-2"><g class="cls-31"><g class="cls-2"><path class="cls-32" d="M1202.0966,151.5279l-.1155,40.7581q-.588-.02-1.13-.0335l.1155-40.7581q.5427.0136,1.13.0335" transform="translate(-73.4185 -150.3484)"/><path class="cls-33" d="M1200.9663,151.4944l-.1155,40.7581c-1.696-.0425-3.0693-.0395-4.2041-.001l.1155-40.7581c1.1348-.0385,2.5081-.0415,4.2041.001" transform="translate(-73.4185 -150.3484)"/><path class="cls-34" d="M1196.7622,151.4935l-.1155,40.7581c-.7968.027-1.476.0716-2.0666.13l.1155-40.7581c.5907-.0585,1.27-.1031,2.0666-.13" transform="translate(-73.4185 -150.3484)"/><path class="cls-35" d="M1194.6956,151.6236l-.1155,40.7581c-.5468.0542-1.0177.12-1.4359.1958l.1155-40.7581c.4182-.0754.8891-.1416,1.4359-.1958" transform="translate(-73.4185 -150.3484)"/><path class="cls-36" d="M1193.26,151.8193l-.1155,40.7581a13.1882,13.1882,0,0,0-1.75.4387l.1155-40.7581a13.1883,13.1883,0,0,1,1.75-.4387" transform="translate(-73.4185 -150.3484)"/><path class="cls-37" d="M1191.51,152.258l-.1155,40.7581c-.2048.0657-.4031.1335-.6019.2026a63.7838,63.7838,0,0,0-9.916,4.335l.1155-40.7581a63.7838,63.7838,0,0,1,9.916-4.335c.1988-.0691.3971-.1369.6019-.2026" transform="translate(-73.4185 -150.3484)"/></g></g></g><g class="cls-2"><g class="cls-38"><g class="cls-2"><path class="cls-17" d="M1199.1979,182.6286l-.1155,40.7581q-.558.0961-1.0945.1927l.1155-40.7581q.5365-.0966,1.0945-.1927" transform="translate(-73.4185 -150.3484)"/><path class="cls-16" d="M1198.1034,182.8212l-.1155,40.7581a83.3045,83.3045,0,0,0-10.6186,2.5206l.1155-40.7581a83.3044,83.3044,0,0,1,10.6186-2.5206" transform="translate(-73.4185 -150.3484)"/></g></g></g><polygon class="cls-39" points="2241.194 642.168 2241.079 682.926 1139.984 47.209 1140.099 6.451 2241.194 642.168"/><g class="cls-2"><g class="cls-40"><g class="cls-2"><path class="cls-10" d="M1215.11,188.7439l-.1155,40.7581a58.2664,58.2664,0,0,0-7.2781-3.3768l.1156-40.7581a58.2664,58.2664,0,0,1,7.2781,3.3768" transform="translate(-73.4185 -150.3484)"/><path class="cls-25" d="M1207.8321,185.3671l-.1156,40.7581c-1.0106-.3975-2.0441-.7805-3.07-1.1351-1.0651-.3662-2.12-.7028-3.1351-.9917l.1155-40.7581c1.0146.2889,2.07.6255,3.1351.9917,1.0255.3545,2.059.7376,3.07,1.1351" transform="translate(-73.4185 -150.3484)"/><path class="cls-24" d="M1201.6275,183.24l-.1155,40.7581c-.8441-.24-1.66-.4477-2.43-.6118l.1155-40.7581c.77.164,1.5855.3714,2.43.6118" transform="translate(-73.4185 -150.3484)"/></g></g></g><polygon class="cls-41" points="1107.573 6.447 1107.458 47.205 13.611 682.88 13.727 642.121 1107.573 6.447"/><g class="cls-2"><g class="cls-42"><g class="cls-2"><path class="cls-16" d="M1198.1034,182.8212l-.1155,40.7581a83.3045,83.3045,0,0,0-10.6186,2.5206l.1155-40.7581a83.3044,83.3044,0,0,1,10.6186-2.5206" transform="translate(-73.4185 -150.3484)"/><path class="cls-6" d="M1187.4848,185.3418l-.1155,40.7581a36.83,36.83,0,0,0-7.7261,3.406l.1155-40.7581a36.83,36.83,0,0,1,7.7261-3.406" transform="translate(-73.4185 -150.3484)"/></g></g></g><g class="cls-2"><g class="cls-43"><g class="cls-2"><path class="cls-29" d="M1213.7021,189.5622l-.1155,40.7581a56.8874,56.8874,0,0,0-7.025-3.2515l.1155-40.7581a56.8873,56.8873,0,0,1,7.025,3.2515" transform="translate(-73.4185 -150.3484)"/><path class="cls-30" d="M1206.6771,186.3107l-.1155,40.7581c-1.9673-.7739-4.0126-1.4871-5.8575-2.0129l.1155-40.7581c1.8449.5259,3.89,1.239,5.8575,2.0129" transform="translate(-73.4185 -150.3484)"/><path class="cls-44" d="M1200.82,184.2978l-.1155,40.7581q-.2393-.0682-.4739-.1321l.1155-40.7581q.2345.0639.4739.1321" transform="translate(-73.4185 -150.3484)"/></g></g></g><g class="cls-2"><g class="cls-45"><g class="cls-2"><path class="cls-36" d="M1200.3456,184.1657l-.1155,40.7581a131.38,131.38,0,0,0-14.4771,3.3608l.1155-40.7581a131.38,131.38,0,0,1,14.4771-3.3608" transform="translate(-73.4185 -150.3484)"/><path class="cls-37" d="M1185.8685,187.5264l-.1155,40.7581a21.1712,21.1712,0,0,0-4.6924,2.04l.1156-40.7581a21.1711,21.1711,0,0,1,4.6924-2.04" transform="translate(-73.4185 -150.3484)"/></g></g></g><polygon class="cls-14" points="2185.941 641.293 2185.825 682.051 1141.576 79.154 1141.692 38.396 2185.941 641.293"/><polygon class="cls-39" points="2184.533 642.111 2184.417 682.87 1140.168 79.972 1140.284 39.214 2184.533 642.111"/><polygon class="cls-13" points="1106.34 38.399 1106.225 79.157 68.769 682.061 68.884 641.303 1106.34 38.399"/><g class="cls-2"><g class="cls-46"><g class="cls-2"><path class="cls-29" d="M2325.36,798.4569l-.1155,40.7581c-6.15-3.0379-8.4735-4.6278-10.7469-5.94l.1155-40.7581c2.2734,1.3126,4.5972,2.9024,10.7469,5.94" transform="translate(-73.4185 -150.3484)"/></g></g></g><polygon class="cls-41" points="1107.758 39.218 1107.642 79.976 70.186 682.879 70.302 642.121 1107.758 39.218"/><g class="cls-2"><g class="cls-47"><g class="cls-2"><path class="cls-10" d="M2269.987,802.9212l-.1155,40.7581c-3.397-6.5467-7.0522-9.2155-10.6276-11.28l.1155-40.7581c3.5754,2.0643,7.2305,4.7331,10.6276,11.28" transform="translate(-73.4185 -150.3484)"/></g></g></g><g class="cls-2"><g class="cls-48"><g class="cls-2"><path class="cls-10" d="M2269.987,802.9212l-.1155,40.7581c-3.397-6.5467-7.0522-9.2155-10.6276-11.28l.1155-40.7581c3.5754,2.0643,7.2305,4.7331,10.6276,11.28" transform="translate(-73.4185 -150.3484)"/></g></g></g><g class="cls-2"><g class="cls-49"><g class="cls-2"><path class="cls-10" d="M2269.987,802.9212l-.1155,40.7581c-3.397-6.5467-7.0522-9.2155-10.6276-11.28l.1155-40.7581c3.5754,2.0643,7.2305,4.7331,10.6276,11.28" transform="translate(-73.4185 -150.3484)"/></g></g></g><g class="cls-2"><g class="cls-50"><g class="cls-2"><path class="cls-29" d="M2267.3306,803.5774l-.1155,40.7581c-4.7108-8.18-7.0808-9.7905-9.3793-11.1176l.1155-40.7581c2.2985,1.327,4.6685,2.9379,9.3793,11.1176" transform="translate(-73.4185 -150.3484)"/></g></g></g><g class="cls-2"><g class="cls-51"><g class="cls-2"><path class="cls-37" d="M87.1452,792.47,87.03,833.2279q-.3934.2286-.7889.4682l.1155-40.7581q.3951-.2393.7889-.4682" transform="translate(-73.4185 -150.3484)"/><path class="cls-36" d="M86.3563,792.938l-.1155,40.7581a53.322,53.322,0,0,0-7.9677,5.8533l.1155-40.7581a53.322,53.322,0,0,1,7.9677-5.8533" transform="translate(-73.4185 -150.3484)"/><path class="cls-35" d="M78.3886,798.7913l-.1155,40.7581q-.1517.14-.294.2768l.1155-40.7581q.1422-.1364.294-.2768" transform="translate(-73.4185 -150.3484)"/></g></g></g><g class="cls-2"><g class="cls-52"><g class="cls-2"><path class="cls-6" d="M142.3029,791.6512l-.1155,40.7581q-.1985.1153-.4022.2388l.1155-40.7581q.2037-.1234.4022-.2388" transform="translate(-73.4185 -150.3484)"/><path class="cls-16" d="M141.9007,791.89l-.1155,40.7581a44.2652,44.2652,0,0,0-6.6786,5.0974l.1155-40.7581a44.2652,44.2652,0,0,1,6.6786-5.0974" transform="translate(-73.4185 -150.3484)"/><path class="cls-17" d="M135.2221,796.9873l-.1155,40.7581q-.3492.3234-.6813.6466a24.0168,24.0168,0,0,0-2.061,2.2558L132.48,799.89a24.0168,24.0168,0,0,1,2.061-2.2558q.3315-.3228.6813-.6466" transform="translate(-73.4185 -150.3484)"/><path class="cls-18" d="M132.48,799.89l-.1155,40.7581a11.4683,11.4683,0,0,0-.6828.9586l.1155-40.7581a11.4683,11.4683,0,0,1,.6828-.9586" transform="translate(-73.4185 -150.3484)"/></g></g></g><g class="cls-2"><g class="cls-53"><g class="cls-2"><path class="cls-37" d="M143.72,792.47l-.1155,40.7581q-.1911.1106-.3891.2305l.1155-40.7581q.1979-.12.3891-.2305" transform="translate(-73.4185 -150.3484)"/><path class="cls-36" d="M143.3312,792.7l-.1155,40.7581a43.1609,43.1609,0,0,0-6.4237,4.9134l.1155-40.7581a43.1609,43.1609,0,0,1,6.4237-4.9134" transform="translate(-73.4185 -150.3484)"/><path class="cls-35" d="M136.9075,797.6135l-.1155,40.7581a25.6154,25.6154,0,0,0-2.4669,2.5787l.1155-40.7581a25.6154,25.6154,0,0,1,2.4669-2.5787" transform="translate(-73.4185 -150.3484)"/></g></g></g><g class="cls-2"><g class="cls-54"><g class="cls-2"><path class="cls-23" d="M2321.196,798.8817,2321.08,839.64q-.0009.311-.01.6119l.1155-40.7581q.0088-.301.01-.6119" transform="translate(-73.4185 -150.3484)"/><path class="cls-22" d="M2321.1863,799.4936l-.1155,40.7581a19.0021,19.0021,0,0,1-.3474,3.1791l.1156-40.7581a19.0021,19.0021,0,0,0,.3474-3.1791" transform="translate(-73.4185 -150.3484)"/><path class="cls-21" d="M2320.8389,802.6726l-.1156,40.7581a14.5227,14.5227,0,0,1-.6355,2.25l.1155-40.7581a14.5227,14.5227,0,0,0,.6355-2.25" transform="translate(-73.4185 -150.3484)"/><path class="cls-19" d="M2320.2034,804.9226l-.1155,40.7581a12.3261,12.3261,0,0,1-.8053,1.7348l.1155-40.7581a12.3262,12.3262,0,0,0,.8053-1.7348" transform="translate(-73.4185 -150.3484)"/><path class="cls-18" d="M2319.3981,806.6574l-.1155,40.7581a11.4036,11.4036,0,0,1-.9662,1.4452l.1155-40.7581a11.4035,11.4035,0,0,0,.9662-1.4452" transform="translate(-73.4185 -150.3484)"/><path class="cls-17" d="M2318.4319,808.1026l-.1155,40.7581a11.4863,11.4863,0,0,1-1.2387,1.34l.1155-40.7581a11.4861,11.4861,0,0,0,1.2387-1.34" transform="translate(-73.4185 -150.3484)"/><path class="cls-16" d="M2317.1932,809.4428l-.1155,40.7581a13.7891,13.7891,0,0,1-2.2536,1.6717l.1155-40.7581a13.7891,13.7891,0,0,0,2.2536-1.6717" transform="translate(-73.4185 -150.3484)"/></g></g></g><g class="cls-2"><g class="cls-55"><g class="cls-2"><path class="cls-16" d="M2317.1932,809.4428l-.1155,40.7581a13.7891,13.7891,0,0,1-2.2536,1.6717l.1155-40.7581a13.7891,13.7891,0,0,0,2.2536-1.6717" transform="translate(-73.4185 -150.3484)"/><path class="cls-6" d="M2314.94,811.1144l-.1155,40.7581q-.1589.096-.3136.1853l.1155-40.7581q.1546-.0894.3136-.1853" transform="translate(-73.4185 -150.3484)"/></g></g></g><g class="cls-2"><g class="cls-56"><g class="cls-2"><path class="cls-29" d="M132.9867,805.3123l-.1155,40.7581a27.03,27.03,0,0,1-.1684-2.8677l.1155-40.7581a27.03,27.03,0,0,0,.1684,2.8677" transform="translate(-73.4185 -150.3484)"/></g></g></g><g class="cls-2"><g class="cls-57"><g class="cls-2"><path class="cls-58" d="M2325.08,804.3474l-.1155,40.7581,0,.0181.1155-40.7581,0-.0181" transform="translate(-73.4185 -150.3484)"/><path class="cls-59" d="M2325.0794,804.3655l-.1155,40.7581a.703.703,0,0,1-.0144.1181l.1155-40.7581a.7029.7029,0,0,0,.0144-.1181" transform="translate(-73.4185 -150.3484)"/><path class="cls-32" d="M2325.065,804.4837l-.1155,40.7581a.9749.9749,0,0,1-.0442.15l.1155-40.7581a.9749.9749,0,0,0,.0442-.15" transform="translate(-73.4185 -150.3484)"/><path class="cls-33" d="M2325.0208,804.6333l-.1155,40.7581a1.5289,1.5289,0,0,1-.0988.2074l.1155-40.7581a1.529,1.529,0,0,0,.0988-.2074" transform="translate(-73.4185 -150.3484)"/><path class="cls-34" d="M2324.9219,804.8407l-.1155,40.7581a2.9672,2.9672,0,0,1-.2542.371l.1155-40.7581a2.9671,2.9671,0,0,0,.2542-.371" transform="translate(-73.4185 -150.3484)"/><path class="cls-35" d="M2324.6677,805.2118l-.1155,40.7581a10.2953,10.2953,0,0,1-.8621.9236q-.3315.3228-.6813.6466l.1155-40.7581q.3492-.3234.6813-.6466a10.2953,10.2953,0,0,0,.8621-.9236" transform="translate(-73.4185 -150.3484)"/><path class="cls-36" d="M2323.1243,806.7819l-.1155,40.7581a44.2657,44.2657,0,0,1-6.6786,5.0974l.1155-40.7581a44.2657,44.2657,0,0,0,6.6786-5.0974" transform="translate(-73.4185 -150.3484)"/><path class="cls-37" d="M2316.4457,811.8793l-.1155,40.7581q-.2037.1234-.4022.2388l.1155-40.7581q.1985-.1153.4022-.2388" transform="translate(-73.4185 -150.3484)"/></g></g></g><g class="cls-2"><g class="cls-60"><g class="cls-2"><path class="cls-58" d="M2268.9593,801.3251l-.1155,40.7581q-.0006.2171-.0065.42l.1155-40.7581q.0059-.2027.0065-.42" transform="translate(-73.4185 -150.3484)"/><path class="cls-59" d="M2268.9527,801.7448l-.1155,40.7581a10.0784,10.0784,0,0,1-.1725,1.6758l.1155-40.7581a10.0783,10.0783,0,0,0,.1725-1.6758" transform="translate(-73.4185 -150.3484)"/><path class="cls-32" d="M2268.78,803.4206l-.1155,40.7581a5.6178,5.6178,0,0,1-.2441.8739l.1155-40.7581a5.6177,5.6177,0,0,0,.2441-.8739" transform="translate(-73.4185 -150.3484)"/><path class="cls-33" d="M2268.5361,804.2945l-.1155,40.7581a4.2235,4.2235,0,0,1-.277.5975l.1155-40.7581a4.2236,4.2236,0,0,0,.277-.5975" transform="translate(-73.4185 -150.3484)"/><path class="cls-34" d="M2268.2591,804.892l-.1155,40.7581a4.1106,4.1106,0,0,1-.3512.5227l.1155-40.7581a4.11,4.11,0,0,0,.3512-.5227" transform="translate(-73.4185 -150.3484)"/><path class="cls-35" d="M2267.9079,805.4147l-.1155,40.7581a7.5118,7.5118,0,0,1-.671.7246q-.3087.2993-.6331.6l.1155-40.7581q.3239-.3.6331-.6a7.5117,7.5117,0,0,0,.671-.7246" transform="translate(-73.4185 -150.3484)"/><path class="cls-36" d="M2266.6037,806.7389l-.1155,40.7581a45.0156,45.0156,0,0,1-6.7746,5.1722l.1155-40.7581a45.0156,45.0156,0,0,0,6.7746-5.1722" transform="translate(-73.4185 -150.3484)"/><path class="cls-37" d="M2259.8291,811.9111l-.1155,40.7581q-.1793.1086-.3545.211l.1155-40.7581q.1751-.1023.3545-.211" transform="translate(-73.4185 -150.3484)"/></g></g></g><g class="cls-2"><g class="cls-61"><g class="cls-2"><path class="cls-10" d="M87.2575,811.31l-.1155,40.7581a43.4532,43.4532,0,0,1-7.5227-5.7541,18.8883,18.8883,0,0,1-2.6262-3.0227l.1155-40.7581a18.8883,18.8883,0,0,0,2.6262,3.0227,43.4532,43.4532,0,0,0,7.5227,5.7541" transform="translate(-73.4185 -150.3484)"/></g></g></g><g class="cls-2"><g class="cls-62"><g class="cls-2"><path class="cls-29" d="M142.4118,812.1281l-.1155,40.7581a55.0415,55.0415,0,0,1-9.4251-6.8158l.1155-40.7581a55.0415,55.0415,0,0,0,9.4251,6.8158" transform="translate(-73.4185 -150.3484)"/></g></g></g><g class="cls-2"><g class="cls-63"><g class="cls-2"><path class="cls-29" d="M85.8494,812.1284l-.1155,40.7581a41.6966,41.6966,0,0,1-9.763-8.0469l.1155-40.7581a41.6966,41.6966,0,0,0,9.763,8.0469" transform="translate(-73.4185 -150.3484)"/></g></g></g><polygon class="cls-39" points="474.681 896.004 474.565 936.762 68.878 702.538 68.993 661.78 474.681 896.004"/><g class="cls-2"><g class="cls-64"><g class="cls-2"><path class="cls-29" d="M551.3322,1050.8565l-.1155,40.7581c-.0092-1.6367-1.0876-3.266-3.2328-4.5045l.1155-40.7581c2.1452,1.2386,3.2236,2.8679,3.2328,4.5045" transform="translate(-73.4185 -150.3484)"/></g></g></g><g class="cls-2"><g class="cls-65"><g class="cls-2"><path class="cls-23" d="M551.3322,1050.8565l-.1155,40.7581q0,.0656-.0015.1312l.1155-40.7581q.0019-.0656.0015-.1312" transform="translate(-73.4185 -150.3484)"/><path class="cls-22" d="M551.3306,1050.9877l-.1155,40.7581a3.82,3.82,0,0,1-.0733.64l.1155-40.7581a3.82,3.82,0,0,0,.0733-.64" transform="translate(-73.4185 -150.3484)"/><path class="cls-21" d="M551.2574,1051.628l-.1155,40.7581a4.0417,4.0417,0,0,1-.1794.6252l.1155-40.7581a4.0416,4.0416,0,0,0,.1794-.6252" transform="translate(-73.4185 -150.3484)"/><path class="cls-19" d="M551.0779,1052.2532l-.1155,40.7581a4.4785,4.4785,0,0,1-.2941.6282l.1155-40.7581a4.4785,4.4785,0,0,0,.2941-.6282" transform="translate(-73.4185 -150.3484)"/><path class="cls-18" d="M550.7838,1052.8814l-.1155,40.7581a5.181,5.181,0,0,1-.44.654l.1155-40.7581a5.181,5.181,0,0,0,.44-.654" transform="translate(-73.4185 -150.3484)"/><path class="cls-17" d="M550.344,1053.5354l-.1155,40.7581a6.29,6.29,0,0,1-.6763.7289l.1155-40.7581a6.29,6.29,0,0,0,.6763-.7289" transform="translate(-73.4185 -150.3484)"/><path class="cls-16" d="M549.6677,1054.2642l-.1155,40.7581a8.3859,8.3859,0,0,1-1.3628,1.0126l.1155-40.7581a8.3858,8.3858,0,0,0,1.3628-1.0126" transform="translate(-73.4185 -150.3484)"/><path class="cls-6" d="M548.3049,1055.2768l-.1155,40.7581q-.0733.0443-.1484.0879l.1155-40.7581q.0751-.0436.1484-.0879" transform="translate(-73.4185 -150.3484)"/></g></g></g><g class="cls-2"><g class="cls-66"><g class="cls-2"><path class="cls-58" d="M553.3352,1050.8957l-.1155,40.7581q0,.0574-.0018.1148l.1155-40.7581q.0017-.0574.0018-.1148" transform="translate(-73.4185 -150.3484)"/><path class="cls-59" d="M553.3334,1051.01l-.1155,40.7581a4.469,4.469,0,0,1-.0857.75l.1155-40.7581a4.4689,4.4689,0,0,0,.0857-.75" transform="translate(-73.4185 -150.3484)"/><path class="cls-32" d="M553.2477,1051.76l-.1155,40.7581a4.7483,4.7483,0,0,1-.211.7354l.1155-40.7581a4.7483,4.7483,0,0,0,.211-.7354" transform="translate(-73.4185 -150.3484)"/><path class="cls-33" d="M553.0367,1052.4957l-.1155,40.7581a5.284,5.284,0,0,1-.3477.7421l.1155-40.7581a5.284,5.284,0,0,0,.3477-.7421" transform="translate(-73.4185 -150.3484)"/><path class="cls-34" d="M552.689,1053.2378l-.1155,40.7581a6.1409,6.1409,0,0,1-.5241.7781l.1155-40.7581a6.1408,6.1408,0,0,0,.5241-.7781" transform="translate(-73.4185 -150.3484)"/><path class="cls-35" d="M552.1649,1054.0159l-.1155,40.7581a7.4887,7.4887,0,0,1-.8067.8674l.1155-40.7581a7.4888,7.4888,0,0,0,.8067-.8674" transform="translate(-73.4185 -150.3484)"/><path class="cls-36" d="M551.3582,1054.8834l-.1155,40.7581a10.0286,10.0286,0,0,1-1.637,1.2124l.1155-40.7581a10.0286,10.0286,0,0,0,1.637-1.2124" transform="translate(-73.4185 -150.3484)"/><path class="cls-37" d="M549.7212,1056.0958l-.1155,40.7581q-.0729.0439-.1473.0872l.1155-40.7581q.0744-.0434.1473-.0872" transform="translate(-73.4185 -150.3484)"/></g></g></g><polygon class="cls-13" points="474.738 905.016 474.622 945.774 463.344 952.329 463.46 911.57 474.738 905.016"/><polygon class="cls-14" points="447.9 911.567 447.784 952.325 13.723 701.72 13.839 660.962 447.9 911.567"/><polygon class="cls-41" points="476.155 905.835 476.04 946.593 464.762 953.147 464.877 912.389 476.155 905.835"/><polygon class="cls-39" points="446.492 912.385 446.376 953.143 12.315 702.538 12.431 661.78 446.492 912.385"/><g class="cls-2"><g class="cls-67"><g class="cls-2"><path class="cls-6" d="M536.8783,1061.9189l-.1155,40.7581a12.3127,12.3127,0,0,1-2.4235,1.06l.1155-40.7581a12.3128,12.3128,0,0,0,2.4235-1.06" transform="translate(-73.4185 -150.3484)"/><path class="cls-16" d="M534.4548,1062.9789l-.1155,40.7581a15.9424,15.9424,0,0,1-2.04.5043l.1155-40.7581a15.9422,15.9422,0,0,0,2.04-.5043" transform="translate(-73.4185 -150.3484)"/><path class="cls-17" d="M532.4148,1063.4832l-.1155,40.7581c-.4648.0837-.9377.1493-1.4154.1967l.1155-40.7581c.4777-.0474.9506-.113,1.4154-.1967" transform="translate(-73.4185 -150.3484)"/><path class="cls-18" d="M530.9994,1063.68l-.1155,40.7581q-.6128.0608-1.2338.0819l.1155-40.7581q.62-.0211,1.2338-.0819" transform="translate(-73.4185 -150.3484)"/><path class="cls-19" d="M529.7656,1063.7619,529.65,1104.52q-.33.0112-.66.0112-.2417,0-.4832-.006l.1155-40.7581q.2414.006.4832.006.33,0,.66-.0112" transform="translate(-73.4185 -150.3484)"/><path class="cls-21" d="M528.6225,1063.767l-.1155,40.7581q-.547-.0137-1.09-.0584l.1155-40.7581q.5425.0447,1.09.0584" transform="translate(-73.4185 -150.3484)"/><path class="cls-22" d="M527.5322,1063.7086l-.1155,40.7581q-.5408-.0446-1.0736-.12l.1155-40.7581q.5321.0754,1.0736.12" transform="translate(-73.4185 -150.3484)"/><path class="cls-23" d="M526.4586,1063.5887l-.1155,40.7581q-.55-.0779-1.0871-.1888l.1155-40.7581q.5362.1109,1.0871.1888" transform="translate(-73.4185 -150.3484)"/><path class="cls-24" d="M525.3715,1063.4l-.1155,40.7581q-.5855-.1211-1.15-.2815l.1155-40.7581q.563.16,1.15.2815" transform="translate(-73.4185 -150.3484)"/><path class="cls-25" d="M524.2219,1063.1184l-.1155,40.7581c-.4533-.1291-.8942-.2773-1.3191-.4446l.1155-40.7581c.4249.1673.8658.3155,1.3191.4446" transform="translate(-73.4185 -150.3484)"/><path class="cls-10" d="M522.9028,1062.6738l-.1155,40.7581a11.8564,11.8564,0,0,1-1.5843-.7585l.1155-40.7581a11.8563,11.8563,0,0,0,1.5843.7585" transform="translate(-73.4185 -150.3484)"/></g></g></g><g class="cls-2"><g class="cls-68"><g class="cls-2"><path class="cls-37" d="M538.2957,1062.7372l-.1155,40.7581a14.6525,14.6525,0,0,1-2.8275,1.2411l.1155-40.7581a14.6525,14.6525,0,0,0,2.8275-1.2411" transform="translate(-73.4185 -150.3484)"/><path class="cls-36" d="M535.4682,1063.9783l-.1155,40.7581a18.8586,18.8586,0,0,1-2.4652.6135l.1155-40.7581a18.8587,18.8587,0,0,0,2.4652-.6135" transform="translate(-73.4185 -150.3484)"/><path class="cls-35" d="M533.0029,1064.5918l-.1155,40.7581c-.5467.0986-1.1027.1758-1.664.2317l.1155-40.7581c.5613-.0559,1.1173-.1331,1.664-.2317" transform="translate(-73.4185 -150.3484)"/><path class="cls-34" d="M531.3389,1064.8235l-.1155,40.7581q-.72.0717-1.4494.0966l.1155-40.7581q.7281-.0249,1.4494-.0966" transform="translate(-73.4185 -150.3484)"/><path class="cls-33" d="M529.8895,1064.92l-.1155,40.7581q-.6684.0228-1.3384.0062l.1155-40.7581q.669.0166,1.3384-.0062" transform="translate(-73.4185 -150.3484)"/><path class="cls-32" d="M528.5511,1064.9263l-.1155,40.7581q-.6451-.016-1.2865-.0688l.1155-40.7581q.64.0528,1.2865.0688" transform="translate(-73.4185 -150.3484)"/><path class="cls-59" d="M527.2647,1064.8575l-.1155,40.7581q-.6387-.0526-1.2685-.1418l.1155-40.7581q.6289.0891,1.2685.1418" transform="translate(-73.4185 -150.3484)"/><path class="cls-58" d="M525.9962,1064.7157l-.1155,40.7581q-.6532-.0926-1.2912-.2246l.1155-40.7581q.6371.132,1.2912.2246" transform="translate(-73.4185 -150.3484)"/><path class="cls-44" d="M524.705,1064.4912l-.1155,40.7581q-.69-.143-1.3555-.3322l.1155-40.7581q.6642.1892,1.3555.3322" transform="translate(-73.4185 -150.3484)"/><path class="cls-30" d="M523.3494,1064.1589l-.1155,40.7581c-.5411-.1542-1.0674-.3313-1.5746-.5316l.1155-40.7581c.5072.2,1.0335.3774,1.5746.5316" transform="translate(-73.4185 -150.3484)"/><path class="cls-29" d="M521.7748,1063.6274l-.1155,40.7581a14.04,14.04,0,0,1-1.8645-.8938l.1155-40.7581a14.0406,14.0406,0,0,0,1.8645.8938" transform="translate(-73.4185 -150.3484)"/></g></g></g><g class="cls-2"><g class="cls-69"><g class="cls-2"><path class="cls-29" d="M1196.6535,1143.89l-.1155,40.7581a29.126,29.126,0,0,0-3.8411-1.809l.1155-40.7581a29.1259,29.1259,0,0,1,3.8411,1.809" transform="translate(-73.4185 -150.3484)"/><path class="cls-30" d="M1192.8124,1142.0808l-.1155,40.7581c-1.3235-.5206-2.747-.9981-4.1925-1.41l.1155-40.7581c1.4455.4116,2.869.8891,4.1926,1.41" transform="translate(-73.4185 -150.3484)"/><path class="cls-44" d="M1188.62,1140.6711l-.1155,40.7581q-.2561-.0729-.5129-.143c-.9409-.2563-1.8888-.4832-2.82-.6757l.1155-40.7581c.9308.1925,1.8787.4194,2.82.6757q.2568.07.5129.143" transform="translate(-73.4185 -150.3484)"/><path class="cls-58" d="M1185.2874,1139.8524l-.1155,40.7581c-.8612-.1781-1.7077-.3267-2.52-.4419l.1155-40.7581c.8126.1152,1.6591.2638,2.52.4419" transform="translate(-73.4185 -150.3484)"/><path class="cls-59" d="M1182.767,1139.41l-.1155,40.7581c-.6186-.0877-1.2175-.1559-1.7883-.2031l.1155-40.7581c.5708.0471,1.17.1154,1.7883.2031" transform="translate(-73.4185 -150.3484)"/><path class="cls-32" d="M1180.9787,1139.2074l-.1155,40.7581c-.444-.0366-.8709-.06-1.2769-.0707l.1155-40.7581c.406.01.8329.0341,1.2769.0707" transform="translate(-73.4185 -150.3484)"/><path class="cls-33" d="M1179.7018,1139.1367l-.1155,40.7581q-.2255-.0057-.4422-.0057-.3179,0-.6552.0111l.1155-40.7581q.337-.0115.6552-.0111.2166,0,.4422.0057" transform="translate(-73.4185 -150.3484)"/><path class="cls-34" d="M1178.6044,1139.1421l-.1155,40.7581c-.5011.0171-1.0322.0538-1.5862.1088l.1155-40.7581c.5539-.055,1.0851-.0917,1.5862-.1088" transform="translate(-73.4185 -150.3484)"/><path class="cls-35" d="M1177.0182,1139.2509l-.1155,40.7581c-.8734.0867-1.8035.219-2.762.3916l.1155-40.7581c.9586-.1726,1.8887-.3049,2.7621-.3916" transform="translate(-73.4185 -150.3484)"/><path class="cls-36" d="M1174.2562,1139.6425l-.1155,40.7581c-1.2464.2245-2.5411.5173-3.8219.8672-.6847.1859-1.3664.3875-2.0367.6024l.1155-40.7581c.67-.2149,1.352-.4165,2.0367-.6024,1.2808-.35,2.5754-.6427,3.8219-.8672" transform="translate(-73.4185 -150.3484)"/><path class="cls-37" d="M1168.3976,1141.1122l-.1155,40.7581a33.9739,33.9739,0,0,0-6.472,2.7521l.1155-40.7581a33.9739,33.9739,0,0,1,6.472-2.7521" transform="translate(-73.4185 -150.3484)"/></g></g></g><g class="cls-2"><g class="cls-70"><g class="cls-2"><path class="cls-29" d="M780.9734,1180.8018l-.1155,40.7581a11.8564,11.8564,0,0,0-1.5843-.7585l.1155-40.7581a11.8562,11.8562,0,0,1,1.5843.7585" transform="translate(-73.4185 -150.3484)"/><path class="cls-30" d="M779.3891,1180.0433l-.1155,40.7581c-.4249-.1673-.8658-.3155-1.3192-.4446l.1155-40.7581c.4533.1291.8942.2773,1.3192.4446" transform="translate(-73.4185 -150.3484)"/><path class="cls-44" d="M778.07,1179.5987l-.1155,40.7581q-.5631-.16-1.15-.2815l.1155-40.7581q.5855.1211,1.15.2815" transform="translate(-73.4185 -150.3484)"/><path class="cls-58" d="M776.92,1179.3172l-.1155,40.7581q-.5362-.1109-1.0872-.1888l.1155-40.7581q.55.0779,1.0872.1888" transform="translate(-73.4185 -150.3484)"/><path class="cls-59" d="M775.8332,1179.1284l-.1155,40.7581q-.5321-.0754-1.0736-.12l.1155-40.7581q.5408.0446,1.0736.12" transform="translate(-73.4185 -150.3484)"/><path class="cls-32" d="M774.76,1179.0084l-.1155,40.7581q-.5426-.0447-1.09-.0584l.1155-40.7581q.5471.0137,1.09.0584" transform="translate(-73.4185 -150.3484)"/><path class="cls-33" d="M773.6692,1178.95l-.1155,40.7581q-.2413-.006-.483-.006-.3283,0-.656.0112l.1155-40.7581q.3275-.0111.656-.0112.2416,0,.483.006" transform="translate(-73.4185 -150.3484)"/><path class="cls-34" d="M772.53,1178.9551l-.1155,40.7581q-.6167.021-1.2271.0815l.1155-40.7581q.6093-.0605,1.2271-.0815" transform="translate(-73.4185 -150.3484)"/><path class="cls-35" d="M771.3032,1179.0366l-.1155,40.7581c-.476.0473-.9472.1126-1.41.196l.1155-40.7581c.4631-.0834.9343-.1488,1.41-.196" transform="translate(-73.4185 -150.3484)"/><path class="cls-36" d="M769.893,1179.2327l-.1155,40.7581a15.9332,15.9332,0,0,0-2.0369.5035l.1155-40.7581a15.9331,15.9331,0,0,1,2.0369-.5035" transform="translate(-73.4185 -150.3484)"/><path class="cls-37" d="M767.8561,1179.7362l-.1155,40.7581a12.37,12.37,0,0,0-2.4361,1.0657l.1155-40.7581a12.37,12.37,0,0,1,2.4361-1.0657" transform="translate(-73.4185 -150.3484)"/></g></g></g><polygon class="cls-41" points="692.001 1030.454 691.886 1071.212 680.608 1077.766 680.723 1037.008 692.001 1030.454"/><g class="cls-2"><g class="cls-71"><g class="cls-2"><path class="cls-37" d="M754.1418,1187.356l-.1155,40.7581q-.0757.044-.15.0886l.1155-40.7581q.0739-.0446.15-.0886" transform="translate(-73.4185 -150.3484)"/><path class="cls-36" d="M753.9923,1187.4447l-.1155,40.7581a8.4294,8.4294,0,0,0-1.37,1.0176l.1155-40.7581a8.4294,8.4294,0,0,1,1.37-1.0176" transform="translate(-73.4185 -150.3484)"/><path class="cls-35" d="M752.6225,1188.4623l-.1155,40.7581a6.3,6.3,0,0,0-.6775.73l.1155-40.7581a6.3,6.3,0,0,1,.6775-.73" transform="translate(-73.4185 -150.3484)"/><path class="cls-34" d="M751.945,1189.1923l-.1155,40.7581a5.1747,5.1747,0,0,0-.4392.653l.1155-40.7581a5.1747,5.1747,0,0,1,.4392-.653" transform="translate(-73.4185 -150.3484)"/><path class="cls-33" d="M751.5059,1189.8453l-.1155,40.7581a4.4633,4.4633,0,0,0-.2931.626l.1155-40.7581a4.4633,4.4633,0,0,1,.2931-.626" transform="translate(-73.4185 -150.3484)"/><path class="cls-32" d="M751.2127,1190.4714l-.1155,40.7581a4.0215,4.0215,0,0,0-.1785.6221l.1155-40.7581a4.0215,4.0215,0,0,1,.1785-.6221" transform="translate(-73.4185 -150.3484)"/><path class="cls-59" d="M751.0342,1191.0935l-.1155,40.7581a3.797,3.797,0,0,0-.0728.6366l.1155-40.7581a3.797,3.797,0,0,1,.0728-.6366" transform="translate(-73.4185 -150.3484)"/><path class="cls-58" d="M750.9613,1191.73l-.1155,40.7581q-.0019.0652-.0015.13l.1155-40.7581q0-.0652.0015-.13" transform="translate(-73.4185 -150.3484)"/></g></g></g><g class="cls-2"><g class="cls-72"><g class="cls-2"><path class="cls-10" d="M754.1926,1196.3651l-.1155,40.7581c-2.1452-1.2386-3.2236-2.8678-3.2328-4.5045l.1155-40.7581c.0092,1.6367,1.0875,3.266,3.2328,4.5045" transform="translate(-73.4185 -150.3484)"/></g></g></g><g class="cls-2"><g class="cls-73"><g class="cls-2"><path class="cls-29" d="M752.7844,1197.1835l-.1155,40.7581c-2.5543-1.4747-3.83-3.419-3.8245-5.36l.1155-40.7581c-.0055,1.9412,1.27,3.8855,3.8245,5.36" transform="translate(-73.4185 -150.3484)"/></g></g></g><polygon class="cls-41" points="1088.507 993.516 1088.391 1034.274 875.838 1157.796 875.954 1117.038 1088.507 993.516"/><polygon class="cls-39" points="857.569 1117.042 857.453 1157.8 707.439 1071.212 707.555 1030.453 857.569 1117.042"/><g class="cls-2"><g class="cls-74"><g class="cls-2"><path class="cls-37" d="M949.3725,1267.3865l-.1155,40.7581a14.6013,14.6013,0,0,1-2.8311,1.2443l.1155-40.7581a14.6014,14.6014,0,0,0,2.8311-1.2443" transform="translate(-73.4185 -150.3484)"/><path class="cls-36" d="M946.5414,1268.6309l-.1155,40.7581a18.8288,18.8288,0,0,1-2.4617.6126l.1155-40.7581a18.8286,18.8286,0,0,0,2.4617-.6126" transform="translate(-73.4185 -150.3484)"/><path class="cls-35" d="M944.08,1269.2435l-.1155,40.7581c-.5465.0985-1.1024.1757-1.6636.2316l.1155-40.7581c.5612-.0559,1.117-.1331,1.6636-.2316" transform="translate(-73.4185 -150.3484)"/><path class="cls-34" d="M942.4162,1269.4751l-.1155,40.7581q-.72.0717-1.45.0966l.1155-40.7581q.7283-.0249,1.45-.0966" transform="translate(-73.4185 -150.3484)"/><path class="cls-33" d="M940.9662,1269.5717l-.1155,40.7581q-.6691.0229-1.34.0062l.1155-40.7581q.67.0167,1.34-.0062" transform="translate(-73.4185 -150.3484)"/><path class="cls-32" d="M939.6264,1269.5779l-.1155,40.7581q-.6461-.0161-1.2884-.0689l.1155-40.7581q.6414.0528,1.2884.0689" transform="translate(-73.4185 -150.3484)"/><path class="cls-59" d="M938.338,1269.509l-.1155,40.7581q-.64-.0527-1.2708-.142l.1155-40.7581q.63.0893,1.2708.142" transform="translate(-73.4185 -150.3484)"/><path class="cls-58" d="M937.0672,1269.367l-.1155,40.7581q-.6544-.0927-1.2935-.225l.1155-40.7581q.6381.1322,1.2935.225" transform="translate(-73.4185 -150.3484)"/><path class="cls-44" d="M935.7738,1269.142l-.1155,40.7581q-.6911-.1432-1.3573-.3326l.1155-40.7581q.665.1895,1.3573.3326" transform="translate(-73.4185 -150.3484)"/><path class="cls-30" d="M934.4164,1268.8094l-.1155,40.7581c-.5417-.1543-1.0685-.3317-1.5761-.532l.1155-40.7581c.5076.2,1.0345.3777,1.5761.532" transform="translate(-73.4185 -150.3484)"/><path class="cls-29" d="M932.84,1268.2774l-.1155,40.7581a14.05,14.05,0,0,1-1.8531-.8871l.1155-40.7581a14.05,14.05,0,0,0,1.8531.8871" transform="translate(-73.4185 -150.3484)"/></g></g></g><polygon class="cls-41" points="2186.056 661.774 2185.941 702.532 1379.052 1171.444 1379.168 1130.686 2186.056 661.774"/><polygon class="cls-39" points="1360.776 1130.686 1360.661 1171.444 1123.119 1034.3 1123.235 993.541 1360.776 1130.686"/><g class="cls-2"><g class="cls-75"><g class="cls-2"><path class="cls-37" d="M1452.5864,1281.0342l-.1155,40.7581a14.6726,14.6726,0,0,1-2.8314,1.243l.1155-40.7581a14.6726,14.6726,0,0,0,2.8314-1.243" transform="translate(-73.4185 -150.3484)"/><path class="cls-36" d="M1449.755,1282.2772l-.1155,40.7581a18.8593,18.8593,0,0,1-2.4654.6136l.1155-40.7581a18.8593,18.8593,0,0,0,2.4654-.6136" transform="translate(-73.4185 -150.3484)"/><path class="cls-35" d="M1447.29,1282.8908l-.1155,40.7581c-.5466.0985-1.1024.1758-1.6636.2316l.1155-40.7581c.5611-.0559,1.117-.1331,1.6636-.2316" transform="translate(-73.4185 -150.3484)"/><path class="cls-34" d="M1445.626,1283.1224l-.1155,40.7581q-.72.0717-1.449.0966l.1155-40.7581q.7279-.0249,1.449-.0966" transform="translate(-73.4185 -150.3484)"/><path class="cls-33" d="M1444.1769,1283.219l-.1155,40.7581q-.6684.0228-1.3384.0062l.1155-40.7581q.669.0166,1.3384-.0062" transform="translate(-73.4185 -150.3484)"/><path class="cls-32" d="M1442.8386,1283.2252l-.1155,40.7581q-.6453-.0161-1.2869-.0688l.1155-40.7581q.6407.0528,1.2869.0688" transform="translate(-73.4185 -150.3484)"/><path class="cls-59" d="M1441.5517,1283.1563l-.1155,40.7581q-.6392-.0527-1.27-.1419l.1155-40.7581q.6295.0892,1.27.1419" transform="translate(-73.4185 -150.3484)"/><path class="cls-58" d="M1440.2821,1283.0145l-.1155,40.7581q-.654-.0927-1.2929-.2249l.1155-40.7581q.6379.1322,1.2929.2249" transform="translate(-73.4185 -150.3484)"/><path class="cls-44" d="M1438.9892,1282.79l-.1155,40.7581q-.6913-.1432-1.3578-.3328l.1155-40.7581q.6653.19,1.3578.3328" transform="translate(-73.4185 -150.3484)"/><path class="cls-30" d="M1437.6314,1282.4568l-.1155,40.7581c-.5423-.1545-1.07-.3321-1.5782-.5328l.1155-40.7581c.5084.2007,1.0359.3783,1.5782.5328" transform="translate(-73.4185 -150.3484)"/><path class="cls-29" d="M1436.0532,1281.9241l-.1155,40.7581a14.0924,14.0924,0,0,1-1.8585-.89l.1155-40.7581a14.0925,14.0925,0,0,0,1.8585.89" transform="translate(-73.4185 -150.3484)"/></g></g></g><polygon class="cls-13" points="2241.207 660.951 2241.092 701.709 1147.245 1337.384 1147.361 1296.626 2241.207 660.951"/><polygon class="cls-14" points="1114.835 1296.622 1114.719 1337.38 680.658 1086.775 680.774 1046.017 1114.835 1296.622"/><polygon class="cls-41" points="2242.625 661.77 2242.509 702.528 1148.663 1338.202 1148.778 1297.444 2242.625 661.77"/><polygon class="cls-39" points="1113.427 1297.44 1113.311 1338.198 679.25 1087.593 679.366 1046.835 1113.427 1297.44"/><g class="cls-2"><g class="cls-76"><g class="cls-2"><path class="cls-24" d="M1203.8392,1452.457l-.1155,40.7581c-2.1233-.439-3.9776-.8946-5.6157-1.3611l.1155-40.7581c1.6381.4665,3.4924.9221,5.6157,1.3611" transform="translate(-73.4185 -150.3484)"/><path class="cls-25" d="M1198.2235,1451.096l-.1155,40.7581c-1.7922-.51-3.3256-1.0337-4.67-1.5626l.1155-40.7581c1.344.5289,2.8774,1.0523,4.67,1.5626" transform="translate(-73.4185 -150.3484)"/><path class="cls-10" d="M1193.5539,1449.5334l-.1155,40.7581a38.4411,38.4411,0,0,1-5.3-2.563l.1155-40.7581a38.4413,38.4413,0,0,0,5.3,2.563" transform="translate(-73.4185 -150.3484)"/></g></g></g><path class="cls-26" d="M2314.5136,792.46a59.6654,59.6654,0,0,1,6.6117,4.4492c.67,9.2782-3.556,12.688-6.4993,14.391L1220.7795,1446.9739a64.2844,64.2844,0,0,1-9.91,4.3387,45.4361,45.4361,0,0,1-5.21,1.504c-9.3968-1.773-13.9587-3.8557-17.4064-5.8463l-434.061-250.6052c-2.1452-1.2386-3.2236-2.8678-3.2328-4.5045s1.0507-3.266,3.182-4.5046l11.2782-6.5541a17.2048,17.2048,0,0,1,15.5534,0L930.9872,1267.39c5.0821,2.9268,13.3425,2.9268,18.3853-.0038l212.553-123.5223a37.2445,37.2445,0,0,1,8.5088-3.3545,35.8551,35.8551,0,0,1,8.8253-1.3787,36.3258,36.3258,0,0,1,8.8473,1.397,38.0168,38.0168,0,0,1,8.5466,3.3618l237.5412,137.1445c5.0885,2.9305,13.3362,2.93,18.3917,0L2259.4747,812.122a44.4265,44.4265,0,0,0,7.7622-5.9828,19.3608,19.3608,0,0,0,2.75-3.2181c-3.397-6.5467-7.0522-9.2155-10.6276-11.28L1215.11,188.7439a66.25,66.25,0,0,0-10.3477-4.5119,49.2851,49.2851,0,0,0-5.5647-1.6035c-11.285,1.9427-15.8806,4.0512-19.4392,6.1192L142.3029,791.6512a43.6087,43.6087,0,0,0-7.7621,5.9828,19.1229,19.1229,0,0,0-2.7438,3.2144c3.3906,6.543,7.0394,9.2155,10.6149,11.28l405.6875,234.2238c2.1452,1.2386,3.2236,2.8679,3.2328,4.5045s-1.0444,3.27-3.1757,4.5083l-11.2782,6.5541a17.2336,17.2336,0,0,1-15.56-.0036L87.2575,811.31a43.4532,43.4532,0,0,1-7.5227-5.7541,18.8883,18.8883,0,0,1-2.6262-3.0227A25.1059,25.1059,0,0,1,87.1452,792.47L1180.9917,156.7956a63.7838,63.7838,0,0,1,9.916-4.335,45.98,45.98,0,0,1,5.21-1.5114c9.3745,1.7726,13.8994,3.8288,17.3327,5.811Z" transform="translate(-73.4185 -150.3484)"/><g class="cls-2"><g class="cls-77"><g class="cls-2"><path class="cls-6" d="M1220.7795,1446.9739l-.1155,40.7581a64.2843,64.2843,0,0,1-9.91,4.3387c-.4558.1569-.9086.3077-1.3547.4507l.1155-40.7581c.4461-.143.8989-.2938,1.3547-.4507a64.2844,64.2844,0,0,0,9.91-4.3387" transform="translate(-73.4185 -150.3484)"/><path class="cls-16" d="M1209.5152,1451.7633l-.1155,40.7581a39.769,39.769,0,0,1-3.8553,1.0533l.1155-40.7581a39.7692,39.7692,0,0,0,3.8553-1.0533" transform="translate(-73.4185 -150.3484)"/></g></g></g><g class="cls-2"><g class="cls-78"><g class="cls-2"><path class="cls-23" d="M1205.66,1452.8166l-.1155,40.7581q-.9422-.1778-1.8207-.36l.1155-40.7581q.8791.1818,1.8207.36" transform="translate(-73.4185 -150.3484)"/><path class="cls-24" d="M1203.8392,1452.457l-.1155,40.7581c-2.1233-.439-3.9776-.8946-5.6157-1.3611l.1155-40.7581c1.6381.4665,3.4924.9221,5.6157,1.3611" transform="translate(-73.4185 -150.3484)"/></g></g></g><g class="cls-2"><g class="cls-79"><g class="cls-2"><path class="cls-37" d="M1222.1969,1447.7923l-.1155,40.7581a67.6464,67.6464,0,0,1-11.7439,4.9941l.1155-40.7581a67.6464,67.6464,0,0,0,11.7439-4.9941" transform="translate(-73.4185 -150.3484)"/><path class="cls-36" d="M1210.453,1452.7864l-.1155,40.7581c-.7185.23-1.4257.4425-2.11.6311l.1155-40.7581c.6847-.1886,1.3919-.4007,2.11-.6311" transform="translate(-73.4185 -150.3484)"/></g></g></g><path class="cls-80" d="M2315.9282,791.6375a55.5176,55.5176,0,0,1,9.4315,6.8194c-6.15-3.0379-8.4735-4.6278-10.7469-5.94L1213.5176,156.7992a74.67,74.67,0,0,0-11.4211-5.2712c-7.4917-.2543-9.3215.2839-11.1889.9327a63.7838,63.7838,0,0,0-9.916,4.335L87.1452,792.47a52.7682,52.7682,0,0,0-9.0506,6.5984c-.421,4.3424.52,5.4,1.64,6.4877a43.4532,43.4532,0,0,0,7.5227,5.7541l434.061,250.6052a17.2336,17.2336,0,0,0,15.56.0036l11.2782-6.5541c2.1313-1.2386,3.1849-2.8716,3.1757-4.5083s-1.0876-3.266-3.2328-4.5045L142.4118,812.1281a55.0415,55.0415,0,0,1-9.4251-6.8158c-.5716-5.4445.4022-6.55,1.5541-7.6784a43.6087,43.6087,0,0,1,7.7621-5.9828L1179.7587,188.7477a75.9667,75.9667,0,0,1,11.7363-5.4446c9.3978-.3134,11.3165.258,13.2676.9289a66.25,66.25,0,0,1,10.3477,4.5119L2259.3594,791.6414a55.1154,55.1154,0,0,1,9.4314,6.8121c.5716,5.4519-.4022,6.5578-1.554,7.6858a44.4265,44.4265,0,0,1-7.7622,5.9828l-806.8882,468.9122c-5.0555,2.9306-13.3032,2.9306-18.3917,0L1196.6535,1143.89a38.0168,38.0168,0,0,0-8.5466-3.3618,36.3258,36.3258,0,0,0-8.8473-1.397,35.8551,35.8551,0,0,0-8.8253,1.3787,37.2445,37.2445,0,0,0-8.5088,3.3545l-212.553,123.5223c-5.0428,2.9306-13.3032,2.9306-18.3853.0038l-150.0138-86.5885a17.2048,17.2048,0,0,0-15.5534,0l-11.2782,6.5541c-2.1313,1.2386-3.1913,2.8679-3.182,4.5046s1.0875,3.266,3.2328,4.5045l434.061,250.6052a74.9728,74.9728,0,0,0,11.4211,5.2712c7.4982.258,9.3216-.2839,11.1953-.929a64.2844,64.2844,0,0,0,9.91-4.3387L2314.626,811.3a39.7455,39.7455,0,0,0,9.28-7.7227c2.0255.3244,1.0517,1.43-.1,2.5582a43.6091,43.6091,0,0,1-7.7621,5.9828L1222.1969,1447.7923a68.4558,68.4558,0,0,1-13.8544,5.6252c-16.2568-2.853-19.1093-4.25-21.4971-5.6287l-434.061-250.6052c-5.0758-2.9305-5.1027-7.7152-.06-10.6458l11.2782-6.5541c5.0428-2.9306,13.3031-2.9306,18.3853-.0038l150.0138,86.5885a17.205,17.205,0,0,0,15.5534,0l212.553-123.5223a39.505,39.505,0,0,1,9.0675-3.583,32.0749,32.0749,0,0,1,19.3782.0183,40.0143,40.0143,0,0,1,9.1079,3.59l237.5412,137.1445a17.2316,17.2316,0,0,0,15.5661,0l806.8882-468.9122a39.9109,39.9109,0,0,0,9.2733-7.7264c-4.7108-8.18-7.0808-9.7905-9.3793-11.1176L1213.7021,189.5622a67.146,67.146,0,0,0-13.3565-5.3966c-14.1126,2.7058-16.886,4.0734-19.1695,5.4L143.72,792.47a39.7455,39.7455,0,0,0-9.28,7.7227c4.7171,8.176,7.0873,9.7942,9.3794,11.1176l405.6875,234.2238c5.0822,2.9342,5.1028,7.7152.0663,10.6495l-11.2782,6.5541c-5.0492,2.9269-13.3032,2.9306-18.3853-.0036L85.8494,812.1284a41.6966,41.6966,0,0,1-9.763-8.0469c4.8728-9.4072,7.2754-11.055,9.6414-12.43L1179.5743,155.9773a68.8809,68.8809,0,0,1,13.8607-5.6289c16.2631,2.8568,19.1157,4.2538,21.4971,5.6287Z" transform="translate(-73.4185 -150.3484)"/><g class="cls-2"><g class="cls-81"><g class="cls-2"><path class="cls-58" d="M1208.3425,1453.4175l-.1155,40.7581c-3.4867-.6119-6.3568-1.1568-8.738-1.649l.1156-40.7581c2.3812.4921,5.2513,1.0371,8.738,1.649" transform="translate(-73.4185 -150.3484)"/><path class="cls-44" d="M1199.6046,1451.7685l-.1156,40.7581c-3.064-.6333-5.3184-1.1791-7.0353-1.6678l.1155-40.7581c1.7169.4887,3.9713,1.0345,7.0353,1.6678" transform="translate(-73.4185 -150.3484)"/><path class="cls-30" d="M1192.5693,1450.1007l-.1155,40.7581c-1.2744-.3627-2.2526-.6939-3.0458-1.006l.1155-40.7581c.7932.3121,1.7715.6433,3.0458,1.006" transform="translate(-73.4185 -150.3484)"/><path class="cls-29" d="M1189.5234,1449.0947l-.1155,40.7581a18.4727,18.4727,0,0,1-2.6781-1.306l.1155-40.7581a18.4728,18.4728,0,0,0,2.6781,1.306" transform="translate(-73.4185 -150.3484)"/></g></g></g></g><g class="cls-2"><polygon class="cls-82" points="1213.101 147.107 1213.078 155.259 1123.699 103.656 1123.722 95.504 1213.101 147.107"/><polygon class="cls-83" points="1123.722 95.504 1123.699 103.656 1034.628 155.418 1034.651 147.267 1123.722 95.504"/><polygon class="cls-82" points="1312.931 204.744 1312.908 212.896 1223.989 161.559 1224.013 153.407 1312.931 204.744"/><polygon class="cls-83" points="1224.013 153.407 1223.989 161.559 1134.919 213.321 1134.942 205.169 1224.013 153.407"/><polygon class="cls-82" points="1413.228 262.651 1413.205 270.802 1324.018 219.31 1324.041 211.159 1413.228 262.651"/><polygon class="cls-83" points="1324.041 211.159 1324.018 219.31 1234.947 271.072 1234.97 262.921 1324.041 211.159"/><polygon class="cls-83" points="1434.433 262.651 1434.41 270.802 1324.197 334.851 1324.22 326.699 1434.433 262.651"/><path class="cls-84" d="M1197.0652,233.5666l310.786,179.4324-110.2126,64.0485-310.786-179.4324Zm.3836,115.6513,89.0708-51.7623-89.3788-51.6029L1108.07,297.6151l89.3788,51.6029m200.1271,115.5434,89.0708-51.7623L1397.46,361.5069l-89.0708,51.7623,89.1871,51.4922m-100.2967-57.9063,89.0708-51.7623-88.9189-51.3373L1208.36,355.5177l88.9189,51.3373" transform="translate(-73.4185 -150.3484)"/><polygon class="cls-82" points="1324.22 326.699 1324.197 334.851 1013.411 155.418 1013.434 147.267 1324.22 326.699"/></g><g class="cls-2"><polygon class="cls-82" points="1014.768 262.255 1014.745 270.406 925.379 218.811 925.402 210.659 1014.768 262.255"/><polygon class="cls-83" points="925.402 210.659 925.379 218.811 836.309 270.573 836.332 262.421 925.402 210.659"/><polygon class="cls-82" points="1114.593 319.889 1114.57 328.04 1025.657 276.706 1025.68 268.555 1114.593 319.889"/><polygon class="cls-82" points="915.124 320.162 915.101 328.313 825.735 276.718 825.758 268.566 915.124 320.162"/><polygon class="cls-83" points="1025.68 268.555 1025.657 276.706 936.587 328.468 936.61 320.317 1025.68 268.555"/><polygon class="cls-83" points="825.758 268.566 825.735 276.718 736.664 328.48 736.687 320.329 825.758 268.566"/><polygon class="cls-82" points="1214.889 377.795 1214.866 385.946 1125.679 334.454 1125.702 326.302 1214.889 377.795"/><polygon class="cls-82" points="1014.948 377.796 1014.925 385.947 926.013 334.613 926.036 326.462 1014.948 377.796"/><polygon class="cls-83" points="1125.702 326.302 1125.679 334.454 1036.608 386.216 1036.632 378.064 1125.702 326.302"/><polygon class="cls-83" points="926.036 326.462 926.013 334.613 836.942 386.376 836.965 378.224 926.036 326.462"/><polygon class="cls-82" points="1315.365 435.804 1315.342 443.956 1226.141 392.456 1226.164 384.304 1315.365 435.804"/><polygon class="cls-82" points="1115.245 435.702 1115.222 443.853 1026.034 392.361 1026.057 384.209 1115.245 435.702"/><polygon class="cls-83" points="1226.164 384.304 1226.141 392.456 1137.071 444.218 1137.094 436.066 1226.164 384.304"/><polygon class="cls-83" points="1026.057 384.209 1026.034 392.361 936.963 444.123 936.986 435.972 1026.057 384.209"/><polygon class="cls-82" points="1215.72 493.711 1215.697 501.863 1126.497 450.363 1126.52 442.211 1215.72 493.711"/><polygon class="cls-83" points="1126.52 442.211 1126.497 450.363 1037.426 502.125 1037.449 493.974 1126.52 442.211"/><polygon class="cls-83" points="1337.035 436.065 1337.012 444.217 1127.148 566.177 1127.171 558.025 1337.035 436.065"/><path class="cls-84" d="M998.7324,348.7066l411.7211,237.7073L1200.59,708.3734,788.8686,470.6661Zm-99.261,173.566L988.5423,470.51l-89.366-51.5955-89.0709,51.7624,89.366,51.5955m99.6452-57.9074,89.07-51.7619-89.366-51.5955-89.07,51.7619,89.366,51.5955m200.9514,231.457L1289.139,644.06l-89.2-51.5-89.0709,51.7624,89.2,51.5m99.6452-57.9074,89.07-51.7619-89.2-51.5-89.07,51.7619,89.2,51.5m-200.1209-.1022,89.0709-51.7624-89.1873-51.4923L1010.4049,586.32l89.1873,51.4923m99.6452-57.9074,89.07-51.7619L1199.12,476.6507l-89.07,51.7619,89.1874,51.4923m-199.9414.0014,89.0709-51.7624L999.4542,476.81l-89.0709,51.7624,88.9128,51.3338m99.6452-57.9074,89.07-51.7619-88.9128-51.3338-89.07,51.7619,88.9128,51.3338" transform="translate(-73.4185 -150.3484)"/><polygon class="cls-82" points="1127.171 558.025 1127.148 566.177 715.427 328.469 715.45 320.318 1127.171 558.025"/></g><g class="cls-2"><polygon class="cls-82" points="1714.066 436.34 1714.043 444.491 1624.862 393.003 1624.885 384.851 1714.066 436.34"/><polygon class="cls-83" points="1624.885 384.851 1624.862 393.003 1535.791 444.765 1535.815 436.614 1624.885 384.851"/><polygon class="cls-82" points="1814.363 494.246 1814.34 502.398 1725.159 450.909 1725.182 442.757 1814.363 494.246"/><polygon class="cls-83" points="1725.182 442.757 1725.159 450.909 1636.088 502.671 1636.111 494.52 1725.182 442.757"/><polygon class="cls-82" points="1914.391 551.997 1914.368 560.149 1824.983 508.543 1825.006 500.391 1914.391 551.997"/><polygon class="cls-83" points="1825.006 500.391 1824.983 508.543 1735.912 560.305 1735.935 552.153 1825.006 500.391"/><polygon class="cls-82" points="2014.216 609.631 2014.193 617.783 1925.279 566.449 1925.303 558.297 2014.216 609.631"/><polygon class="cls-83" points="1925.303 558.297 1925.279 566.449 1836.209 618.211 1836.232 610.059 1925.303 558.297"/><polygon class="cls-82" points="2114.512 667.537 2114.489 675.689 2025.302 624.197 2025.325 616.045 2114.512 667.537"/><polygon class="cls-83" points="2025.325 616.045 2025.302 624.197 1936.231 675.959 1936.254 667.807 2025.325 616.045"/><polygon class="cls-83" points="2135.723 667.541 2135.7 675.693 2025.488 739.741 2025.511 731.589 2135.723 667.541"/><path class="cls-84" d="M1698.2288,522.914l510.9125,294.9755-110.2122,64.0483L1588.0166,586.9623Zm200.51,231.1942,89.0708-51.7623-89.3852-51.6066-89.0708,51.7623,89.3852,51.6066m200.1211,115.54,89.0708-51.7623-89.1874-51.4924-89.0708,51.7623,89.1874,51.4924M1798.7106,696.3568l89.0708-51.7623-89.1809-51.4886L1709.53,644.8682l89.1809,51.4886M1698.414,638.4505l89.0708-51.7623L1698.3039,535.2l-89.0708,51.7623,89.1809,51.4886m300.1494,173.2913,89.0708-51.7623-88.9131-51.334L1909.65,760.4078l88.9131,51.334" transform="translate(-73.4185 -150.3484)"/><polygon class="cls-82" points="2025.511 731.589 2025.488 739.741 1514.575 444.766 1514.598 436.614 2025.511 731.589"/></g><g class="cls-2"><polygon class="cls-82" points="1616.33 609.567 1616.307 617.718 1526.922 566.112 1526.945 557.96 1616.33 609.567"/><polygon class="cls-83" points="1526.945 557.96 1526.922 566.112 1437.851 617.874 1437.874 609.722 1526.945 557.96"/><polygon class="cls-82" points="1716.154 667.2 1716.131 675.352 1627.218 624.018 1627.241 615.866 1716.154 667.2"/><polygon class="cls-82" points="1516.685 667.474 1516.662 675.626 1427.277 624.019 1427.3 615.867 1516.685 667.474"/><polygon class="cls-83" points="1627.241 615.866 1627.218 624.018 1538.148 675.78 1538.171 667.629 1627.241 615.866"/><polygon class="cls-83" points="1427.3 615.867 1427.277 624.019 1338.206 675.781 1338.23 667.629 1427.3 615.867"/><polygon class="cls-82" points="1816.451 725.107 1816.428 733.258 1727.247 681.77 1727.27 673.618 1816.451 725.107"/><polygon class="cls-82" points="1616.51 725.108 1616.486 733.259 1527.573 681.925 1527.597 673.774 1616.51 725.108"/><polygon class="cls-83" points="1727.27 673.618 1727.247 681.77 1638.176 733.532 1638.199 725.38 1727.27 673.618"/><polygon class="cls-83" points="1527.597 673.774 1527.573 681.925 1438.503 733.687 1438.526 725.536 1527.597 673.774"/><polygon class="cls-82" points="1916.109 782.644 1916.086 790.796 1827.703 739.768 1827.726 731.616 1916.109 782.644"/><polygon class="cls-82" points="1716.806 783.014 1716.783 791.165 1627.602 739.677 1627.625 731.525 1716.806 783.014"/><polygon class="cls-83" points="1827.726 731.616 1827.703 739.768 1738.633 791.53 1738.656 783.379 1827.726 731.616"/><polygon class="cls-83" points="1627.625 731.525 1627.602 739.677 1538.532 791.439 1538.555 783.287 1627.625 731.525"/><polygon class="cls-82" points="1816.464 840.551 1816.441 848.703 1728.058 797.675 1728.081 789.524 1816.464 840.551"/><polygon class="cls-83" points="1728.081 789.524 1728.058 797.675 1638.988 849.437 1639.011 841.286 1728.081 789.524"/><polygon class="cls-83" points="1938.597 783.378 1938.574 791.529 1728.71 913.489 1728.733 905.337 1938.597 783.378"/><path class="cls-84" d="M1599.4964,695.558l412.5191,238.168-209.8636,121.9594-412.5191-238.168Zm1.1816,116.1193,89.07-51.7621-89.3852-51.6066-89.07,51.7621,89.3852,51.6066m-99.6447,57.9072,89.07-51.7621-89.3852-51.6066-89.07,51.7621,89.3852,51.6066m200.121,115.54,89.07-51.7621-89.181-51.4887-89.07,51.7621,89.181,51.4887m99.6447-57.9072,89.07-51.7621-89.181-51.4887-89.07,51.7621,89.181,51.4887m-100.2966-57.9063,89.07-51.7621-88.913-51.334-89.07,51.7621,88.913,51.334m-99.6447,57.9072,89.07-51.7621-88.913-51.334-89.07,51.7621,88.913,51.334m299.5991,57.5365,89.07-51.7621-88.3825-51.0277-89.07,51.7621,88.3825,51.0277m-99.6447,57.9072,89.07-51.7621L1801.5,939.872l-89.07,51.7621,88.3825,51.0277" transform="translate(-73.4185 -150.3484)"/><polygon class="cls-82" points="1728.733 905.337 1728.71 913.489 1316.191 675.321 1316.214 667.169 1728.733 905.337"/></g><g class="cls-2"><polygon class="cls-82" points="383.992 590.316 383.968 598.467 327.892 566.091 327.915 557.94 383.992 590.316"/><polygon class="cls-83" points="327.915 557.94 327.892 566.091 272.186 598.464 272.209 590.312 327.915 557.94"/><polygon class="cls-82" points="317.426 628.999 317.403 637.151 261.327 604.775 261.35 596.623 317.426 628.999"/><polygon class="cls-83" points="261.35 596.623 261.327 604.775 205.621 637.147 205.644 628.996 261.35 596.623"/><polygon class="cls-82" points="261.784 673.658 261.761 681.809 184.41 637.151 184.434 629 261.784 673.658"/><polygon class="cls-83" points="405.203 590.312 405.179 598.463 261.761 681.809 261.784 673.658 405.203 590.312"/><path class="cls-84" d="M401.2709,696.002l77.35,44.6582L335.2023,824.0061l-77.35-44.6582Zm.4336,77.0345L457.41,740.6639l-56.0765-32.3758L345.628,740.6607l56.0765,32.3758M335.1394,811.72l55.7056-32.3726-56.0765-32.3758-55.7056,32.3726L335.1394,811.72" transform="translate(-73.4185 -150.3484)"/></g><g class="cls-2"><polygon class="cls-82" points="649.758 435.869 649.735 444.021 593.658 411.645 593.682 403.494 649.758 435.869"/><polygon class="cls-83" points="593.682 403.494 593.658 411.645 537.953 444.018 537.976 435.866 593.682 403.494"/><polygon class="cls-82" points="716.701 474.519 716.678 482.671 660.627 450.309 660.65 442.158 716.701 474.519"/><polygon class="cls-83" points="660.65 442.158 660.627 450.309 604.921 482.682 604.944 474.531 660.65 442.158"/><polygon class="cls-82" points="583.193 474.553 583.17 482.704 527.093 450.329 527.116 442.177 583.193 474.553"/><polygon class="cls-83" points="527.116 442.177 527.093 450.329 471.387 482.701 471.41 474.55 527.116 442.177"/><polygon class="cls-82" points="783.389 513.021 783.366 521.173 727.34 488.826 727.363 480.675 783.389 513.021"/><polygon class="cls-83" points="727.363 480.675 727.34 488.826 671.634 521.199 671.657 513.048 727.363 480.675"/><polygon class="cls-82" points="649.85 513.368 649.827 521.52 593.776 489.159 593.799 481.007 649.85 513.368"/><polygon class="cls-83" points="593.799 481.007 593.776 489.159 538.071 521.531 538.094 513.38 593.799 481.007"/><polygon class="cls-82" points="516.876 513.38 516.853 521.532 450.177 482.705 450.2 474.553 516.876 513.38"/><polygon class="cls-82" points="850.102 551.538 850.079 559.69 794.028 527.329 794.051 519.177 850.102 551.538"/><polygon class="cls-83" points="794.051 519.177 794.028 527.329 738.322 559.701 738.345 551.55 794.051 519.177"/><polygon class="cls-82" points="716.824 551.705 716.801 559.856 660.775 527.51 660.798 519.358 716.824 551.705"/><polygon class="cls-83" points="660.798 519.358 660.775 527.51 605.069 559.883 605.092 551.731 660.798 519.358"/><polygon class="cls-85" points="594.519 557.876 594.495 566.027 516.853 521.532 516.876 513.38 594.519 557.876"/><polygon class="cls-82" points="917.109 590.224 917.086 598.376 861.009 566 861.032 557.849 917.109 590.224"/><polygon class="cls-83" points="861.032 557.849 861.009 566 805.303 598.373 805.327 590.221 861.032 557.849"/><polygon class="cls-82" points="783.537 590.221 783.514 598.373 727.463 566.012 727.486 557.86 783.537 590.221"/><polygon class="cls-83" points="727.486 557.86 727.463 566.012 671.757 598.385 671.78 590.233 727.486 557.86"/><polygon class="cls-82" points="850.544 628.908 850.521 637.06 794.444 604.684 794.467 596.532 850.544 628.908"/><polygon class="cls-83" points="794.467 596.532 794.444 604.684 738.738 637.056 738.761 628.905 794.467 596.532"/><polygon class="cls-83" points="938.326 590.225 938.303 598.376 794.884 681.722 794.907 673.57 938.326 590.225"/><path class="cls-84" d="M667.0367,541.5558,1011.7445,740.573,868.326,823.9187,667.9371,708.2241,590.295,663.7283l-66.6768-38.8267Zm.434,77.0347,55.7059-32.3728L667.1,553.8419l-55.7059,32.3728L667.4707,618.59m-66.5652,38.6835,55.7059-32.3728-56.0765-32.3758L544.829,624.8982l56.0765,32.3758M868.2564,811.629l55.7059-32.3728L867.8858,746.88,812.18,779.2532l56.0765,32.3758m66.5652-38.6835,55.7059-32.3728L934.451,708.197,878.7451,740.57l56.0765,32.3758m-67.0068-38.6864,55.7059-32.3728L867.47,669.5253l-55.7059,32.3728,56.051,32.3611M801.25,772.9426,856.9555,740.57l-56.051-32.3611-55.7059,32.3728,56.051,32.3611M734.4138,657.24,790.12,624.8673l-56.051-32.3611L678.3628,624.879l56.051,32.3611m-66.85,38.8492,55.7055-32.3725-56.051-32.3611-55.7055,32.3725,56.051,32.3611m66.9729,38.3365,55.7059-32.3728-56.0255-32.3464-55.7059,32.3728,56.0255,32.3464m66.5652-38.6835L856.8075,663.37,800.782,631.0232,745.076,663.3959l56.0255,32.3464" transform="translate(-73.4185 -150.3484)"/><polygon class="cls-82" points="794.907 673.57 794.884 681.722 594.495 566.027 594.519 557.876 794.907 673.57"/></g><g class="cls-2"><polygon class="cls-82" points="1249.919 783.034 1249.896 791.185 1193.998 758.913 1194.021 750.761 1249.919 783.034"/><polygon class="cls-83" points="1194.021 750.761 1193.998 758.913 1138.292 791.286 1138.315 783.134 1194.021 750.761"/><polygon class="cls-82" points="1316.772 821.469 1316.749 829.621 1260.851 797.349 1260.874 789.197 1316.772 821.469"/><polygon class="cls-83" points="1260.874 789.197 1260.851 797.349 1205.145 829.722 1205.168 821.57 1260.874 789.197"/><polygon class="cls-82" points="1183.347 821.721 1183.324 829.873 1127.426 797.6 1127.45 789.448 1183.347 821.721"/><polygon class="cls-83" points="1127.45 789.448 1127.426 797.6 1071.721 829.972 1071.744 821.821 1127.45 789.448"/><polygon class="cls-82" points="1383.715 860.119 1383.692 868.271 1327.641 835.91 1327.664 827.758 1383.715 860.119"/><polygon class="cls-83" points="1327.664 827.758 1327.641 835.91 1271.935 868.283 1271.958 860.131 1327.664 827.758"/><polygon class="cls-82" points="1250.206 860.153 1250.183 868.305 1194.286 836.032 1194.309 827.881 1250.206 860.153"/><polygon class="cls-83" points="1194.309 827.881 1194.286 836.032 1138.58 868.405 1138.604 860.253 1194.309 827.881"/><polygon class="cls-85" points="1128.029 866.398 1128.006 874.55 1050.504 829.973 1050.527 821.821 1128.029 866.398"/><polygon class="cls-82" points="1450.403 898.621 1450.38 906.773 1394.354 874.427 1394.378 866.275 1450.403 898.621"/><polygon class="cls-83" points="1394.378 866.275 1394.354 874.427 1338.648 906.8 1338.672 898.648 1394.378 866.275"/><polygon class="cls-82" points="1316.864 898.969 1316.841 907.12 1260.79 874.759 1260.813 866.608 1316.864 898.969"/><polygon class="cls-83" points="1260.813 866.608 1260.79 874.759 1205.078 907.135 1205.101 898.984 1260.813 866.608"/><polygon class="cls-82" points="1183.897 898.984 1183.874 907.135 1128.006 874.55 1128.029 866.398 1183.897 898.984"/><polygon class="cls-82" points="1517.116 937.138 1517.093 945.29 1461.049 912.933 1461.072 904.781 1517.116 937.138"/><polygon class="cls-83" points="1461.072 904.781 1461.049 912.933 1405.343 945.306 1405.366 937.154 1461.072 904.781"/><polygon class="cls-82" points="1383.837 937.305 1383.814 945.457 1327.789 913.11 1327.812 904.959 1383.837 937.305"/><polygon class="cls-83" points="1327.812 904.959 1327.789 913.11 1272.084 945.483 1272.107 937.331 1327.812 904.959"/><polygon class="cls-85" points="1261.533 943.476 1261.51 951.628 1183.874 907.135 1183.897 898.984 1261.533 943.476"/><polygon class="cls-82" points="1584.123 975.825 1584.1 983.976 1528.03 951.605 1528.053 943.453 1584.123 975.825"/><polygon class="cls-83" points="1528.053 943.453 1528.03 951.605 1472.324 983.977 1472.347 975.826 1528.053 943.453"/><polygon class="cls-82" points="1450.55 975.822 1450.527 983.973 1394.483 951.616 1394.506 943.465 1450.55 975.822"/><polygon class="cls-83" points="1394.506 943.465 1394.483 951.616 1338.778 983.989 1338.801 975.837 1394.506 943.465"/><polygon class="cls-82" points="1517.558 1014.508 1517.535 1022.66 1461.465 990.288 1461.488 982.137 1517.558 1014.508"/><polygon class="cls-83" points="1461.488 982.137 1461.465 990.288 1405.759 1022.661 1405.782 1014.509 1461.488 982.137"/><polygon class="cls-83" points="1605.34 975.825 1605.317 983.976 1461.898 1067.322 1461.921 1059.171 1605.34 975.825"/><path class="cls-84" d="M1333.9054,927.2409l344.8534,198.9323-143.4189,83.346-200.3887-115.6945-77.6359-44.4924-55.8672-32.5857-77.5026-44.5772,143.4189-83.346Zm267.93,231.3051,55.706-32.3728-56.07-32.3719-55.706,32.3728,56.07,32.3719m-66.5649,38.6833,55.7054-32.3725-56.07-32.3719-55.7054,32.3725,56.07,32.3719m-200.7-115.5362,55.7117-32.3761-56.051-32.361-55.7117,32.3761,56.051,32.361m66.8566-38.8528,55.706-32.3728-56.051-32.361-55.706,32.3728,56.051,32.361m133.4009,77.0191,55.706-32.3728L1534.49,1055.13l-55.706,32.3728,56.0442,32.3571m-66.5649,38.6833,55.7054-32.3725-56.0442-32.3571-55.7054,32.3725,56.0442,32.3571m-.1481-77.2,55.706-32.3728-56.0253-32.3462-55.706,32.3728,56.0253,32.3462m-66.5649,38.6833,55.7054-32.3725-56.0253-32.3462-55.7054,32.3725,56.0253,32.3462M1267.6317,965.755l55.706-32.3728L1267.44,901.11l-55.706,32.3728,55.8979,32.2727m-66.5712,38.6869,55.7054-32.3725-55.8979-32.2727-55.7054,32.3725,55.8979,32.2727m133.4238-.2513,55.706-32.3728-55.8973-32.2724-55.706,32.3728,55.8974,32.2724m-66.5649,38.6833,55.7054-32.3725-55.8974-32.2724-55.7054,32.3725,55.8974,32.2724" transform="translate(-73.4185 -150.3484)"/><polygon class="cls-82" points="1461.921 1059.171 1461.898 1067.322 1261.51 951.628 1261.533 943.476 1461.921 1059.171"/></g><g class="cls-2"><polygon class="cls-82" points="851.854 1014.401 851.831 1022.553 795.754 990.177 795.778 982.025 851.854 1014.401"/><polygon class="cls-83" points="795.778 982.025 795.754 990.177 740.049 1022.55 740.072 1014.398 795.778 982.025"/><polygon class="cls-82" points="918.855 1053.084 918.831 1061.236 862.761 1028.863 862.785 1020.712 918.855 1053.084"/><polygon class="cls-83" points="862.785 1020.712 862.761 1028.863 807.056 1061.236 807.079 1053.084 862.785 1020.712"/><polygon class="cls-82" points="863.218 1097.746 863.195 1105.898 718.838 1022.553 718.861 1014.402 863.218 1097.746"/><polygon class="cls-83" points="940.072 1053.084 940.049 1061.235 863.195 1105.898 863.218 1097.746 940.072 1053.084"/><path class="cls-84" d="M869.1334,1120.0876l144.3571,83.3446-76.8538,44.6626L792.28,1164.75Zm.4336,77.0345,55.7057-32.3726-56.0765-32.3758L813.49,1164.7464l56.0765,32.3758m67.0005,38.6828,55.7057-32.3726-56.07-32.3721-55.7057,32.3726,56.07,32.3721" transform="translate(-73.4185 -150.3484)"/></g></svg>