<svg xmlns="http://www.w3.org/2000/svg" xmlns:xlink="http://www.w3.org/1999/xlink" viewBox="0 0 2254.8157 1343.8235"><defs><style>.cls-1{fill:none;}.cls-2{isolation:isolate;}.cls-3{clip-path:url(#clip-path);}.cls-4{clip-path:url(#clip-path-2);}.cls-5{clip-path:url(#clip-path-3);}.cls-6{fill:#6e93b8;}.cls-7{clip-path:url(#clip-path-4);}.cls-8{clip-path:url(#clip-path-5);}.cls-9{clip-path:url(#clip-path-6);}.cls-10{fill:#506a85;}.cls-11{clip-path:url(#clip-path-7);}.cls-12{clip-path:url(#clip-path-8);}.cls-13{fill:#769dc5;}.cls-14{fill:#526d89;}.cls-15{clip-path:url(#clip-path-9);}.cls-16{fill:#6b8fb3;}.cls-17{fill:#688bad;}.cls-18{fill:#6587a8;}.cls-19{fill:#6283a3;}.cls-20{clip-path:url(#clip-path-10);}.cls-21{clip-path:url(#clip-path-11);}.cls-22{fill:#5f7e9e;}.cls-23{fill:#5c7a99;}.cls-24{fill:#597694;}.cls-25{fill:#56728f;}.cls-26{fill:#536e8a;}.cls-27{fill:#84b0dc;}.cls-28{clip-path:url(#clip-path-12);}.cls-29{clip-path:url(#clip-path-13);}.cls-30{fill:#505050;}.cls-31{fill:#535353;}.cls-32{clip-path:url(#clip-path-14);}.cls-33{fill:#5f5f5f;}.cls-34{fill:#626262;}.cls-35{fill:#656565;}.cls-36{fill:#686868;}.cls-37{fill:#6b6b6b;}.cls-38{fill:#6e6e6e;}.cls-39{clip-path:url(#clip-path-15);}.cls-40{fill:#525252;}.cls-41{clip-path:url(#clip-path-16);}.cls-42{fill:#767676;}.cls-43{clip-path:url(#clip-path-17);}.cls-44{clip-path:url(#clip-path-18);}.cls-45{fill:#565656;}.cls-46{clip-path:url(#clip-path-19);}.cls-47{clip-path:url(#clip-path-20);}.cls-48{clip-path:url(#clip-path-21);}.cls-49{clip-path:url(#clip-path-22);}.cls-50{clip-path:url(#clip-path-23);}.cls-51{clip-path:url(#clip-path-24);}.cls-52{clip-path:url(#clip-path-25);}.cls-53{clip-path:url(#clip-path-26);}.cls-54{clip-path:url(#clip-path-27);}.cls-55{clip-path:url(#clip-path-28);}.cls-56{clip-path:url(#clip-path-29);}.cls-57{clip-path:url(#clip-path-30);}.cls-58{clip-path:url(#clip-path-31);}.cls-59{clip-path:url(#clip-path-32);}.cls-60{fill:#595959;}.cls-61{fill:#5c5c5c;}.cls-62{clip-path:url(#clip-path-33);}.cls-63{clip-path:url(#clip-path-34);}.cls-64{clip-path:url(#clip-path-35);}.cls-65{clip-path:url(#clip-path-36);}.cls-66{clip-path:url(#clip-path-37);}.cls-67{clip-path:url(#clip-path-38);}.cls-68{clip-path:url(#clip-path-39);}.cls-69{clip-path:url(#clip-path-40);}.cls-70{clip-path:url(#clip-path-41);}.cls-71{clip-path:url(#clip-path-42);}.cls-72{clip-path:url(#clip-path-43);}.cls-73{clip-path:url(#clip-path-44);}.cls-74{clip-path:url(#clip-path-45);}.cls-75{clip-path:url(#clip-path-46);}.cls-76{clip-path:url(#clip-path-47);}.cls-77{clip-path:url(#clip-path-48);}.cls-78{clip-path:url(#clip-path-49);}.cls-79{clip-path:url(#clip-path-50);}.cls-80{clip-path:url(#clip-path-51);}.cls-81{fill:#848484;}.cls-82{clip-path:url(#clip-path-52);}.cls-83{fill:#896d1b;}.cls-84{fill:#c59d27;}.cls-85{fill:#dcb02c;}</style><clipPath id="clip-path" transform="translate(-66.1486 -151.1114)"><path class="cls-1" d="M1197.7222,156.7252l-.0924,32.6065a17.1691,17.1691,0,0,0-15.5562,0l.0924-32.6065a17.1691,17.1691,0,0,1,15.5562,0Z"/></clipPath><clipPath id="clip-path-2" transform="translate(-66.1486 -151.1114)"><path class="cls-1" d="M2318.9655,806.7092l-.0924,32.6065c-.0092-1.6383-1.09-3.2634-3.23-4.4988l.0924-32.6065C2317.8751,803.4457,2318.9563,805.0708,2318.9655,806.7092Z"/></clipPath><clipPath id="clip-path-3" transform="translate(-66.1486 -151.1114)"><path class="cls-1" d="M2315.8043,843.763q-.0507.03-.1023.06l.0924-32.6065q.0516-.03.1023-.06Q2315.8508,827.46,2315.8043,843.763Z"/></clipPath><clipPath id="clip-path-4" transform="translate(-66.1486 -151.1114)"><path class="cls-1" d="M2320.9643,806.7482l-.0924,32.6065c-.0054,1.9165-1.2577,3.8317-3.7593,5.2921l.0924-32.6065C2319.7066,810.58,2320.9588,808.6647,2320.9643,806.7482Z"/></clipPath><clipPath id="clip-path-5" transform="translate(-66.1486 -151.1114)"><path class="cls-1" d="M71.4192,802.2207l-.0924,32.6065c-2.1258,1.2354-3.1887,2.86-3.1794,4.4988L68.24,806.72C68.2306,805.0812,69.2935,803.4561,71.4192,802.2207Z"/></clipPath><clipPath id="clip-path-6" transform="translate(-66.1486 -151.1114)"><path class="cls-1" d="M68.1346,839.3291l.0015-.5259.0909-32.0806q0,.04.0013.0792-.046,16.3038-.0924,32.6065Q68.1348,839.3687,68.1346,839.3291Z"/></clipPath><clipPath id="clip-path-7" transform="translate(-66.1486 -151.1114)"><path class="cls-1" d="M68.1358,839.4083c-.0042-.3506.002-.7012.003-1.0518q.0445-15.7779.0894-31.5547c.043,1.61,1.1209,3.2068,3.2315,4.4253l-.0909,32.0806-.0015.5259C69.2567,842.6151,68.1789,841.0182,68.1358,839.4083Z"/></clipPath><clipPath id="clip-path-8" transform="translate(-66.1486 -151.1114)"><path class="cls-1" d="M66.1486,839.29l.0925-32.6065c-.0055,1.9414,1.2685,3.8875,3.8193,5.3669l-.0924,32.6065C67.4171,843.1778,66.1431,841.2317,66.1486,839.29Z"/></clipPath><clipPath id="clip-path-9" transform="translate(-66.1486 -151.1114)"><path class="cls-1" d="M1197.3151,1491.1824q.046-16.3038.0924-32.6065a15.7257,15.7257,0,0,0,7.63-1.8574l-.0925,32.6065A15.7253,15.7253,0,0,1,1197.3151,1491.1824Z"/></clipPath><clipPath id="clip-path-10" transform="translate(-66.1486 -151.1114)"><path class="cls-1" d="M1197.1784,1491.1829q.046-16.3038.0924-32.6065.0684,0,.1367,0-.046,16.3038-.0924,32.6065Q1197.2467,1491.1829,1197.1784,1491.1829Z"/></clipPath><clipPath id="clip-path-11" transform="translate(-66.1486 -151.1114)"><path class="cls-1" d="M1197.1784,1491.1829a15.9151,15.9151,0,0,1-7.7871-1.8578l.0924-32.6065q.0519.03.1043.0594-.0453,16.0409-.091,32.0806.0453-16.0408.091-32.0806h0a16.0094,16.0094,0,0,0,7.6828,1.7984Q1197.2248,1474.88,1197.1784,1491.1829Z"/></clipPath><clipPath id="clip-path-12" transform="translate(-66.1486 -151.1114)"><path class="cls-1" d="M1206.4581,1457.5358l-.0924,32.6065c-5.0473,2.92-13.3044,2.92-18.3846,0l.0924-32.6065C1193.1537,1460.4558,1201.4108,1460.4557,1206.4581,1457.5358Z"/></clipPath><clipPath id="clip-path-13" transform="translate(-66.1486 -151.1114)"><path class="cls-1" d="M1206.2427,157.5548l-.1155,40.7581a74.9563,74.9563,0,0,0-11.4147-5.2676l.1155-40.7581A74.9559,74.9559,0,0,1,1206.2427,157.5548Z"/></clipPath><clipPath id="clip-path-14" transform="translate(-66.1486 -151.1114)"><path class="cls-1" d="M1194.8279,152.2872l-.1156,40.7581c-7.4981-.258-9.3279.28-11.1952.929a64.2853,64.2853,0,0,0-9.91,4.3387l.1155-40.7581a64.2853,64.2853,0,0,1,9.91-4.3387C1185.5,152.5674,1187.33,152.0293,1194.8279,152.2872Z"/></clipPath><clipPath id="clip-path-15" transform="translate(-66.1486 -151.1114)"><path class="cls-1" d="M1188.0707,224.8445q.0575-20.38.1155-40.7581c1.16-.2349,2.4045-.4678,3.7431-.6986l-.1155,40.7581C1190.4752,224.3767,1189.2306,224.61,1188.0707,224.8445Z"/></clipPath><clipPath id="clip-path-16" transform="translate(-66.1486 -151.1114)"><path class="cls-1" d="M1207.8417,189.5032l-.1155,40.7581a66.2469,66.2469,0,0,0-10.3541-4.5156,49.1432,49.1432,0,0,0-5.5583-1.6l.1155-40.7581a49.1412,49.1412,0,0,1,5.5583,1.6A66.247,66.247,0,0,1,1207.8417,189.5032Z"/></clipPath><clipPath id="clip-path-17" transform="translate(-66.1486 -151.1114)"><path class="cls-1" d="M1188.0707,224.8445c-8.6247,1.7463-12.5715,3.5974-15.7025,5.4169l.1155-40.7581c3.1311-1.82,7.0778-3.6707,15.7025-5.4169Q1188.1287,204.4662,1188.0707,224.8445Z"/></clipPath><clipPath id="clip-path-18" transform="translate(-66.1486 -151.1114)"><path class="cls-1" d="M1206.4334,190.3216l-.1155,40.7581a67.5883,67.5883,0,0,0-13.3691-5.3966l.1155-40.7581A67.588,67.588,0,0,1,1206.4334,190.3216Z"/></clipPath><clipPath id="clip-path-19" transform="translate(-66.1486 -151.1114)"><path class="cls-1" d="M1193.0643,184.925l-.1156,40.7581c-14.1,2.7057-16.88,4.07-19.1632,5.3967l.1155-40.7581C1176.1847,188.9947,1178.9644,187.6308,1193.0643,184.925Z"/></clipPath><clipPath id="clip-path-20" transform="translate(-66.1486 -151.1114)"><path class="cls-1" d="M2318.0847,799.2126l-.1156,40.7581c-6.1711-3.0559-8.5412-4.6667-10.84-5.9937l.1155-40.7581C2309.5435,794.5459,2311.9136,796.1567,2318.0847,799.2126Z"/></clipPath><clipPath id="clip-path-21" transform="translate(-66.1486 -151.1114)"><path class="cls-1" d="M2261.3739,842.2694a24.29,24.29,0,0,0-9.405-9.1142l.1155-40.7581a24.29,24.29,0,0,1,9.405,9.1142Q2261.4319,821.8911,2261.3739,842.2694Z"/></clipPath><clipPath id="clip-path-22" transform="translate(-66.1486 -151.1114)"><path class="cls-1" d="M2261.3739,842.2694a1.1633,1.1633,0,0,1,.0008-.2829q.0031-1.0836.0061-2.1671.0034-1.21.0069-2.4207.0507-17.9443.1017-35.8874.267.4392.5321.9066-.0575,20.38-.1156,40.7581Q2261.6409,842.7084,2261.3739,842.2694Z"/></clipPath><clipPath id="clip-path-23" transform="translate(-66.1486 -151.1114)"><path class="cls-1" d="M2262.59,844.4386q-.34-.6568-.6841-1.2626.0575-20.38.1155-40.7581.3437.6062.6841,1.2626C2262.6709,815.908,2262.6247,832.2112,2262.59,844.4386Z"/></clipPath><clipPath id="clip-path-24" transform="translate(-66.1486 -151.1114)"><path class="cls-1" d="M2260.0619,804.3367l-.1156,40.7581c-4.7235-8.18-7.0873-9.7942-9.3857-11.1212l.1155-40.7581C2252.9747,794.5425,2255.3384,796.157,2260.0619,804.3367Z"/></clipPath><clipPath id="clip-path-25" transform="translate(-66.1486 -151.1114)"><path class="cls-1" d="M79.8765,793.2291l-.1155,40.7581a52.9116,52.9116,0,0,0-9.0633,6.5984l.1156-40.7581A52.911,52.911,0,0,1,79.8765,793.2291Z"/></clipPath><clipPath id="clip-path-26" transform="translate(-66.1486 -151.1114)"><path class="cls-1" d="M135.0278,792.4068l-.1155,40.7581a43.6118,43.6118,0,0,0-7.7621,5.9828,19.3563,19.3563,0,0,0-2.75,3.2181l.1156-40.7581a19.3554,19.3554,0,0,1,2.75-3.2181A43.6118,43.6118,0,0,1,135.0278,792.4068Z"/></clipPath><clipPath id="clip-path-27" transform="translate(-66.1486 -151.1114)"><path class="cls-1" d="M136.4453,793.2252l-.1155,40.7581a39.7059,39.7059,0,0,0-9.28,7.7226l.1155-40.7581A39.7057,39.7057,0,0,1,136.4453,793.2252Z"/></clipPath><clipPath id="clip-path-28" transform="translate(-66.1486 -151.1114)"><path class="cls-1" d="M2309.6071,851.1326q.0575-20.38.1155-40.7581c2.154-1.9064,4.1859-5.0666,4.1984-10.749l-.1156,40.7581C2313.7929,846.0661,2311.7611,849.2262,2309.6071,851.1326Z"/></clipPath><clipPath id="clip-path-29" transform="translate(-66.1486 -151.1114)"><path class="cls-1" d="M2309.6071,851.1326a14.4558,14.4558,0,0,1-2.3716,1.6809l.1155-40.7581a14.4558,14.4558,0,0,0,2.3716-1.6809Q2309.6651,830.7543,2309.6071,851.1326Z"/></clipPath><clipPath id="clip-path-30" transform="translate(-66.1486 -151.1114)"><path class="cls-1" d="M125.4277,843.9619l.1156-40.7581a27.0962,27.0962,0,0,0,.1684,2.8716l-.1155,40.7581A27.0977,27.0977,0,0,1,125.4277,843.9619Z"/></clipPath><clipPath id="clip-path-31" transform="translate(-66.1486 -151.1114)"><path class="cls-1" d="M72.3443,847.07a18.1768,18.1768,0,0,1-2.62-3.019l.1156-40.7581a18.1769,18.1769,0,0,0,2.62,3.019Q72.4023,826.6913,72.3443,847.07Z"/></clipPath><clipPath id="clip-path-32" transform="translate(-66.1486 -151.1114)"><path class="cls-1" d="M2317.803,805.11l-.1155,40.7581c-.0014.4909-.6093,1.1346-1.2788,1.7845a44,44,0,0,1-7.7494,5.9828l.1155-40.7581a44,44,0,0,0,7.7494-5.9828C2317.1937,806.2448,2317.8016,805.6011,2317.803,805.11Z"/></clipPath><clipPath id="clip-path-33" transform="translate(-66.1486 -151.1114)"><path class="cls-1" d="M2261.6843,802.0842l-.1156,40.7581c-.0086,3.0367-.81,3.9168-1.7225,4.8107a43.6085,43.6085,0,0,1-7.7621,5.9828l.1155-40.7581a43.6085,43.6085,0,0,0,7.7621-5.9828C2260.8746,806.001,2261.6757,805.1209,2261.6843,802.0842Z"/></clipPath><clipPath id="clip-path-34" transform="translate(-66.1486 -151.1114)"><path class="cls-1" d="M79.867,852.8238a42.8273,42.8273,0,0,1-7.5228-5.7541q.0575-20.38.1156-40.7581a42.8275,42.8275,0,0,0,7.5228,5.7541C79.9479,824.2931,79.9017,840.5964,79.867,852.8238Z"/></clipPath><clipPath id="clip-path-35" transform="translate(-66.1486 -151.1114)"><path class="cls-1" d="M135.1432,812.8874l-.1155,40.7581a55.1121,55.1121,0,0,1-9.4315-6.8121l.1156-40.7581A55.1124,55.1124,0,0,0,135.1432,812.8874Z"/></clipPath><clipPath id="clip-path-36" transform="translate(-66.1486 -151.1114)"><path class="cls-1" d="M78.568,812.8877l-.1155,40.7581a41.9106,41.9106,0,0,1-9.7566-8.0433l.1156-40.7581A41.9107,41.9107,0,0,0,78.568,812.8877Z"/></clipPath><clipPath id="clip-path-37" transform="translate(-66.1486 -151.1114)"><path class="cls-1" d="M544.0635,1051.6158l-.1155,40.7581c-.0156-1.633-1.0875-3.266-3.2327-4.5045l.1155-40.7581C542.976,1048.35,544.0479,1049.9828,544.0635,1051.6158Z"/></clipPath><clipPath id="clip-path-38" transform="translate(-66.1486 -151.1114)"><path class="cls-1" d="M544.0635,1051.6158l-.1155,40.7581c.0092,1.6367-1.0507,3.266-3.182,4.5046l.1155-40.7581C543.0127,1054.8818,544.0727,1053.2525,544.0635,1051.6158Z"/></clipPath><clipPath id="clip-path-39" transform="translate(-66.1486 -151.1114)"><path class="cls-1" d="M546.0634,1051.6531l-.1156,40.7581c-.0054,1.9163-1.2594,3.83-3.7645,5.2855l.1155-40.7581C544.804,1055.4829,546.058,1053.5695,546.0634,1051.6531Z"/></clipPath><clipPath id="clip-path-40" transform="translate(-66.1486 -151.1114)"><path class="cls-1" d="M529.6033,1062.6745l-.1155,40.7581a17.2049,17.2049,0,0,1-15.5534,0l.1155-40.7581a17.2049,17.2049,0,0,0,15.5534,0Z"/></clipPath><clipPath id="clip-path-41" transform="translate(-66.1486 -151.1114)"><path class="cls-1" d="M531.0207,1063.4928l-.1155,40.7581c-5.0428,2.9306-13.3032,2.9306-18.3853.0038l.1155-40.7581C517.7175,1066.4234,525.9778,1066.4234,531.0207,1063.4928Z"/></clipPath><clipPath id="clip-path-42" transform="translate(-66.1486 -151.1114)"><path class="cls-1" d="M773.7048,1181.5611l-.1155,40.7581a17.2032,17.2032,0,0,0-15.56-.0036l.1155-40.7581a17.2032,17.2032,0,0,1,15.56.0036Z"/></clipPath><clipPath id="clip-path-43" transform="translate(-66.1486 -151.1114)"><path class="cls-1" d="M746.8668,1188.1117l-.1155,40.7581c-2.1313,1.2386-3.1849,2.8716-3.1821,4.5046l.1155-40.7581C743.6819,1190.9833,744.7355,1189.35,746.8668,1188.1117Z"/></clipPath><clipPath id="clip-path-44" transform="translate(-66.1486 -151.1114)"><path class="cls-1" d="M746.9239,1197.1245l-.1155,40.7581c-2.1516-1.2423-3.23-2.8715-3.2392-4.5082l.1155-40.7581C743.694,1194.2529,744.7723,1195.8822,746.9239,1197.1245Z"/></clipPath><clipPath id="clip-path-45" transform="translate(-66.1486 -151.1114)"><path class="cls-1" d="M741.5693,1233.3379l.1155-40.7581c-.0055,1.9421,1.27,3.8883,3.8246,5.3667l-.1155,40.7581C742.84,1237.2262,741.5638,1235.28,741.5693,1233.3379Z"/></clipPath><clipPath id="clip-path-46" transform="translate(-66.1486 -151.1114)"><path class="cls-1" d="M1214.7438,1415.7811l-.1155,40.7581a75.9661,75.9661,0,0,1-11.7362,5.4446l.1155-40.7581A75.9667,75.9667,0,0,0,1214.7438,1415.7811Z"/></clipPath><clipPath id="clip-path-47" transform="translate(-66.1486 -151.1114)"><path class="cls-1" d="M1203.0076,1421.2257l-.1156,40.7581c-9.4041.31-11.3165-.258-13.2676-.9289a66.2464,66.2464,0,0,1-10.354-4.5156l.1155-40.7581a66.2464,66.2464,0,0,0,10.354,4.5156C1191.6911,1420.9677,1193.6035,1421.5354,1203.0076,1421.2257Z"/></clipPath><clipPath id="clip-path-48" transform="translate(-66.1486 -151.1114)"><path class="cls-1" d="M1195.3243,1493.7381c-7.4037-1.6245-11.3183-3.4411-14.368-5.2q.0575-20.38.1155-40.7581c3.05,1.7588,6.9643,3.5754,14.368,5.2Q1195.3824,1473.36,1195.3243,1493.7381Z"/></clipPath><clipPath id="clip-path-49" transform="translate(-66.1486 -151.1114)"><path class="cls-1" d="M1195.3243,1493.7381q.0094-3.3191.0188-6.6381.026-9.205.0522-18.4094c.0148-5.237.0445-10.4736.0445-15.7107q1.3882.3046,2.9451.6l-.1156,40.7581Q1196.71,1494.0429,1195.3243,1493.7381Z"/></clipPath><clipPath id="clip-path-50" transform="translate(-66.1486 -151.1114)"><path class="cls-1" d="M1213.5045,1447.73l-.1155,40.7581a63.04,63.04,0,0,1-9.91,4.3387,45.98,45.98,0,0,1-5.21,1.5114l.1155-40.7581a45.9827,45.9827,0,0,0,5.21-1.5114A63.04,63.04,0,0,0,1213.5045,1447.73Z"/></clipPath><clipPath id="clip-path-51" transform="translate(-66.1486 -151.1114)"><path class="cls-1" d="M1214.9283,1448.5516l-.1155,40.7581a68.5876,68.5876,0,0,1-13.8671,5.6252l.1155-40.7581A68.5882,68.5882,0,0,0,1214.9283,1448.5516Z"/></clipPath><clipPath id="clip-path-52" transform="translate(-66.1486 -151.1114)"><path class="cls-1" d="M1201.0612,1454.1768l-.1156,40.7581c-16.2568-2.853-19.1093-4.25-21.4908-5.625l.1155-40.7581C1181.9519,1449.9267,1184.8044,1451.3238,1201.0612,1454.1768Z"/></clipPath></defs><title>biobank-f2</title><g id="图层_3" data-name="图层 3"><g class="cls-2"><g class="cls-2"><g class="cls-3"><g class="cls-2"><path d="M1197.7222,156.7252l-.0924,32.6065a11.9448,11.9448,0,0,0-1.5963-.7645l.0924-32.6065a11.9448,11.9448,0,0,1,1.5963.7645" transform="translate(-66.1486 -151.1114)"/><path d="M1196.126,155.9607l-.0924,32.6065c-.4258-.1676-.8673-.3161-1.3211-.4453l.0924-32.6065c.4538.1293.8953.2777,1.3211.4453" transform="translate(-66.1486 -151.1114)"/><path d="M1194.8049,155.5154l-.0924,32.6065q-.5623-.16-1.1479-.2811l.0924-32.6065q.5846.1209,1.1479.2811" transform="translate(-66.1486 -151.1114)"/><path d="M1193.657,155.2343l-.0924,32.6065q-.5346-.1106-1.0838-.1883l.0924-32.6065q.5484.0777,1.0838.1883" transform="translate(-66.1486 -151.1114)"/><path d="M1192.5732,155.046l-.0924,32.6065q-.53-.0751-1.07-.12l.0924-32.6065q.5389.0444,1.07.12" transform="translate(-66.1486 -151.1114)"/><path d="M1191.5035,154.9265l-.0924,32.6065q-.5409-.0446-1.0874-.0582l.0924-32.6065q.5458.0137,1.0874.0582" transform="translate(-66.1486 -151.1114)"/><path d="M1190.4161,154.8683l-.0924,32.6065q-.241-.006-.4825-.006-.3279,0-.6551.0111l.0924-32.6065q.327-.0111.6551-.0111.2414,0,.4825.006" transform="translate(-66.1486 -151.1114)"/><path d="M1189.2786,154.8734l-.0924,32.6065q-.6151.0209-1.2233.0812l.0924-32.6065q.6073-.06,1.2233-.0812" transform="translate(-66.1486 -151.1114)"/><path d="M1188.0552,154.9547l-.0924,32.6065c-.4744.0471-.944.1122-1.4055.1954l.0924-32.6065c.4615-.0832.9311-.1483,1.4055-.1954" transform="translate(-66.1486 -151.1114)"/><path d="M1186.65,155.15l-.0924,32.6065a15.9092,15.9092,0,0,0-2.032.5023l.0924-32.6065a15.9091,15.9091,0,0,1,2.032-.5023" transform="translate(-66.1486 -151.1114)"/><path d="M1184.6177,155.6524l-.0924,32.6065a12.44,12.44,0,0,0-2.4517,1.0729l.0924-32.6065a12.44,12.44,0,0,1,2.4517-1.0729" transform="translate(-66.1486 -151.1114)"/></g></g></g><polygon points="2249.587 651.099 2249.494 683.705 1131.481 38.22 1131.574 5.614 2249.587 651.099"/><g class="cls-2"><g class="cls-4"><g class="cls-2"><path d="M2318.9655,806.7092l-.0924,32.6065c-.0092-1.6383-1.09-3.2634-3.23-4.4988l.0924-32.6065c2.14,1.2353,3.2209,2.86,3.23,4.4988" transform="translate(-66.1486 -151.1114)"/></g></g></g><polygon points="1116.017 5.614 1115.925 38.22 5.178 683.716 5.271 651.109 1116.017 5.614"/><g class="cls-2"><g class="cls-5"><g class="cls-2"><path class="cls-6" d="M2315.9441,811.1282l-.0924,32.6065q-.0739.0446-.15.0886l.0924-32.6065q.0757-.044.15-.0886" transform="translate(-66.1486 -151.1114)"/></g></g></g><g class="cls-2"><g class="cls-7"><g class="cls-2"><path d="M2320.9643,806.7482l-.0924,32.6065q0,.0575-.0018.115l.0924-32.6065q.0017-.0575.0018-.115" transform="translate(-66.1486 -151.1114)"/><path d="M2320.9624,806.8632,2320.87,839.47a4.4769,4.4769,0,0,1-.0858.7511l.0924-32.6065a4.4768,4.4768,0,0,0,.0858-.7511" transform="translate(-66.1486 -151.1114)"/><path d="M2320.8766,807.6143l-.0924,32.6065a4.7577,4.7577,0,0,1-.2114.7368l.0924-32.6065a4.7574,4.7574,0,0,0,.2114-.7368" transform="translate(-66.1486 -151.1114)"/><path d="M2320.6651,808.3511l-.0924,32.6065a5.2949,5.2949,0,0,1-.3484.7437l.0924-32.6065a5.2946,5.2946,0,0,0,.3484-.7437" transform="translate(-66.1486 -151.1114)"/><path d="M2320.3167,809.0948l-.0924,32.6065a6.1533,6.1533,0,0,1-.525.78l.0924-32.6065a6.1532,6.1532,0,0,0,.525-.78" transform="translate(-66.1486 -151.1114)"/><path d="M2319.7917,809.8744l-.0924,32.6065a7.5035,7.5035,0,0,1-.8085.8694l.0924-32.6065a7.5034,7.5034,0,0,0,.8085-.8694" transform="translate(-66.1486 -151.1114)"/><path d="M2318.9831,810.7438l-.0924,32.6065a10.0461,10.0461,0,0,1-1.6385,1.2137l.0924-32.6065a10.0461,10.0461,0,0,0,1.6385-1.2137" transform="translate(-66.1486 -151.1114)"/><path d="M2317.3446,811.9575l-.0924,32.6065q-.0692.0416-.14.0828l.0924-32.6065q.0705-.0412.14-.0828" transform="translate(-66.1486 -151.1114)"/></g></g></g><g class="cls-2"><g class="cls-8"><g class="cls-2"><path d="M71.4192,802.2207l-.0924,32.6065q-.0758.044-.15.0887l.0924-32.6065q.074-.0447.15-.0887" transform="translate(-66.1486 -151.1114)"/><path d="M71.27,802.3094l-.0924,32.6065a8.43,8.43,0,0,0-1.37,1.0175L69.9,803.327a8.43,8.43,0,0,1,1.37-1.0175" transform="translate(-66.1486 -151.1114)"/><path d="M69.9,803.327l-.0924,32.6065a6.2926,6.2926,0,0,0-.6768.7293l.0924-32.6065a6.2926,6.2926,0,0,1,.6768-.7293" transform="translate(-66.1486 -151.1114)"/><path d="M69.223,804.0563l-.0924,32.6065a5.1652,5.1652,0,0,0-.4383.6518l.0924-32.6065a5.1652,5.1652,0,0,1,.4383-.6518" transform="translate(-66.1486 -151.1114)"/><path d="M68.7847,804.708l-.0924,32.6065a4.4535,4.4535,0,0,0-.2925.6246l.0924-32.6065a4.4535,4.4535,0,0,1,.2925-.6246" transform="translate(-66.1486 -151.1114)"/><path d="M68.4922,805.3327,68.4,837.9392a4.013,4.013,0,0,0-.1782.6208l.0924-32.6065a4.013,4.013,0,0,1,.1782-.6208" transform="translate(-66.1486 -151.1114)"/><path d="M68.314,805.9535,68.2216,838.56a3.7913,3.7913,0,0,0-.0727.6356l.0924-32.6065a3.7913,3.7913,0,0,1,.0727-.6356" transform="translate(-66.1486 -151.1114)"/><path d="M68.2413,806.5892l-.0924,32.6065q-.0019.0652-.0015.13L68.24,806.72q0-.0652.0015-.13" transform="translate(-66.1486 -151.1114)"/></g></g></g><g class="cls-2"><g class="cls-9"><g class="cls-2"><path class="cls-10" d="M71.46,811.2271l-.0924,32.6065c-2.1452-1.2385-3.2235-2.8678-3.2328-4.5045l.0924-32.6065c.0093,1.6367,1.0876,3.266,3.2328,4.5045" transform="translate(-66.1486 -151.1114)"/></g></g></g><g class="cls-2"><g class="cls-11"><g class="cls-2"><path class="cls-10" d="M71.46,811.2271l-.0924,32.6065c-2.1452-1.2385-3.2235-2.8678-3.2328-4.5045l.0924-32.6065c.0093,1.6367,1.0876,3.266,3.2328,4.5045" transform="translate(-66.1486 -151.1114)"/></g></g></g><g class="cls-2"><g class="cls-12"><g class="cls-2"><path d="M70.06,812.0507l-.0924,32.6065c-2.5508-1.4793-3.8248-3.4255-3.8193-5.3669l.0924-32.6065c-.0055,1.9414,1.2685,3.8875,3.8193,5.3669" transform="translate(-66.1486 -151.1114)"/></g></g></g><polygon class="cls-13" points="2249.646 660.105 2249.553 692.712 1138.796 1338.214 1138.888 1305.607 2249.646 660.105"/><polygon class="cls-14" points="1123.335 1305.607 1123.243 1338.214 5.219 692.722 5.311 660.116 1123.335 1305.607"/><polygon points="2251.056 660.929 2250.964 693.535 1140.217 1339.031 1140.31 1306.424 2251.056 660.929"/><polygon points="1121.925 1306.424 1121.833 1339.031 3.819 693.546 3.912 660.939 1121.925 1306.424"/><g class="cls-2"><g class="cls-15"><g class="cls-2"><path class="cls-6" d="M1205.0371,1456.7185l-.0924,32.6065a12.37,12.37,0,0,1-2.4362,1.0657l.0924-32.6065a12.37,12.37,0,0,0,2.4362-1.0657" transform="translate(-66.1486 -151.1114)"/><path class="cls-16" d="M1202.6009,1457.7842l-.0924,32.6065a15.9331,15.9331,0,0,1-2.0369.5035l.0924-32.6065a15.9331,15.9331,0,0,0,2.0369-.5035" transform="translate(-66.1486 -151.1114)"/><path class="cls-17" d="M1200.5641,1458.2877l-.0924,32.6065c-.4631.0834-.9343.1488-1.41.196l.0924-32.6065c.476-.0473.9471-.1126,1.41-.196" transform="translate(-66.1486 -151.1114)"/><path class="cls-18" d="M1199.1538,1458.4837l-.0924,32.6065q-.6093.0605-1.227.0815l.0924-32.6065q.6167-.021,1.227-.0815" transform="translate(-66.1486 -151.1114)"/><path class="cls-19" d="M1197.9268,1458.5652l-.0924,32.6065q-.3276.0112-.656.0112-.2416,0-.483-.006l.0924-32.6065q.2413.006.483.006.3283,0,.656-.0112" transform="translate(-66.1486 -151.1114)"/></g></g></g><g class="cls-2"><g class="cls-20"><g class="cls-2"><path class="cls-19" d="M1197.9268,1458.5652l-.0924,32.6065q-.3276.0112-.656.0112-.2416,0-.483-.006l.0924-32.6065q.2413.006.483.006.3283,0,.656-.0112" transform="translate(-66.1486 -151.1114)"/></g></g></g><g class="cls-2"><g class="cls-21"><g class="cls-2"><path class="cls-19" d="M1197.9268,1458.5652l-.0924,32.6065q-.3276.0112-.656.0112-.2416,0-.483-.006l.0924-32.6065q.2413.006.483.006.3283,0,.656-.0112" transform="translate(-66.1486 -151.1114)"/><path class="cls-22" d="M1196.7878,1458.57l-.0924,32.6065q-.5471-.0137-1.09-.0584l.0924-32.6065q.5426.0447,1.09.0584" transform="translate(-66.1486 -151.1114)"/><path class="cls-23" d="M1195.6975,1458.5119l-.0924,32.6065q-.5408-.0446-1.0736-.12l.0924-32.6065q.5321.0754,1.0736.12" transform="translate(-66.1486 -151.1114)"/><path class="cls-24" d="M1194.6239,1458.392l-.0924,32.6065q-.55-.0779-1.0872-.1888l.0924-32.6065q.5362.1109,1.0872.1888" transform="translate(-66.1486 -151.1114)"/><path class="cls-25" d="M1193.5367,1458.2032l-.0924,32.6065q-.5855-.1211-1.15-.2815l.0924-32.6065q.5631.16,1.15.2815" transform="translate(-66.1486 -151.1114)"/><path class="cls-26" d="M1192.3871,1457.9217l-.0924,32.6065c-.4533-.1291-.8942-.2773-1.3191-.4446l.0924-32.6065c.4249.1673.8658.3155,1.3191.4446" transform="translate(-66.1486 -151.1114)"/><path class="cls-10" d="M1191.068,1457.4771l-.0924,32.6065a11.8565,11.8565,0,0,1-1.5843-.7585l.0924-32.6065a11.8564,11.8564,0,0,0,1.5843.7585" transform="translate(-66.1486 -151.1114)"/></g></g></g><path d="M2317.145,801.3912c5.0688,2.9265,5.0957,7.7093.06,10.6491L1206.4581,1457.5358c-5.0473,2.92-13.3044,2.92-18.3846,0L70.06,812.0507c-5.0689-2.94-5.0958-7.7225-.06-10.6491L1180.7472,155.9061c5.0472-2.9331,13.3044-2.9332,18.3846,0ZM1205.0393,1456.7167,2315.7861,811.2211c2.1371-1.242,3.1886-2.8737,3.1794-4.512s-1.09-3.2634-3.23-4.4988L1197.7222,156.7252a17.1691,17.1691,0,0,0-15.5562,0L71.4192,802.2207c-2.1258,1.2354-3.1887,2.86-3.1794,4.4988s1.0791,3.27,3.23,4.512l1118.0132,645.4852a17.2785,17.2785,0,0,0,15.5562,0" transform="translate(-66.1486 -151.1114)"/><path class="cls-27" d="M2315.7438,802.2077c2.1452,1.2386,3.2235,2.8679,3.2328,4.5045s-1.0507,3.266-3.182,4.5046L1205.0371,1456.7185a17.2048,17.2048,0,0,1-15.5534,0L71.46,811.2271c-2.1452-1.2385-3.2235-2.8678-3.2328-4.5045s1.0508-3.266,3.1821-4.5046L1182.1665,156.7164a17.2049,17.2049,0,0,1,15.5533,0Z" transform="translate(-66.1486 -151.1114)"/><g class="cls-2"><g class="cls-28"><g class="cls-2"><path d="M1206.4581,1457.5358l-.0924,32.6065a14.64,14.64,0,0,1-2.8147,1.234l.0924-32.6065a14.64,14.64,0,0,0,2.8147-1.234" transform="translate(-66.1486 -151.1114)"/><path d="M1203.6434,1458.77l-.0924,32.6065a18.8741,18.8741,0,0,1-2.4671.6138l.0924-32.6065a18.8739,18.8739,0,0,0,2.4671-.6138" transform="translate(-66.1486 -151.1114)"/><path d="M1201.1763,1459.3835l-.0924,32.6065c-.5477.0987-1.1047.1761-1.667.2321l.0924-32.6065c.5624-.056,1.1194-.1334,1.667-.2321" transform="translate(-66.1486 -151.1114)"/><path d="M1199.5093,1459.6156l-.0924,32.6065q-.7225.072-1.4544.0969l.0924-32.6065q.7306-.025,1.4543-.0969" transform="translate(-66.1486 -151.1114)"/><path d="M1198.055,1459.7125l-.0924,32.6065q-.6709.0229-1.3434.0062l.0924-32.6065q.6715.0167,1.3434-.0062" transform="translate(-66.1486 -151.1114)"/><path d="M1196.7116,1459.7187l-.0924,32.6065q-.6477-.0161-1.2915-.0691l.0924-32.6065q.643.053,1.2915.0691" transform="translate(-66.1486 -151.1114)"/><path d="M1195.42,1459.65l-.0924,32.6065q-.6412-.0528-1.2735-.1423l.0924-32.6065q.6314.0895,1.2735.1423" transform="translate(-66.1486 -151.1114)"/><path d="M1194.1466,1459.5073l-.0924,32.6065q-.6554-.0929-1.2954-.2253l.0924-32.6065q.6391.1324,1.2954.2253" transform="translate(-66.1486 -151.1114)"/><path d="M1192.8512,1459.282l-.0924,32.6065q-.6916-.1433-1.3583-.3328l.0924-32.6065q.6654.19,1.3583.3328" transform="translate(-66.1486 -151.1114)"/><path d="M1191.4929,1458.9492l-.0924,32.6065c-.5418-.1543-1.0688-.3317-1.5764-.532l.0924-32.6065c.5076.2,1.0346.3777,1.5764.532" transform="translate(-66.1486 -151.1114)"/><path d="M1189.9165,1458.4172l-.0924,32.6065a14.05,14.05,0,0,1-1.843-.8813l.0924-32.6065a14.05,14.05,0,0,0,1.843.8813" transform="translate(-66.1486 -151.1114)"/></g></g></g></g><g class="cls-2"><g class="cls-2"><g class="cls-29"><g class="cls-2"><path class="cls-30" d="M1206.2427,157.5548l-.1155,40.7581a76.5109,76.5109,0,0,0-9.5885-4.5856l.1155-40.7581a76.5108,76.5108,0,0,1,9.5885,4.5856" transform="translate(-66.1486 -151.1114)"/><path class="cls-31" d="M1196.6542,152.9693l-.1155,40.7581c-.6345-.25-1.247-.4786-1.8263-.682l.1155-40.7581c.5793.2034,1.1918.4324,1.8263.682" transform="translate(-66.1486 -151.1114)"/></g></g></g><g class="cls-2"><g class="cls-32"><g class="cls-2"><path class="cls-33" d="M1194.8279,152.2872l-.1155,40.7581q-.6154-.0212-1.1809-.0353l.1155-40.7581q.5659.0142,1.1809.0353" transform="translate(-66.1486 -151.1114)"/><path class="cls-34" d="M1193.6471,152.2519l-.1155,40.7581c-1.6841-.0422-3.0486-.0392-4.1768-.0009l.1155-40.7581c1.1281-.0383,2.4927-.0413,4.1768.0009" transform="translate(-66.1486 -151.1114)"/><path class="cls-35" d="M1189.47,152.251l-.1155,40.7581c-.7927.0269-1.4687.0712-2.0569.13l.1155-40.7581c.5881-.0583,1.2641-.1026,2.0569-.13" transform="translate(-66.1486 -151.1114)"/><path class="cls-36" d="M1187.4134,152.3805l-.1155,40.7581c-.5451.054-1.0148.12-1.4319.1952l.1155-40.7581c.4171-.0752.8868-.1412,1.4319-.1952" transform="translate(-66.1486 -151.1114)"/><path class="cls-37" d="M1185.9815,152.5758l-.1155,40.7581a13.1658,13.1658,0,0,0-1.7471.4379l.1155-40.7581a13.1659,13.1659,0,0,1,1.7471-.4379" transform="translate(-66.1486 -151.1114)"/><path class="cls-38" d="M1184.2344,153.0137l-.1155,40.7581c-.2047.0657-.403.1335-.6017.2025a64.2853,64.2853,0,0,0-9.91,4.3387l.1155-40.7581a64.2853,64.2853,0,0,1,9.91-4.3387c.1987-.069.397-.1368.6017-.2025" transform="translate(-66.1486 -151.1114)"/></g></g></g><g class="cls-2"><g class="cls-39"><g class="cls-2"><path class="cls-17" d="M1191.9293,183.3879l-.1155,40.7581q-.5452.094-1.07.1884l.1155-40.7581q.5247-.0945,1.07-.1884" transform="translate(-66.1486 -151.1114)"/><path class="cls-16" d="M1190.8595,183.5763l-.1155,40.7581a83.7077,83.7077,0,0,0-10.6707,2.5323l.1155-40.7581a83.7077,83.7077,0,0,1,10.6707-2.5323" transform="translate(-66.1486 -151.1114)"/></g></g></g><polygon class="cls-40" points="2241.096 642.107 2240.981 682.866 1139.979 47.202 1140.094 6.443 2241.096 642.107"/><g class="cls-2"><g class="cls-41"><g class="cls-2"><path class="cls-10" d="M1207.8417,189.5032l-.1155,40.7581a58.2974,58.2974,0,0,0-7.2858-3.381l.1155-40.7581a58.2975,58.2975,0,0,1,7.2858,3.381" transform="translate(-66.1486 -151.1114)"/><path class="cls-26" d="M1200.5558,186.1222,1200.44,226.88c-1.01-.3974-2.0433-.78-3.0683-1.1346-1.0573-.3636-2.1033-.6968-3.1094-.9833l.1155-40.7581c1.0061.2865,2.0521.62,3.1094.9833,1.025.3544,2.058.7372,3.0683,1.1346" transform="translate(-66.1486 -151.1114)"/><path class="cls-25" d="M1194.3782,184.0043l-.1155,40.7581c-.8505-.2422-1.6725-.451-2.4489-.6165l.1155-40.7581c.7764.1655,1.5984.3743,2.4489.6165" transform="translate(-66.1486 -151.1114)"/></g></g></g><polygon class="cls-42" points="1107.575 6.444 1107.459 47.202 13.612 682.876 13.728 642.118 1107.575 6.444"/><g class="cls-2"><g class="cls-43"><g class="cls-2"><path class="cls-16" d="M1190.8595,183.5763l-.1155,40.7581a83.7077,83.7077,0,0,0-10.6707,2.5323l.1155-40.7581a83.7077,83.7077,0,0,1,10.6707-2.5323" transform="translate(-66.1486 -151.1114)"/><path class="cls-6" d="M1180.1887,186.1086l-.1155,40.7581a36.7566,36.7566,0,0,0-7.705,3.3947l.1155-40.7581a36.7566,36.7566,0,0,1,7.705-3.3947" transform="translate(-66.1486 -151.1114)"/></g></g></g><g class="cls-2"><g class="cls-44"><g class="cls-2"><path class="cls-30" d="M1206.4334,190.3216l-.1155,40.7581a56.9355,56.9355,0,0,0-7.0085-3.24l.1155-40.7581a56.9356,56.9356,0,0,1,7.0085,3.24" transform="translate(-66.1486 -151.1114)"/><path class="cls-31" d="M1199.425,187.0815l-.1155,40.7581c-1.9789-.7785-4.0409-1.498-5.9-2.028l.1155-40.7581c1.8592.53,3.9212,1.2495,5.9,2.028" transform="translate(-66.1486 -151.1114)"/><path class="cls-45" d="M1193.5249,185.0535l-.1155,40.7581q-.2325-.0663-.4606-.1285l.1155-40.7581q.228.0622.4606.1285" transform="translate(-66.1486 -151.1114)"/></g></g></g><g class="cls-2"><g class="cls-46"><g class="cls-2"><path class="cls-37" d="M1193.0643,184.925l-.1155,40.7581a131.663,131.663,0,0,0-14.4823,3.3629l.1155-40.7581a131.6629,131.6629,0,0,1,14.4823-3.3629" transform="translate(-66.1486 -151.1114)"/><path class="cls-38" d="M1178.582,188.2879l-.1155,40.7581a21.1406,21.1406,0,0,0-4.6808,2.0338l.1155-40.7581a21.1406,21.1406,0,0,1,4.6808-2.0338" transform="translate(-66.1486 -151.1114)"/></g></g></g><polygon class="cls-14" points="2185.936 641.286 2185.82 682.044 1141.578 79.15 1141.693 38.392 2185.936 641.286"/><polygon class="cls-40" points="2184.528 642.104 2184.412 682.862 1140.169 79.968 1140.285 39.21 2184.528 642.104"/><polygon class="cls-13" points="1106.335 38.392 1106.22 79.15 68.764 682.054 68.879 641.295 1106.335 38.392"/><g class="cls-2"><g class="cls-47"><g class="cls-2"><path class="cls-30" d="M2318.0847,799.2126l-.1155,40.7581c-6.1711-3.0559-8.5412-4.6667-10.84-5.9937l.1155-40.7581c2.2985,1.327,4.6686,2.9379,10.84,5.9937" transform="translate(-66.1486 -151.1114)"/></g></g></g><polygon class="cls-42" points="1107.753 39.21 1107.637 79.968 70.181 682.872 70.297 642.114 1107.753 39.21"/><g class="cls-2"><g class="cls-48"><g class="cls-2"><path class="cls-10" d="M2262.7056,803.6805l-.1155,40.7581c-3.3906-6.543-7.0394-9.2155-10.6212-11.2835l.1155-40.7581c3.5818,2.0679,7.2306,4.74,10.6212,11.2835" transform="translate(-66.1486 -151.1114)"/></g></g></g><g class="cls-2"><g class="cls-49"><g class="cls-2"><path class="cls-10" d="M2262.7056,803.6805l-.1155,40.7581c-3.3906-6.543-7.0394-9.2155-10.6212-11.2835l.1155-40.7581c3.5818,2.0679,7.2306,4.74,10.6212,11.2835" transform="translate(-66.1486 -151.1114)"/></g></g></g><g class="cls-2"><g class="cls-50"><g class="cls-2"><path class="cls-10" d="M2262.7056,803.6805l-.1155,40.7581c-3.3906-6.543-7.0394-9.2155-10.6212-11.2835l.1155-40.7581c3.5818,2.0679,7.2306,4.74,10.6212,11.2835" transform="translate(-66.1486 -151.1114)"/></g></g></g><g class="cls-2"><g class="cls-51"><g class="cls-2"><path class="cls-30" d="M2260.0619,804.3367l-.1155,40.7581c-4.7235-8.18-7.0873-9.7942-9.3858-11.1212l.1155-40.7581c2.2985,1.327,4.6622,2.9416,9.3858,11.1212" transform="translate(-66.1486 -151.1114)"/></g></g></g><g class="cls-2"><g class="cls-52"><g class="cls-2"><path class="cls-38" d="M79.8765,793.2291l-.1155,40.7581q-.4.2324-.8018.4759l.1155-40.7581q.4015-.2432.8018-.4759" transform="translate(-66.1486 -151.1114)"/><path class="cls-37" d="M79.0748,793.705l-.1155,40.7581a53.3736,53.3736,0,0,0-7.9777,5.8554L71.097,799.56a53.3736,53.3736,0,0,1,7.9777-5.8554" transform="translate(-66.1486 -151.1114)"/><path class="cls-36" d="M71.097,799.56l-.1155,40.7581q-.1462.1354-.2838.2671l.1155-40.7581q.1375-.1317.2838-.2671" transform="translate(-66.1486 -151.1114)"/></g></g></g><g class="cls-2"><g class="cls-53"><g class="cls-2"><path class="cls-6" d="M135.0278,792.4068l-.1155,40.7581q-.1985.1153-.4022.2388l.1155-40.7581q.2036-.1233.4022-.2388" transform="translate(-66.1486 -151.1114)"/><path class="cls-16" d="M134.6256,792.6456l-.1155,40.7581a44.2681,44.2681,0,0,0-6.6789,5.0976l.1155-40.7581a44.2681,44.2681,0,0,1,6.6789-5.0976" transform="translate(-66.1486 -151.1114)"/><path class="cls-17" d="M127.9468,797.7432l-.1155,40.7581q-.3491.3232-.681.6464a24.1344,24.1344,0,0,0-2.072,2.2684l.1155-40.7581a24.1344,24.1344,0,0,1,2.072-2.2684q.3314-.3227.681-.6464" transform="translate(-66.1486 -151.1114)"/><path class="cls-18" d="M125.1937,800.658l-.1155,40.7581c-.2563.3263-.4841.6439-.6781.95l.1155-40.7581c.194-.3058.4218-.6234.6781-.95" transform="translate(-66.1486 -151.1114)"/></g></g></g><g class="cls-2"><g class="cls-54"><g class="cls-2"><path class="cls-38" d="M136.4453,793.2252l-.1155,40.7581q-.1911.1106-.3892.2306l.1155-40.7581q.198-.12.3892-.2306" transform="translate(-66.1486 -151.1114)"/><path class="cls-37" d="M136.056,793.4558l-.1155,40.7581a43.1861,43.1861,0,0,0-6.4258,4.9144L129.63,798.37a43.1861,43.1861,0,0,1,6.4258-4.9144" transform="translate(-66.1486 -151.1114)"/><path class="cls-36" d="M129.63,798.37l-.1155,40.7581a25.4687,25.4687,0,0,0-2.4646,2.5776l.1155-40.7581A25.4687,25.4687,0,0,1,129.63,798.37" transform="translate(-66.1486 -151.1114)"/></g></g></g><g class="cls-2"><g class="cls-55"><g class="cls-2"><path class="cls-24" d="M2313.921,799.6407l-.1155,40.7581q-.0009.31-.01.61l.1155-40.7581q.0088-.3.01-.61" transform="translate(-66.1486 -151.1114)"/><path class="cls-23" d="M2313.9113,800.2512l-.1155,40.7581a18.9764,18.9764,0,0,1-.347,3.1748l.1155-40.7581a18.9764,18.9764,0,0,0,.347-3.1748" transform="translate(-66.1486 -151.1114)"/><path class="cls-22" d="M2313.5643,803.4259l-.1155,40.7581a14.5206,14.5206,0,0,1-.6355,2.25l.1155-40.7581a14.5205,14.5205,0,0,0,.6355-2.25" transform="translate(-66.1486 -151.1114)"/><path class="cls-19" d="M2312.9288,805.6757l-.1155,40.7581a12.3341,12.3341,0,0,1-.8058,1.7359l.1155-40.7581a12.334,12.334,0,0,0,.8058-1.7359" transform="translate(-66.1486 -151.1114)"/><path class="cls-18" d="M2312.123,807.4116l-.1155,40.7581a11.4156,11.4156,0,0,1-.9673,1.4467l.1155-40.7581a11.4157,11.4157,0,0,0,.9673-1.4467" transform="translate(-66.1486 -151.1114)"/><path class="cls-17" d="M2311.1557,808.8583l-.1155,40.7581a11.498,11.498,0,0,1-1.24,1.3415l.1155-40.7581a11.4981,11.4981,0,0,0,1.24-1.3415" transform="translate(-66.1486 -151.1114)"/><path class="cls-16" d="M2309.9158,810.2l-.1155,40.7581a13.7826,13.7826,0,0,1-2.2524,1.671l.1155-40.7581a13.7827,13.7827,0,0,0,2.2524-1.671" transform="translate(-66.1486 -151.1114)"/></g></g></g><g class="cls-2"><g class="cls-56"><g class="cls-2"><path class="cls-16" d="M2309.9158,810.2l-.1155,40.7581a13.7826,13.7826,0,0,1-2.2524,1.671l.1155-40.7581a13.7827,13.7827,0,0,0,2.2524-1.671" transform="translate(-66.1486 -151.1114)"/><path class="cls-6" d="M2307.6635,811.8708l-.1155,40.7581q-.1583.0956-.3124.1846l.1155-40.7581q.154-.0891.3124-.1846" transform="translate(-66.1486 -151.1114)"/></g></g></g><g class="cls-2"><g class="cls-57"><g class="cls-2"><path class="cls-30" d="M125.7117,806.0754l-.1155,40.7581a27.1006,27.1006,0,0,1-.1684-2.8716l.1155-40.7581a27.1006,27.1006,0,0,0,.1684,2.8716" transform="translate(-66.1486 -151.1114)"/></g></g></g><g class="cls-2"><g class="cls-58"><g class="cls-2"><path class="cls-10" d="M79.9826,812.0657l-.1155,40.7581a42.8273,42.8273,0,0,1-7.5228-5.7541,18.1768,18.1768,0,0,1-2.62-3.019l.1155-40.7581a18.1768,18.1768,0,0,0,2.62,3.019,42.8273,42.8273,0,0,0,7.5228,5.7541" transform="translate(-66.1486 -151.1114)"/></g></g></g><g class="cls-2"><g class="cls-59"><g class="cls-2"><path class="cls-60" d="M2317.803,805.11l-.1155,40.7581,0,.018.1155-40.7581,0-.018" transform="translate(-66.1486 -151.1114)"/><path class="cls-61" d="M2317.8027,805.1282l-.1155,40.7581a.701.701,0,0,1-.0143.1178l.1155-40.7581a.7011.7011,0,0,0,.0143-.1178" transform="translate(-66.1486 -151.1114)"/><path class="cls-33" d="M2317.7883,805.246l-.1155,40.7581a.97.97,0,0,1-.044.1489l.1155-40.7581a.97.97,0,0,0,.044-.1489" transform="translate(-66.1486 -151.1114)"/><path class="cls-34" d="M2317.7443,805.3949l-.1155,40.7581a1.5154,1.5154,0,0,1-.0981.2058l.1155-40.7581a1.5154,1.5154,0,0,0,.0981-.2058" transform="translate(-66.1486 -151.1114)"/><path class="cls-35" d="M2317.6463,805.6007l-.1155,40.7581a2.915,2.915,0,0,1-.2494.3642l.1155-40.7581a2.915,2.915,0,0,0,.2494-.3642" transform="translate(-66.1486 -151.1114)"/><path class="cls-36" d="M2317.3968,805.9649l-.1155,40.7581a10.05,10.05,0,0,1-.8726.93q-.3318.3231-.682.6473l.1155-40.7581q.35-.3237.682-.6473a10.05,10.05,0,0,0,.8726-.93" transform="translate(-66.1486 -151.1114)"/><path class="cls-37" d="M2315.8423,807.5419l-.1155,40.7581a44.5835,44.5835,0,0,1-6.7151,5.1258l.1155-40.7581a44.5835,44.5835,0,0,0,6.7151-5.1258" transform="translate(-66.1486 -151.1114)"/><path class="cls-38" d="M2309.1272,812.6677l-.1155,40.7581q-.1782.1079-.3523.21l.1155-40.7581q.1741-.1017.3523-.21" transform="translate(-66.1486 -151.1114)"/></g></g></g><g class="cls-2"><g class="cls-62"><g class="cls-2"><path class="cls-60" d="M2261.6843,802.0842l-.1155,40.7581q-.0006.2166-.0065.4187l.1155-40.7581q.0059-.2023.0065-.4187" transform="translate(-66.1486 -151.1114)"/><path class="cls-61" d="M2261.6778,802.5029l-.1155,40.7581a10.0631,10.0631,0,0,1-.1723,1.6734l.1155-40.7581a10.0633,10.0633,0,0,0,.1723-1.6734" transform="translate(-66.1486 -151.1114)"/><path class="cls-33" d="M2261.5055,804.1763l-.1155,40.7581a5.6143,5.6143,0,0,1-.244.8734l.1155-40.7581a5.6144,5.6144,0,0,0,.244-.8734" transform="translate(-66.1486 -151.1114)"/><path class="cls-34" d="M2261.2615,805.05l-.1155,40.7581a4.2232,4.2232,0,0,1-.277.5974l.1155-40.7581a4.2233,4.2233,0,0,0,.277-.5974" transform="translate(-66.1486 -151.1114)"/><path class="cls-35" d="M2260.9845,805.6471l-.1155,40.7581a4.1116,4.1116,0,0,1-.3513.5229l.1155-40.7581a4.1116,4.1116,0,0,0,.3513-.5229" transform="translate(-66.1486 -151.1114)"/><path class="cls-36" d="M2260.6332,806.17l-.1155,40.7581a7.515,7.515,0,0,1-.6714.725q-.3315.3228-.6813.6466l.1155-40.7581q.3492-.3234.6813-.6466a7.5152,7.5152,0,0,0,.6714-.725" transform="translate(-66.1486 -151.1114)"/><path class="cls-37" d="M2259.28,807.5415l-.1155,40.7581a44.2651,44.2651,0,0,1-6.6786,5.0973l.1155-40.7581a44.2651,44.2651,0,0,0,6.6786-5.0973" transform="translate(-66.1486 -151.1114)"/><path class="cls-38" d="M2252.6019,812.6389l-.1155,40.7581q-.2037.1234-.4023.2388l.1155-40.7581q.1985-.1153.4023-.2388" transform="translate(-66.1486 -151.1114)"/></g></g></g><g class="cls-2"><g class="cls-63"><g class="cls-2"><path class="cls-10" d="M79.9826,812.0657l-.1155,40.7581a42.8273,42.8273,0,0,1-7.5228-5.7541,18.1768,18.1768,0,0,1-2.62-3.019l.1155-40.7581a18.1768,18.1768,0,0,0,2.62,3.019,42.8273,42.8273,0,0,0,7.5228,5.7541" transform="translate(-66.1486 -151.1114)"/></g></g></g><g class="cls-2"><g class="cls-64"><g class="cls-2"><path class="cls-30" d="M135.1432,812.8874l-.1155,40.7581a55.1121,55.1121,0,0,1-9.4315-6.8121l.1155-40.7581a55.1121,55.1121,0,0,0,9.4315,6.8121" transform="translate(-66.1486 -151.1114)"/></g></g></g><g class="cls-2"><g class="cls-65"><g class="cls-2"><path class="cls-30" d="M78.568,812.8877l-.1155,40.7581a41.9106,41.9106,0,0,1-9.7566-8.0433l.1155-40.7581a41.9106,41.9106,0,0,0,9.7566,8.0433" transform="translate(-66.1486 -151.1114)"/></g></g></g><polygon class="cls-40" points="474.682 896 474.567 936.758 68.879 702.534 68.995 661.776 474.682 896"/><g class="cls-2"><g class="cls-66"><g class="cls-2"><path class="cls-30" d="M544.0635,1051.6158l-.1155,40.7581c-.0155-1.633-1.0875-3.266-3.2327-4.5045l.1155-40.7581c2.1452,1.2386,3.2172,2.8715,3.2327,4.5045" transform="translate(-66.1486 -151.1114)"/></g></g></g><g class="cls-2"><g class="cls-67"><g class="cls-2"><path class="cls-24" d="M544.0635,1051.6158l-.1155,40.7581q0,.0653-.0015.1306l.1155-40.7581q.0019-.0653.0015-.1306" transform="translate(-66.1486 -151.1114)"/><path class="cls-23" d="M544.0619,1051.7464l-.1155,40.7581a3.7969,3.7969,0,0,1-.0728.6365l.1155-40.7581a3.7969,3.7969,0,0,0,.0728-.6365" transform="translate(-66.1486 -151.1114)"/><path class="cls-22" d="M543.9891,1052.3829l-.1155,40.7581a4.0214,4.0214,0,0,1-.1785.6221l.1155-40.7581a4.0214,4.0214,0,0,0,.1785-.6221" transform="translate(-66.1486 -151.1114)"/><path class="cls-19" d="M543.8106,1053.0051l-.1155,40.7581a4.4631,4.4631,0,0,1-.2931.626l.1155-40.7581a4.4631,4.4631,0,0,0,.2931-.626" transform="translate(-66.1486 -151.1114)"/><path class="cls-18" d="M543.5174,1053.6311l-.1155,40.7581a5.1745,5.1745,0,0,1-.4392.653l.1155-40.7581a5.1745,5.1745,0,0,0,.4392-.653" transform="translate(-66.1486 -151.1114)"/><path class="cls-17" d="M543.0783,1054.2841l-.1155,40.7581a6.3,6.3,0,0,1-.6775.73l.1155-40.7581a6.3,6.3,0,0,0,.6775-.73" transform="translate(-66.1486 -151.1114)"/><path class="cls-16" d="M542.4008,1055.0141l-.1155,40.7581a8.43,8.43,0,0,1-1.37,1.0176l.1155-40.7581a8.43,8.43,0,0,0,1.37-1.0176" transform="translate(-66.1486 -151.1114)"/><path class="cls-6" d="M541.031,1056.0317l-.1155,40.7581q-.0739.0446-.15.0886l.1155-40.7581q.0757-.044.15-.0886" transform="translate(-66.1486 -151.1114)"/></g></g></g><g class="cls-2"><g class="cls-68"><g class="cls-2"><path class="cls-60" d="M546.0634,1051.6531l-.1155,40.7581q0,.0574-.0018.1148l.1155-40.7581q.0017-.0574.0018-.1148" transform="translate(-66.1486 -151.1114)"/><path class="cls-61" d="M546.0616,1051.7679l-.1155,40.7581a4.4678,4.4678,0,0,1-.0857.75l.1155-40.7581a4.4678,4.4678,0,0,0,.0857-.75" transform="translate(-66.1486 -151.1114)"/><path class="cls-33" d="M545.9759,1052.5175l-.1155,40.7581a4.7449,4.7449,0,0,1-.2109.7349l.1155-40.7581a4.7449,4.7449,0,0,0,.2109-.7349" transform="translate(-66.1486 -151.1114)"/><path class="cls-34" d="M545.765,1053.2524l-.1155,40.7581a5.2777,5.2777,0,0,1-.3473.7412l.1155-40.7581a5.2776,5.2776,0,0,0,.3473-.7412" transform="translate(-66.1486 -151.1114)"/><path class="cls-35" d="M545.4178,1053.9936l-.1155,40.7581a6.13,6.13,0,0,1-.5232.7769l.1155-40.7581a6.13,6.13,0,0,0,.5232-.7769" transform="translate(-66.1486 -151.1114)"/><path class="cls-36" d="M544.8946,1054.77l-.1155,40.7581a7.4714,7.4714,0,0,1-.8047.8653l.1155-40.7581a7.4715,7.4715,0,0,0,.8047-.8653" transform="translate(-66.1486 -151.1114)"/><path class="cls-37" d="M544.09,1055.6358l-.1155,40.7581a10.0014,10.0014,0,0,1-1.6342,1.21l.1155-40.7581a10.0014,10.0014,0,0,0,1.6342-1.21" transform="translate(-66.1486 -151.1114)"/><path class="cls-38" d="M542.4557,1056.8459l-.1155,40.7581q-.0776.0467-.1569.0928l.1155-40.7581q.0793-.0461.1569-.0928" transform="translate(-66.1486 -151.1114)"/></g></g></g><polygon class="cls-13" points="474.733 905.009 474.617 945.767 463.339 952.321 463.455 911.563 474.733 905.009"/><polygon class="cls-14" points="447.901 911.563 447.786 952.321 13.718 701.712 13.834 660.954 447.901 911.563"/><polygon class="cls-42" points="476.15 905.827 476.035 946.585 464.757 953.14 464.872 912.381 476.15 905.827"/><polygon class="cls-40" points="446.487 912.385 446.371 953.143 12.304 702.534 12.419 661.776 446.487 912.385"/><g class="cls-2"><g class="cls-69"><g class="cls-2"><path class="cls-6" d="M529.6033,1062.6745l-.1155,40.7581a12.37,12.37,0,0,1-2.4362,1.0657l.1155-40.7581a12.37,12.37,0,0,0,2.4362-1.0657" transform="translate(-66.1486 -151.1114)"/><path class="cls-16" d="M527.1671,1063.74l-.1155,40.7581a15.933,15.933,0,0,1-2.0368.5035l.1155-40.7581a15.9328,15.9328,0,0,0,2.0368-.5035" transform="translate(-66.1486 -151.1114)"/><path class="cls-17" d="M525.13,1064.2437l-.1155,40.7581c-.4631.0834-.9342.1488-1.41.196l.1155-40.7581c.476-.0473.9471-.1126,1.41-.196" transform="translate(-66.1486 -151.1114)"/><path class="cls-18" d="M523.72,1064.44l-.1155,40.7581q-.6093.06-1.2269.0815l.1155-40.7581q.6166-.021,1.2269-.0815" transform="translate(-66.1486 -151.1114)"/><path class="cls-19" d="M522.4932,1064.5212l-.1155,40.7581q-.3276.0112-.6562.0112-.2416,0-.4831-.006l.1155-40.7581q.2414.006.4831.006.3284,0,.6562-.0112" transform="translate(-66.1486 -151.1114)"/><path class="cls-22" d="M521.354,1064.5264l-.1155,40.7581q-.547-.0137-1.09-.0584l.1155-40.7581q.5426.0447,1.09.0584" transform="translate(-66.1486 -151.1114)"/><path class="cls-23" d="M520.2636,1064.468l-.1155,40.7581q-.5408-.0446-1.0736-.12l.1155-40.7581q.5321.0754,1.0736.12" transform="translate(-66.1486 -151.1114)"/><path class="cls-24" d="M519.19,1064.348l-.1155,40.7581q-.55-.0779-1.0871-.1888l.1155-40.7581q.5362.1109,1.0871.1888" transform="translate(-66.1486 -151.1114)"/><path class="cls-25" d="M518.1029,1064.1592l-.1155,40.7581q-.5855-.1211-1.15-.2815l.1155-40.7581q.5631.16,1.15.2815" transform="translate(-66.1486 -151.1114)"/><path class="cls-26" d="M516.9533,1063.8777l-.1155,40.7581c-.4533-.1291-.8942-.2773-1.3191-.4446l.1155-40.7581c.4249.1673.8658.3155,1.3191.4446" transform="translate(-66.1486 -151.1114)"/><path class="cls-10" d="M515.6342,1063.4331l-.1155,40.7581a11.8563,11.8563,0,0,1-1.5843-.7585l.1155-40.7581a11.8564,11.8564,0,0,0,1.5843.7585" transform="translate(-66.1486 -151.1114)"/></g></g></g><g class="cls-2"><g class="cls-70"><g class="cls-2"><path class="cls-38" d="M531.0207,1063.4928l-.1155,40.7581a14.6015,14.6015,0,0,1-2.8311,1.2443l.1155-40.7581a14.6014,14.6014,0,0,0,2.8311-1.2443" transform="translate(-66.1486 -151.1114)"/><path class="cls-37" d="M528.19,1064.7372l-.1155,40.7581a18.8287,18.8287,0,0,1-2.4617.6126l.1155-40.7581a18.8287,18.8287,0,0,0,2.4617-.6126" transform="translate(-66.1486 -151.1114)"/><path class="cls-36" d="M525.7279,1065.35l-.1155,40.7581c-.5465.0985-1.1024.1757-1.6636.2316l.1155-40.7581c.5612-.0559,1.117-.1331,1.6636-.2316" transform="translate(-66.1486 -151.1114)"/><path class="cls-35" d="M524.0643,1065.5814l-.1155,40.7581q-.72.0717-1.45.0966l.1155-40.7581q.7283-.0249,1.45-.0966" transform="translate(-66.1486 -151.1114)"/><path class="cls-34" d="M522.6144,1065.678l-.1155,40.7581q-.6691.0229-1.34.0062l.1155-40.7581q.67.0167,1.34-.0062" transform="translate(-66.1486 -151.1114)"/><path class="cls-33" d="M521.2746,1065.6842l-.1155,40.7581q-.6461-.0161-1.2884-.0689l.1155-40.7581q.6414.0528,1.2884.0689" transform="translate(-66.1486 -151.1114)"/><path class="cls-61" d="M519.9862,1065.6153l-.1155,40.7581q-.64-.0527-1.2708-.142l.1155-40.7581q.63.0893,1.2708.142" transform="translate(-66.1486 -151.1114)"/><path class="cls-60" d="M518.7154,1065.4733l-.1155,40.7581q-.6544-.0927-1.2935-.225l.1155-40.7581q.6381.1322,1.2935.225" transform="translate(-66.1486 -151.1114)"/><path class="cls-45" d="M517.4219,1065.2483l-.1155,40.7581q-.6911-.1432-1.3573-.3326l.1155-40.7581q.665.1895,1.3573.3326" transform="translate(-66.1486 -151.1114)"/><path class="cls-31" d="M516.0646,1064.9157l-.1155,40.7581c-.5417-.1543-1.0685-.3317-1.5761-.532l.1155-40.7581c.5076.2,1.0345.3777,1.5761.532" transform="translate(-66.1486 -151.1114)"/><path class="cls-30" d="M514.4884,1064.3837l-.1155,40.7581a14.05,14.05,0,0,1-1.8531-.8871l.1155-40.7581a14.05,14.05,0,0,0,1.8531.8871" transform="translate(-66.1486 -151.1114)"/></g></g></g><g class="cls-2"><g class="cls-71"><g class="cls-2"><path class="cls-30" d="M773.7048,1181.5611l-.1155,40.7581a11.8493,11.8493,0,0,0-1.5833-.758l.1155-40.7581a11.8493,11.8493,0,0,1,1.5833.758" transform="translate(-66.1486 -151.1114)"/><path class="cls-31" d="M772.1214,1180.8031l-.1155,40.7581c-.4258-.1676-.8675-.3161-1.3214-.4454l.1155-40.7581c.4539.1293.8956.2777,1.3214.4454" transform="translate(-66.1486 -151.1114)"/><path class="cls-45" d="M770.8,1180.3578l-.1155,40.7581q-.5653-.161-1.1539-.2825l.1155-40.7581q.5875.1215,1.1539.2825" transform="translate(-66.1486 -151.1114)"/><path class="cls-60" d="M769.6462,1180.0753l-.1155,40.7581q-.5395-.1116-1.0934-.19l.1155-40.7581q.5531.0784,1.0934.19" transform="translate(-66.1486 -151.1114)"/><path class="cls-61" d="M768.5527,1179.8854l-.1155,40.7581q-.5361-.076-1.0813-.1208l.1155-40.7581q.5444.0449,1.0813.1208" transform="translate(-66.1486 -151.1114)"/><path class="cls-33" d="M767.4715,1179.7646l-.1155,40.7581q-.547-.0451-1.0987-.0588l.1155-40.7581q.551.0138,1.0987.0588" transform="translate(-66.1486 -151.1114)"/><path class="cls-34" d="M766.3727,1179.7057l-.1155,40.7581q-.2307-.0058-.4615-.0061-.3181,0-.6359.0112l.1155-40.7581q.3176-.0108.6359-.0112.2308,0,.4615.0061" transform="translate(-66.1486 -151.1114)"/><path class="cls-35" d="M765.2754,1179.7109l-.1155,40.7581q-.6215.0212-1.2372.0822l.1155-40.7581q.6147-.061,1.2372-.0822" transform="translate(-66.1486 -151.1114)"/><path class="cls-36" d="M764.0381,1179.793l-.1155,40.7581c-.4793.0476-.954.1134-1.4206.1975l.1155-40.7581c.4666-.0841.9413-.15,1.4206-.1975" transform="translate(-66.1486 -151.1114)"/><path class="cls-37" d="M762.6175,1179.99l-.1155,40.7581a15.9915,15.9915,0,0,0-2.0455.5056l.1155-40.7581a15.9918,15.9918,0,0,1,2.0455-.5056" transform="translate(-66.1486 -151.1114)"/><path class="cls-38" d="M760.572,1180.4961l-.1155,40.7581a12.3293,12.3293,0,0,0-2.427,1.0614l.1155-40.7581a12.3294,12.3294,0,0,1,2.427-1.0614" transform="translate(-66.1486 -151.1114)"/></g></g></g><polygon class="cls-42" points="691.996 1030.446 691.881 1071.204 680.603 1077.758 680.718 1037 691.996 1030.446"/><g class="cls-2"><g class="cls-72"><g class="cls-2"><path class="cls-38" d="M746.8668,1188.1117l-.1155,40.7581q-.0751.0436-.1484.0879l.1155-40.7581q.0733-.0443.1484-.0879" transform="translate(-66.1486 -151.1114)"/><path class="cls-37" d="M746.7184,1188.2l-.1155,40.7581a8.3946,8.3946,0,0,0-1.3643,1.0137l.1155-40.7581a8.3946,8.3946,0,0,1,1.3643-1.0137" transform="translate(-66.1486 -151.1114)"/><path class="cls-36" d="M745.3541,1189.2133l-.1155,40.7581a6.3056,6.3056,0,0,0-.6781.7307l.1155-40.7581a6.3056,6.3056,0,0,1,.6781-.7307" transform="translate(-66.1486 -151.1114)"/><path class="cls-35" d="M744.6761,1189.9441l-.1155,40.7581a5.1977,5.1977,0,0,0-.4411.656l.1155-40.7581a5.1976,5.1976,0,0,1,.4411-.656" transform="translate(-66.1486 -151.1114)"/><path class="cls-34" d="M744.2349,1190.6l-.1155,40.7581a4.4939,4.4939,0,0,0-.2951.63l.1155-40.7581a4.4939,4.4939,0,0,1,.2951-.63" transform="translate(-66.1486 -151.1114)"/><path class="cls-33" d="M743.94,1191.23l-.1155,40.7581a4.0546,4.0546,0,0,0-.18.6272l.1155-40.7581a4.0545,4.0545,0,0,1,.18-.6272" transform="translate(-66.1486 -151.1114)"/><path class="cls-61" d="M743.76,1191.8576l-.1155,40.7581a3.8292,3.8292,0,0,0-.0732.6346l.1155-40.7581a3.8292,3.8292,0,0,1,.0732-.6346" transform="translate(-66.1486 -151.1114)"/><path class="cls-60" d="M743.6866,1192.4923l-.1155,40.7581q-.0019.062-.0018.124l.1155-40.7581q0-.062.0018-.124" transform="translate(-66.1486 -151.1114)"/></g></g></g><g class="cls-2"><g class="cls-73"><g class="cls-2"><path class="cls-10" d="M746.9239,1197.1245l-.1155,40.7581c-2.1516-1.2423-3.23-2.8715-3.2392-4.5082l.1155-40.7581c.0092,1.6367,1.0875,3.266,3.2392,4.5082" transform="translate(-66.1486 -151.1114)"/></g></g></g><g class="cls-2"><g class="cls-74"><g class="cls-2"><path class="cls-30" d="M745.5094,1197.9465l-.1155,40.7581c-2.5543-1.4784-3.83-3.4245-3.8245-5.3667l.1155-40.7581c-.0055,1.9422,1.27,3.8883,3.8245,5.3667" transform="translate(-66.1486 -151.1114)"/></g></g></g><polygon class="cls-42" points="2186.051 661.766 2185.936 702.524 1148.48 1305.428 1148.595 1264.67 2186.051 661.766"/><polygon class="cls-40" points="1113.237 1264.67 1113.122 1305.428 707.441 1071.208 707.556 1030.45 1113.237 1264.67"/><g class="cls-2"><g class="cls-75"><g class="cls-2"><path class="cls-38" d="M1214.7438,1415.7811l-.1155,40.7581a75.9661,75.9661,0,0,1-11.7362,5.4446l.1155-40.7581a75.966,75.966,0,0,0,11.7362-5.4446" transform="translate(-66.1486 -151.1114)"/></g></g></g><g class="cls-2"><g class="cls-76"><g class="cls-2"><path class="cls-34" d="M1203.0076,1421.2257l-.1155,40.7581c-2.7751.0914-4.8978.1064-6.5616.0648l.1155-40.7581c1.6638.0415,3.7865.0265,6.5616-.0648" transform="translate(-66.1486 -151.1114)"/><path class="cls-33" d="M1196.4459,1421.2906l-.1155,40.7581c-.9424-.0235-1.7376-.0652-2.4208-.1213l.1155-40.7581c.6832.0562,1.4784.0978,2.4208.1213" transform="translate(-66.1486 -151.1114)"/><path class="cls-61" d="M1194.0252,1421.1692l-.1155,40.7581c-.5094-.0419-.9565-.0918-1.3558-.1483l.1155-40.7581c.3994.0565.8464.1065,1.3558.1483" transform="translate(-66.1486 -151.1114)"/><path class="cls-60" d="M1192.6693,1421.0209l-.1155,40.7581c-.3616-.0512-.6841-.1077-.9783-.1686l.1155-40.7581c.2942.0608.6167.1174.9783.1686" transform="translate(-66.1486 -151.1114)"/><path class="cls-45" d="M1191.6911,1420.8523l-.1155,40.7581c-.3439-.0711-.6491-.1481-.9329-.2291l.1156-40.7581c.2838.081.589.158.9329.2291" transform="translate(-66.1486 -151.1114)"/><path class="cls-31" d="M1190.7581,1420.6233l-.1156,40.7581c-.3622-.1034-.69-.2134-1.0182-.3264-1.0249-.3543-2.0578-.7371-3.068-1.1345l.1155-40.7581c1.01.3973,2.0431.78,3.068,1.1345.3285.113.6559.223,1.0182.3264" transform="translate(-66.1486 -151.1114)"/><path class="cls-30" d="M1186.672,1419.1624l-.1155,40.7581a58.2992,58.2992,0,0,1-7.286-3.3811l.1155-40.7581a58.2993,58.2993,0,0,0,7.286,3.3811" transform="translate(-66.1486 -151.1114)"/></g></g></g><polygon class="cls-13" points="2241.202 660.944 2241.087 701.702 1147.24 1337.376 1147.356 1296.618 2241.202 660.944"/><polygon class="cls-14" points="1114.904 1296.657 1114.788 1337.415 680.66 1086.771 680.775 1046.013 1114.904 1296.657"/><polygon class="cls-42" points="2242.626 661.766 2242.511 702.524 1148.664 1338.198 1148.78 1297.44 2242.626 661.766"/><polygon class="cls-40" points="1113.422 1297.44 1113.306 1338.198 679.245 1087.593 679.361 1046.835 1113.422 1297.44"/><g class="cls-2"><g class="cls-77"><g class="cls-2"><path class="cls-25" d="M1196.5824,1453.2233l-.1155,40.7581c-2.1389-.4422-4.0028-.9-5.6466-1.3681l.1155-40.7581c1.6438.4681,3.5076.9258,5.6466,1.3681" transform="translate(-66.1486 -151.1114)"/><path class="cls-26" d="M1190.9358,1451.8552l-.1155,40.7581c-1.7845-.5081-3.31-1.0284-4.6456-1.5542l.1155-40.7581c1.336.5258,2.8611,1.0461,4.6456,1.5542" transform="translate(-66.1486 -151.1114)"/><path class="cls-10" d="M1186.29,1450.301l-.1155,40.7581a37.99,37.99,0,0,1-5.2381-2.5323l.1155-40.7581a37.99,37.99,0,0,0,5.2381,2.5323" transform="translate(-66.1486 -151.1114)"/></g></g></g><path class="cls-27" d="M2307.245,793.2188a59.1211,59.1211,0,0,1,6.6053,4.4529c.6695,9.2708-3.5624,12.6843-6.4993,14.3836L1213.5045,1447.73a63.04,63.04,0,0,1-9.91,4.3387,45.9809,45.9809,0,0,1-5.21,1.5114c-9.3745-1.7726-13.8994-3.8288-17.3327-5.811L746.9239,1197.1245c-2.1516-1.2423-3.23-2.8715-3.2392-4.5082-.0028-1.633,1.0508-3.266,3.1821-4.5046l11.2782-6.5541a17.2032,17.2032,0,0,1,15.56.0036l405.6812,234.22a66.2464,66.2464,0,0,0,10.354,4.5156,49.1561,49.1561,0,0,0,5.5583,1.6c11.2914-1.939,15.887-4.0476,19.4455-6.1155L2252.2,812.8777a43.6085,43.6085,0,0,0,7.7621-5.9828,19.1238,19.1238,0,0,0,2.7439-3.2144c-3.3906-6.543-7.0394-9.2155-10.6212-11.2835L1207.8417,189.5032a66.247,66.247,0,0,0-10.3541-4.5156,49.1432,49.1432,0,0,0-5.5583-1.6c-11.2914,1.9463-15.8934,4.0512-19.4456,6.1155L135.0278,792.4068a43.6118,43.6118,0,0,0-7.7621,5.9828,19.3563,19.3563,0,0,0-2.75,3.2181c3.3969,6.5467,7.0521,9.2155,10.6276,11.28l405.6875,234.2238c2.1452,1.2386,3.2172,2.8715,3.2327,4.5045.0093,1.6367-1.0507,3.266-3.182,4.5046l-11.2782,6.5541a17.2049,17.2049,0,0,1-15.5534,0L79.9826,812.0657a42.8273,42.8273,0,0,1-7.5228-5.7541,18.1768,18.1768,0,0,1-2.62-3.019,25.0286,25.0286,0,0,1,10.0366-10.0634L1173.7231,157.555a64.2853,64.2853,0,0,1,9.91-4.3387,45.4255,45.4255,0,0,1,5.2035-1.5077c9.4031,1.7767,13.965,3.8594,17.4064,5.8462Z" transform="translate(-66.1486 -151.1114)"/><g class="cls-2"><g class="cls-78"><g class="cls-2"><path class="cls-24" d="M1198.3849,1453.58l-.1155,40.7581q-.9327-.1764-1.8025-.3564l.1155-40.7581q.87.18,1.8025.3564" transform="translate(-66.1486 -151.1114)"/><path class="cls-25" d="M1196.5824,1453.2233l-.1155,40.7581c-2.1389-.4422-4.0028-.9-5.6466-1.3681l.1155-40.7581c1.6438.4681,3.5076.9258,5.6466,1.3681" transform="translate(-66.1486 -151.1114)"/></g></g></g><g class="cls-2"><g class="cls-79"><g class="cls-2"><path class="cls-6" d="M1213.5045,1447.73l-.1155,40.7581a63.04,63.04,0,0,1-9.91,4.3387c-.4692.163-.9361.3191-1.3962.4665l.1155-40.7581c.46-.1474.9269-.3035,1.3962-.4665a63.04,63.04,0,0,0,9.91-4.3387" transform="translate(-66.1486 -151.1114)"/><path class="cls-16" d="M1202.1986,1452.5348l-.1155,40.7581c-1.3708.4393-2.6811.802-3.8137,1.0449l.1155-40.7581c1.1326-.2429,2.443-.6056,3.8137-1.0449" transform="translate(-66.1486 -151.1114)"/></g></g></g><g class="cls-2"><g class="cls-80"><g class="cls-2"><path class="cls-38" d="M1214.9283,1448.5516l-.1155,40.7581a67.7048,67.7048,0,0,1-11.7461,4.991l.1155-40.7581a67.7048,67.7048,0,0,0,11.7461-4.991" transform="translate(-66.1486 -151.1114)"/><path class="cls-37" d="M1203.1821,1453.5426l-.1155,40.7581c-.7224.2316-1.4331.4448-2.121.6342l.1155-40.7581c.6878-.1895,1.3986-.4026,2.121-.6342" transform="translate(-66.1486 -151.1114)"/></g></g></g><path class="cls-81" d="M2308.6532,792.4a55.1157,55.1157,0,0,1,9.4315,6.8121c-6.1711-3.0559-8.5412-4.6667-10.84-5.9937L1206.2427,157.5548a74.9562,74.9562,0,0,0-11.4147-5.2676c-7.4981-.258-9.3279.28-11.1952.929a64.2853,64.2853,0,0,0-9.91,4.3387L79.8765,793.2291a52.9116,52.9116,0,0,0-9.0633,6.5984c-.4147,4.3387.52,5.4,1.6465,6.484a42.7849,42.7849,0,0,0,7.4775,5.7281L514.05,1062.6746a17.2049,17.2049,0,0,0,15.5534,0l11.2782-6.5541c2.1313-1.2386,3.1913-2.8679,3.182-4.5046-.0155-1.633-1.0875-3.266-3.2327-4.5045L135.1432,812.8874a55.1121,55.1121,0,0,1-9.4315-6.8121c-.5716-5.4519.4021-6.5578,1.554-7.6858a43.6118,43.6118,0,0,1,7.7621-5.9828L1172.4837,189.5034a75.9849,75.9849,0,0,1,11.7363-5.4372c9.4041-.317,11.3165.2506,13.2676.9215a66.247,66.247,0,0,1,10.3541,4.5156L2252.0844,792.3971a55.0649,55.0649,0,0,1,9.4315,6.8195c.5716,5.4445-.4022,6.55-1.5541,7.6784a43.6085,43.6085,0,0,1-7.7621,5.9828L1214.7438,1415.7811a75.966,75.966,0,0,1-11.7362,5.4446c-9.4041.31-11.3165-.258-13.2676-.9289a66.2464,66.2464,0,0,1-10.354-4.5156l-405.6812-234.22a17.2032,17.2032,0,0,0-15.56-.0036l-11.2782,6.5541c-2.1313,1.2386-3.1849,2.8716-3.1821,4.5046.0092,1.6367,1.0875,3.266,3.2392,4.5082l434.061,250.6052a74.6651,74.6651,0,0,0,11.4211,5.2712c7.4917.2543,9.3215-.2839,11.1888-.9326a63.04,63.04,0,0,0,9.91-4.3387L2307.351,812.0554a39.6981,39.6981,0,0,0,9.2733-7.719c2.0319.3281,1.0581,1.4339-.1,2.5582a44,44,0,0,1-7.7494,5.9828L1214.9283,1448.5516a68.5875,68.5875,0,0,1-13.8671,5.6252c-16.2568-2.853-19.1093-4.25-21.4908-5.6251l-434.061-250.6052c-5.0759-2.9379-5.1028-7.7226-.06-10.6532l11.2782-6.5541c5.0428-2.9306,13.3032-2.9306,18.3853.0036l405.6812,234.22a67.2051,67.2051,0,0,0,13.3628,5.4c14.1126-2.7057,16.8859-4.0733,19.1695-5.4L2250.7823,812.0593a39.7459,39.7459,0,0,0,9.28-7.7227c-4.7235-8.18-7.0873-9.7942-9.3858-11.1212L1206.4334,190.3216a67.5883,67.5883,0,0,0-13.3691-5.3966c-14.1,2.7058-16.88,4.07-19.1632,5.3967L136.4453,793.2252a39.7059,39.7059,0,0,0-9.28,7.7226c4.7172,8.1834,7.0873,9.7943,9.3858,11.1213l405.6875,234.2238c5.0758,2.9305,5.1027,7.7152.06,10.6458l-11.2782,6.5541c-5.0428,2.9306-13.3032,2.9306-18.3853.0038L78.568,812.8877a41.9106,41.9106,0,0,1-9.7566-8.0433c4.8791-9.4109,7.2817-11.0587,9.6477-12.4337L1172.3057,156.7366a68.09,68.09,0,0,1,13.8544-5.6252c16.2568,2.8531,19.1093,4.25,21.4908,5.6251Z" transform="translate(-66.1486 -151.1114)"/><g class="cls-2"><g class="cls-82"><g class="cls-2"><path class="cls-60" d="M1201.0612,1454.1768l-.1155,40.7581c-3.4875-.6121-6.3582-1.1571-8.74-1.6493l.1155-40.7581c2.3814.4922,5.2521,1.0373,8.74,1.6493" transform="translate(-66.1486 -151.1114)"/><path class="cls-45" d="M1192.3215,1452.5275l-.1155,40.7581c-3.0651-.6335-5.32-1.1794-7.0363-1.668l.1155-40.7581c1.7165.4886,3.9712,1.0345,7.0363,1.668" transform="translate(-66.1486 -151.1114)"/><path class="cls-31" d="M1185.2852,1450.8595l-.1155,40.7581c-1.2738-.3625-2.2512-.6935-3.0435-1.0052l.1155-40.7581c.7924.3117,1.77.6427,3.0435,1.0052" transform="translate(-66.1486 -151.1114)"/><path class="cls-30" d="M1182.2417,1449.8543l-.1155,40.7581a18.4255,18.4255,0,0,1-2.6713-1.3025l.1155-40.7581a18.4255,18.4255,0,0,0,2.6713,1.3025" transform="translate(-66.1486 -151.1114)"/></g></g></g></g><g class="cls-2"><polygon class="cls-83" points="1213.897 147.262 1213.874 155.414 1124.489 103.807 1124.512 95.656 1213.897 147.262"/><polygon class="cls-84" points="1124.512 95.656 1124.489 103.807 1035.418 155.569 1035.441 147.418 1124.512 95.656"/><polygon class="cls-83" points="1313.728 204.899 1313.705 213.051 1224.786 161.713 1224.809 153.562 1313.728 204.899"/><polygon class="cls-84" points="1224.809 153.562 1224.786 161.713 1135.715 213.476 1135.738 205.324 1224.809 153.562"/><polygon class="cls-83" points="1414.024 262.806 1414.001 270.957 1324.814 219.465 1324.837 211.313 1414.024 262.806"/><polygon class="cls-84" points="1324.837 211.313 1324.814 219.465 1235.743 271.227 1235.767 263.076 1324.837 211.313"/><polygon class="cls-84" points="1435.235 262.802 1435.212 270.953 1324.993 335.006 1325.016 326.854 1435.235 262.802"/><path class="cls-85" d="M1190.598,234.4808l310.786,179.4324-110.2189,64.0522L1080.3791,298.533Zm.3772,115.655,89.0708-51.7623-89.3852-51.6066L1101.59,298.5292l89.3852,51.6066m200.1271,115.5434,89.0708-51.7623-89.1871-51.4922-89.0708,51.7623,89.1871,51.4922m-100.2967-57.9063,89.0708-51.7623-88.9189-51.3373-89.0708,51.7623,88.9189,51.3373" transform="translate(-66.1486 -151.1114)"/><polygon class="cls-83" points="1325.016 326.854 1324.993 335.006 1014.207 155.573 1014.231 147.422 1325.016 326.854"/></g><g class="cls-2"><polygon class="cls-83" points="1015.572 262.406 1015.549 270.558 926.183 218.962 926.206 210.81 1015.572 262.406"/><polygon class="cls-84" points="926.206 210.81 926.183 218.962 837.106 270.728 837.129 262.576 926.206 210.81"/><polygon class="cls-83" points="1115.396 320.039 1115.373 328.191 1026.46 276.857 1026.483 268.705 1115.396 320.039"/><polygon class="cls-83" points="915.927 320.313 915.904 328.465 826.538 276.869 826.561 268.718 915.927 320.313"/><polygon class="cls-84" points="1026.483 268.705 1026.46 276.857 937.383 328.623 937.406 320.471 1026.483 268.705"/><polygon class="cls-84" points="826.561 268.718 826.538 276.869 737.461 328.635 737.484 320.484 826.561 268.718"/><polygon class="cls-83" points="1215.692 377.945 1215.669 386.097 1126.482 334.605 1126.505 326.453 1215.692 377.945"/><polygon class="cls-83" points="1015.751 377.947 1015.728 386.098 926.815 334.764 926.838 326.613 1015.751 377.947"/><polygon class="cls-84" points="1126.505 326.453 1126.482 334.605 1037.405 386.371 1037.428 378.219 1126.505 326.453"/><polygon class="cls-84" points="926.838 326.613 926.815 334.764 837.738 386.53 837.761 378.379 926.838 326.613"/><polygon class="cls-83" points="1316.168 435.955 1316.145 444.107 1226.945 392.607 1226.968 384.455 1316.168 435.955"/><polygon class="cls-83" points="1116.047 435.853 1116.024 444.004 1026.837 392.512 1026.86 384.36 1116.047 435.853"/><polygon class="cls-84" points="1226.968 384.455 1226.945 392.607 1137.867 444.373 1137.891 436.221 1226.968 384.455"/><polygon class="cls-84" points="1026.86 384.36 1026.837 392.512 937.76 444.278 937.783 436.126 1026.86 384.36"/><polygon class="cls-83" points="1216.523 493.862 1216.5 502.014 1127.299 450.514 1127.322 442.363 1216.523 493.862"/><polygon class="cls-84" points="1127.322 442.363 1127.299 450.514 1038.222 502.28 1038.245 494.129 1127.322 442.363"/><polygon class="cls-84" points="1337.832 436.221 1337.809 444.372 1127.952 566.328 1127.975 558.176 1337.832 436.221"/><path class="cls-85" d="M992.2595,349.6247,1403.9806,587.332,1194.1237,709.2875,782.4025,471.58Zm-99.261,173.566,89.077-51.7659L892.71,419.8293l-89.077,51.7659,89.366,51.5955m99.6452-57.9074,89.077-51.7659-89.366-51.5955-89.077,51.7659,89.366,51.5955M1193.5944,696.74l89.077-51.7659-89.2-51.5L1104.394,645.24l89.2,51.5m99.6452-57.9074,89.077-51.7659-89.2-51.5-89.077,51.7659,89.2,51.5m-200.1209-.1022,89.077-51.7659-89.1873-51.4923-89.077,51.7659,89.1874,51.4923m99.6452-57.9074,89.077-51.7659-89.1873-51.4923-89.077,51.7659,89.1873,51.4923m-199.9414.0014,89.077-51.7659-88.9128-51.3338L903.91,529.49l88.9128,51.3338m99.6452-57.9074,89.077-51.7659-88.9128-51.3338-89.077,51.7659,88.9128,51.3338" transform="translate(-66.1486 -151.1114)"/><polygon class="cls-83" points="1127.975 558.176 1127.952 566.328 716.231 328.62 716.254 320.469 1127.975 558.176"/></g><g class="cls-2"><polygon class="cls-83" points="1714.863 436.495 1714.84 444.647 1625.653 393.154 1625.676 385.003 1714.863 436.495"/><polygon class="cls-84" points="1625.676 385.003 1625.653 393.154 1536.582 444.917 1536.605 436.765 1625.676 385.003"/><polygon class="cls-83" points="1815.16 494.401 1815.137 502.553 1725.949 451.061 1725.972 442.909 1815.16 494.401"/><polygon class="cls-84" points="1725.972 442.909 1725.949 451.061 1636.878 502.823 1636.902 494.671 1725.972 442.909"/><polygon class="cls-83" points="1915.188 552.153 1915.165 560.304 1825.78 508.698 1825.803 500.546 1915.188 552.153"/><polygon class="cls-84" points="1825.803 500.546 1825.78 508.698 1736.709 560.46 1736.732 552.308 1825.803 500.546"/><polygon class="cls-83" points="2015.012 609.786 2014.989 617.938 1926.076 566.604 1926.099 558.452 2015.012 609.786"/><polygon class="cls-84" points="1926.099 558.452 1926.076 566.604 1837.006 618.366 1837.029 610.215 1926.099 558.452"/><polygon class="cls-83" points="2115.309 667.692 2115.286 675.844 2026.099 624.352 2026.122 616.2 2115.309 667.692"/><polygon class="cls-84" points="2026.122 616.2 2026.099 624.352 1937.028 676.114 1937.051 667.963 2026.122 616.2"/><polygon class="cls-84" points="2136.526 667.692 2136.503 675.844 2026.284 739.896 2026.307 731.744 2136.526 667.692"/><path class="cls-85" d="M1691.7617,523.8282l510.9125,294.9755-110.2186,64.0521L1581.543,587.88Zm200.5042,231.1982,89.0708-51.7623-89.3852-51.6066L1802.8806,703.42l89.3852,51.6066m-100.0283-57.7514,89.0708-51.7623L1792.1209,594.02,1703.05,645.7827l89.1874,51.4924m-100.2966-57.9063,89.0708-51.7623-89.1874-51.4924-89.0708,51.7623,89.1874,51.4924m400.4455,231.1973,89.0708-51.7623L2092.27,767.3117,2003.2,819.074l89.1869,51.4921M1992.09,812.66l89.0708-51.7623-88.9126-51.3337-89.0708,51.7623L1992.09,812.66" transform="translate(-66.1486 -151.1114)"/><polygon class="cls-83" points="2026.307 731.744 2026.284 739.896 1515.371 444.92 1515.394 436.769 2026.307 731.744"/></g><g class="cls-2"><polygon class="cls-83" points="1617.134 609.718 1617.111 617.87 1527.726 566.263 1527.749 558.112 1617.134 609.718"/><polygon class="cls-84" points="1527.749 558.112 1527.726 566.263 1438.648 618.029 1438.671 609.878 1527.749 558.112"/><polygon class="cls-83" points="1716.958 667.352 1716.935 675.504 1628.022 624.17 1628.045 616.018 1716.958 667.352"/><polygon class="cls-83" points="1517.489 667.625 1517.466 675.777 1428.081 624.171 1428.104 616.019 1517.489 667.625"/><polygon class="cls-84" points="1628.045 616.018 1628.022 624.17 1538.945 675.936 1538.968 667.784 1628.045 616.018"/><polygon class="cls-84" points="1428.104 616.019 1428.081 624.171 1339.004 675.937 1339.027 667.785 1428.104 616.019"/><polygon class="cls-83" points="1817.255 725.258 1817.232 733.41 1728.051 681.921 1728.074 673.77 1817.255 725.258"/><polygon class="cls-83" points="1617.314 725.259 1617.291 733.411 1528.377 682.077 1528.401 673.925 1617.314 725.259"/><polygon class="cls-84" points="1728.074 673.77 1728.051 681.921 1638.973 733.687 1638.997 725.536 1728.074 673.77"/><polygon class="cls-84" points="1528.401 673.925 1528.377 682.077 1439.3 733.843 1439.323 725.691 1528.401 673.925"/><polygon class="cls-83" points="1916.913 782.796 1916.89 790.947 1828.507 739.92 1828.53 731.768 1916.913 782.796"/><polygon class="cls-83" points="1717.61 783.165 1717.587 791.317 1628.406 739.828 1628.429 731.677 1717.61 783.165"/><polygon class="cls-84" points="1828.53 731.768 1828.507 739.92 1739.43 791.686 1739.453 783.534 1828.53 731.768"/><polygon class="cls-84" points="1628.429 731.677 1628.406 739.828 1539.329 791.594 1539.352 783.443 1628.429 731.677"/><polygon class="cls-83" points="1817.268 840.703 1817.245 848.854 1728.862 797.827 1728.885 789.675 1817.268 840.703"/><polygon class="cls-84" points="1728.885 789.675 1728.862 797.827 1639.785 849.593 1639.808 841.441 1728.885 789.675"/><polygon class="cls-84" points="1939.394 783.532 1939.371 791.684 1729.513 913.64 1729.537 905.488 1939.394 783.532"/><path class="cls-85" d="M1593.0243,696.4761l412.5183,238.1676L1795.6852,1056.6,1383.1668,818.4319Zm1.1809,116.12,89.0773-51.7661-89.3852-51.6066L1504.82,760.9892l89.3852,51.6066M1494.56,870.503l89.0773-51.7661L1494.2526,767.13l-89.0773,51.7661L1494.56,870.503m200.121,115.54,89.0773-51.7661-89.181-51.4887L1605.5,934.5542l89.181,51.4887m99.6447-57.9072,89.0773-51.7661-89.181-51.4887-89.0773,51.7661,89.181,51.4887M1694.03,870.2294l89.0773-51.7661-88.913-51.334-89.0773,51.7661,88.913,51.334m-99.6447,57.9072,89.0773-51.7661-88.913-51.334-89.0773,51.7661,88.913,51.334m299.5991,57.5365,89.0773-51.7661-88.3825-51.0277-89.0773,51.7661,88.3825,51.0277m-99.6447,57.9072,89.0773-51.7661-88.3825-51.0277-89.0773,51.7661,88.3825,51.0277" transform="translate(-66.1486 -151.1114)"/><polygon class="cls-83" points="1729.537 905.488 1729.513 913.64 1316.995 675.472 1317.018 667.321 1729.537 905.488"/></g><g class="cls-2"><polygon class="cls-83" points="715.318 435.629 715.295 443.781 625.929 392.185 625.952 384.034 715.318 435.629"/><polygon class="cls-84" points="625.952 384.034 625.929 392.185 536.858 443.948 536.881 435.796 625.952 384.034"/><polygon class="cls-83" points="815.142 493.263 815.119 501.414 726.206 450.08 726.229 441.929 815.142 493.263"/><polygon class="cls-83" points="615.673 493.537 615.65 501.688 526.284 450.093 526.307 441.941 615.673 493.537"/><polygon class="cls-84" points="726.229 441.929 726.206 450.08 637.135 501.843 637.158 493.691 726.229 441.929"/><polygon class="cls-84" points="526.307 441.941 526.284 450.093 437.213 501.855 437.236 493.704 526.307 441.941"/><polygon class="cls-83" points="915.439 551.169 915.416 559.321 826.229 507.828 826.252 499.677 915.439 551.169"/><polygon class="cls-83" points="715.497 551.17 715.474 559.322 626.561 507.988 626.584 499.836 715.497 551.17"/><polygon class="cls-84" points="826.252 499.677 826.229 507.828 737.158 559.591 737.181 551.439 826.252 499.677"/><polygon class="cls-84" points="626.584 499.836 626.561 507.988 537.49 559.75 537.513 551.599 626.584 499.836"/><polygon class="cls-83" points="1015.914 609.178 1015.891 617.33 926.691 565.831 926.714 557.679 1015.914 609.178"/><polygon class="cls-83" points="815.794 609.077 815.771 617.228 726.584 565.736 726.607 557.584 815.794 609.077"/><polygon class="cls-84" points="926.714 557.679 926.691 565.831 837.62 617.593 837.644 609.441 926.714 557.679"/><polygon class="cls-84" points="726.607 557.584 726.584 565.736 637.513 617.498 637.536 609.347 726.607 557.584"/><polygon class="cls-83" points="916.269 667.086 916.246 675.237 827.046 623.738 827.069 615.586 916.269 667.086"/><polygon class="cls-84" points="827.069 615.586 827.046 623.738 737.975 675.5 737.998 667.349 827.069 615.586"/><polygon class="cls-84" points="1037.584 609.44 1037.561 617.592 827.698 739.551 827.721 731.399 1037.584 609.44"/><path class="cls-85" d="M692.0117,522.8445l411.7211,237.7073L893.87,882.5108,482.1486,644.8035Zm.3842,115.6586,89.0709-51.7624-89.366-51.5955L603.03,586.9075l89.366,51.5955M592.7507,696.41l89.0709-51.7624-89.366-51.5955L503.3847,644.815l89.366,51.5955M893.3466,869.96l89.0709-51.7624-89.2-51.4994L804.1469,818.46l89.2,51.4994m99.6452-57.9074,89.0709-51.7624-89.2-51.4994-89.0709,51.7624,89.2,51.4994m-100.475-58.0093L981.5877,702.28,892.4,650.7882l-89.0709,51.7624,89.1873,51.4923M792.8716,811.95l89.0709-51.7624-89.1873-51.4923L703.6842,760.458,792.8716,811.95m-.6519-115.814,89.0709-51.7624L792.3779,593.04l-89.0709,51.7624L792.22,696.1363m-99.6452,57.9074,89.0709-51.7624-88.9128-51.3338L603.6618,702.71l88.9128,51.3338" transform="translate(-66.1486 -151.1114)"/><polygon class="cls-83" points="827.721 731.399 827.698 739.551 415.977 501.844 416 493.692 827.721 731.399"/></g><g class="cls-2"><polygon class="cls-83" points="416.86 609.074 416.837 617.226 327.471 565.631 327.494 557.479 416.86 609.074"/><polygon class="cls-84" points="327.494 557.479 327.471 565.631 238.4 617.393 238.423 609.241 327.494 557.479"/><polygon class="cls-83" points="516.684 666.708 516.66 674.859 427.748 623.526 427.771 615.374 516.684 666.708"/><polygon class="cls-83" points="317.215 666.982 317.191 675.133 227.825 623.538 227.848 615.386 317.215 666.982"/><polygon class="cls-84" points="427.771 615.374 427.748 623.526 338.677 675.288 338.7 667.136 427.771 615.374"/><polygon class="cls-84" points="227.848 615.386 227.825 623.538 138.755 675.3 138.778 667.148 227.848 615.386"/><polygon class="cls-83" points="616.981 724.614 616.957 732.766 527.77 681.274 527.793 673.122 616.981 724.614"/><polygon class="cls-83" points="417.038 724.615 417.015 732.767 328.102 681.433 328.126 673.281 417.038 724.615"/><polygon class="cls-84" points="527.793 673.122 527.77 681.274 438.699 733.036 438.722 724.884 527.793 673.122"/><polygon class="cls-84" points="328.126 673.281 328.102 681.433 239.032 733.195 239.055 725.043 328.126 673.281"/><polygon class="cls-83" points="717.456 782.623 717.432 790.775 628.233 739.276 628.256 731.124 717.456 782.623"/><polygon class="cls-83" points="517.335 782.522 517.312 790.673 428.125 739.181 428.148 731.029 517.335 782.522"/><polygon class="cls-84" points="628.256 731.124 628.233 739.276 539.162 791.038 539.185 782.886 628.256 731.124"/><polygon class="cls-84" points="428.148 731.029 428.125 739.181 339.055 790.943 339.078 782.791 428.148 731.029"/><polygon class="cls-83" points="617.81 840.531 617.787 848.683 528.588 797.183 528.611 789.032 617.81 840.531"/><polygon class="cls-84" points="528.611 789.032 528.588 797.183 439.517 848.945 439.541 840.793 528.611 789.032"/><polygon class="cls-84" points="739.126 782.886 739.103 791.037 529.24 912.996 529.263 904.845 739.126 782.886"/><path class="cls-85" d="M393.5531,696.29,805.2742,933.9969,595.4112,1055.956,183.69,818.2487Zm.3842,115.6586,89.0709-51.7624L393.6422,708.59l-89.0709,51.7624,89.366,51.5955m-99.6444,57.907,89.07-51.7619-89.366-51.5955-89.07,51.7619,89.366,51.5955m400.24,115.6421,89.0709-51.7624-89.2-51.4994-89.0709,51.7624,89.2,51.4994m-99.6444,57.907,89.07-51.7619-89.2-51.4994-89.07,51.7619,89.2,51.4994m-.8306-115.9163,89.0709-51.7624-89.1873-51.4923-89.0709,51.7624,89.1873,51.4923m-99.6444,57.907,89.07-51.7619-89.1873-51.4923-89.07,51.7619,89.1873,51.4923m-.6526-115.8135,89.0709-51.7624-88.9128-51.3338-89.0709,51.7624,88.9128,51.3338m-99.6444,57.907,89.07-51.7619-88.9128-51.3338-89.07,51.7619,88.9128,51.3338" transform="translate(-66.1486 -151.1114)"/><polygon class="cls-83" points="529.263 904.845 529.24 912.996 117.518 675.289 117.542 667.137 529.263 904.845"/></g><g class="cls-2"><polygon class="cls-83" points="1316.595 783.174 1316.572 791.325 1227.206 739.73 1227.229 731.578 1316.595 783.174"/><polygon class="cls-84" points="1227.229 731.578 1227.206 739.73 1138.129 791.496 1138.152 783.344 1227.229 731.578"/><polygon class="cls-83" points="1416.42 840.808 1416.397 848.959 1327.484 797.625 1327.507 789.474 1416.42 840.808"/><polygon class="cls-83" points="1216.951 841.081 1216.928 849.232 1127.561 797.637 1127.585 789.485 1216.951 841.081"/><polygon class="cls-84" points="1327.507 789.474 1327.484 797.625 1238.407 849.391 1238.43 841.24 1327.507 789.474"/><polygon class="cls-84" points="1127.585 789.485 1127.561 797.637 1038.491 849.399 1038.514 841.248 1127.585 789.485"/><polygon class="cls-83" points="1516.716 898.714 1516.693 906.865 1427.505 855.373 1427.529 847.221 1516.716 898.714"/><polygon class="cls-83" points="1316.775 898.715 1316.752 906.866 1227.839 855.532 1227.862 847.381 1316.775 898.715"/><polygon class="cls-84" points="1427.529 847.221 1427.505 855.373 1338.428 907.139 1338.452 898.987 1427.529 847.221"/><polygon class="cls-84" points="1227.862 847.381 1227.839 855.532 1138.768 907.295 1138.791 899.143 1227.862 847.381"/><polygon class="cls-83" points="1617.192 956.723 1617.169 964.875 1527.968 913.375 1527.991 905.223 1617.192 956.723"/><polygon class="cls-83" points="1417.071 956.621 1417.048 964.772 1327.861 913.28 1327.884 905.128 1417.071 956.621"/><polygon class="cls-84" points="1527.991 905.223 1527.968 913.375 1438.891 965.141 1438.914 956.989 1527.991 905.223"/><polygon class="cls-84" points="1327.884 905.128 1327.861 913.28 1238.79 965.042 1238.813 956.891 1327.884 905.128"/><polygon class="cls-83" points="1517.547 1014.63 1517.524 1022.782 1428.324 971.282 1428.347 963.13 1517.547 1014.63"/><polygon class="cls-84" points="1428.347 963.13 1428.324 971.282 1339.253 1023.044 1339.276 1014.893 1428.347 963.13"/><polygon class="cls-84" points="1638.854 956.988 1638.831 965.14 1428.974 1087.095 1428.997 1078.944 1638.854 956.988"/><path class="cls-85" d="M1293.2831,870.393l411.72,237.7064-209.8569,121.9555-411.72-237.7064Zm.3834,115.6581,89.077-51.7659-89.366-51.5955-89.077,51.7659,89.366,51.5955m-99.6383,57.9035,89.0709-51.7624-89.366-51.5955-89.0709,51.7624,89.366,51.5955m400.2349,115.6461,89.077-51.7659-89.2-51.5-89.077,51.7659,89.2,51.5m-99.6383,57.9035,89.0709-51.7624-89.2-51.5-89.0709,51.7624,89.2,51.5m-.8374-115.9132,89.077-51.7659-89.1873-51.4923-89.077,51.7659,89.1873,51.4923m-99.6383,57.9035,89.0709-51.7624-89.1873-51.4923-89.0709,51.7624,89.1873,51.4923m-.658-115.81,89.077-51.7659-88.9128-51.3338-89.077,51.7659,88.9128,51.3338m-99.6383,57.9035,89.0709-51.7624-88.9128-51.3338-89.0709,51.7624,88.9128,51.3338" transform="translate(-66.1486 -151.1114)"/><polygon class="cls-83" points="1428.997 1078.944 1428.974 1087.095 1017.254 849.389 1017.278 841.237 1428.997 1078.944"/></g><g class="cls-2"><polygon class="cls-83" points="1018.13 956.622 1018.107 964.774 928.741 913.179 928.764 905.027 1018.13 956.622"/><polygon class="cls-84" points="928.764 905.027 928.741 913.179 839.67 964.941 839.693 956.789 928.764 905.027"/><polygon class="cls-83" points="1117.955 1014.256 1117.932 1022.408 1029.019 971.074 1029.042 962.922 1117.955 1014.256"/><polygon class="cls-83" points="918.492 1014.526 918.469 1022.678 829.103 971.082 829.126 962.93 918.492 1014.526"/><polygon class="cls-84" points="1029.042 962.922 1029.019 971.074 939.948 1022.836 939.971 1014.685 1029.042 962.922"/><polygon class="cls-84" points="829.126 962.93 829.103 971.082 740.026 1022.848 740.049 1014.696 829.126 962.93"/><polygon class="cls-83" points="1218.251 1072.162 1218.228 1080.314 1129.041 1028.822 1129.064 1020.67 1218.251 1072.162"/><polygon class="cls-83" points="1018.317 1072.16 1018.294 1080.311 929.381 1028.977 929.404 1020.826 1018.317 1072.16"/><polygon class="cls-84" points="1129.064 1020.67 1129.041 1028.822 1039.97 1080.584 1039.993 1072.432 1129.064 1020.67"/><polygon class="cls-84" points="929.404 1020.826 929.381 1028.977 840.304 1080.743 840.327 1072.592 929.404 1020.826"/><polygon class="cls-83" points="1318.727 1130.172 1318.704 1138.324 1229.504 1086.824 1229.527 1078.672 1318.727 1130.172"/><polygon class="cls-83" points="1118.613 1130.066 1118.59 1138.217 1029.402 1086.725 1029.426 1078.573 1118.613 1130.066"/><polygon class="cls-84" points="1229.527 1078.672 1229.504 1086.824 1140.433 1138.586 1140.456 1130.435 1229.527 1078.672"/><polygon class="cls-84" points="1029.426 1078.573 1029.402 1086.725 940.325 1138.491 940.349 1130.339 1029.426 1078.573"/><polygon class="cls-83" points="1219.089 1188.075 1219.066 1196.227 1129.865 1144.727 1129.888 1136.576 1219.089 1188.075"/><polygon class="cls-84" points="1129.888 1136.576 1129.865 1144.727 1040.788 1196.493 1040.811 1188.342 1129.888 1136.576"/><polygon class="cls-84" points="1340.396 1130.433 1340.373 1138.584 1130.516 1260.54 1130.539 1252.389 1340.396 1130.433"/><path class="cls-85" d="M994.8253,1043.8377l411.72,237.7064L1196.6872,1403.5l-411.72-237.7064Zm-99.2617,173.5656,89.077-51.7659-89.366-51.5955-89.077,51.7659,89.366,51.5955m99.6444-57.907,89.0709-51.7624-89.366-51.5955-89.0709,51.7624,89.366,51.5955M1196.16,1390.9528l89.077-51.7659-89.2-51.5-89.077,51.7659,89.2,51.5m99.6444-57.907,89.0709-51.7624-89.2-51.5-89.0709,51.7624,89.2,51.5m-200.12-.1027,89.077-51.7659-89.1873-51.4923-89.077,51.7659,89.1874,51.4923m99.6444-57.907,89.0709-51.7624-89.1873-51.4923-89.0709,51.7624,89.1874,51.4923m-199.9407.0009,89.077-51.7659-88.9128-51.3338-89.077,51.7659,88.9128,51.3338m99.6444-57.907,89.0709-51.7624-88.9128-51.3338-89.0709,51.7624,88.9128,51.3338" transform="translate(-66.1486 -151.1114)"/><polygon class="cls-83" points="1130.539 1252.389 1130.516 1260.54 718.796 1022.834 718.819 1014.682 1130.539 1252.389"/></g></g></svg>